<svg width="40" height="40" viewBox="0 0 40 40" fill="none" xmlns="http://www.w3.org/2000/svg">
<path d="M13.3333 9.16685V7.50018C13.2848 7.1606 13.3161 6.81439 13.4246 6.48898C13.5331 6.16357 13.7159 5.86788 13.9584 5.62532C14.201 5.38277 14.4967 5.2 14.8221 5.0915C15.1475 4.983 15.4937 4.95173 15.8333 5.00018H24.1666C24.5062 4.95173 24.8524 4.983 25.1778 5.0915C25.5032 5.2 25.7989 5.38277 26.0415 5.62532C26.284 5.86788 26.4668 6.16357 26.5753 6.48898C26.6838 6.81439 26.7151 7.1606 26.6666 7.50018V9.16685C26.7151 9.50644 26.6838 9.85264 26.5753 10.1781C26.4668 10.5035 26.284 10.7992 26.0415 11.0417C25.7989 11.2843 25.5032 11.467 25.1778 11.5755C24.8524 11.684 24.5062 11.7153 24.1666 11.6669H15.8333C15.4937 11.7153 15.1475 11.684 14.8221 11.5755C14.4967 11.467 14.201 11.2843 13.9584 11.0417C13.7159 10.7992 13.5331 10.5035 13.4246 10.1781C13.3161 9.85264 13.2848 9.50644 13.3333 9.16685ZM33.3333 13.3335V30.0002C33.4302 30.6794 33.3677 31.3718 33.1507 32.0226C32.9337 32.6734 32.5681 33.2648 32.083 33.7499C31.5979 34.235 31.0065 34.6005 30.3557 34.8176C29.7049 35.0346 29.0125 35.0971 28.3333 35.0002H11.6666C10.9875 35.0971 10.295 35.0346 9.64422 34.8176C8.99339 34.6005 8.40201 34.235 7.9169 33.7499C7.43179 33.2648 7.06626 32.6734 6.84926 32.0226C6.63225 31.3718 6.56973 30.6794 6.66663 30.0002V13.3335C6.66663 10.4302 7.91996 8.79518 10.4416 8.42852C10.4895 8.42298 10.5381 8.42736 10.5842 8.44139C10.6304 8.45542 10.6732 8.47879 10.7099 8.51005C10.7467 8.54132 10.7766 8.5798 10.7978 8.62312C10.819 8.66644 10.8311 8.71366 10.8333 8.76185V9.16685C10.7874 9.83529 10.8853 10.5058 11.1204 11.1332C11.3554 11.7606 11.7222 12.3304 12.196 12.8042C12.6697 13.2779 13.2395 13.6447 13.8669 13.8798C14.4944 14.1148 15.1649 14.2127 15.8333 14.1669H24.1666C24.8351 14.2127 25.5056 14.1148 26.133 13.8798C26.7604 13.6447 27.3302 13.2779 27.804 12.8042C28.2777 12.3304 28.6445 11.7606 28.8795 11.1332C29.1146 10.5058 29.2125 9.83529 29.1666 9.16685V8.77018C29.1688 8.722 29.1809 8.67477 29.2021 8.63146C29.2234 8.58814 29.2533 8.54965 29.29 8.51838C29.3267 8.48712 29.3695 8.46375 29.4157 8.44972C29.4618 8.4357 29.5104 8.43131 29.5583 8.43685C32.08 8.79518 33.3333 10.4302 33.3333 13.3335ZM25.05 18.5602C24.8154 18.3265 24.4977 18.1953 24.1666 18.1953C23.8355 18.1953 23.5179 18.3265 23.2833 18.5602L18.6166 23.2269L16.7166 21.3335C16.6013 21.2142 16.4633 21.119 16.3108 21.0536C16.1582 20.9881 15.9942 20.9537 15.8282 20.9524C15.6622 20.951 15.4976 20.9827 15.3441 21.0456C15.1905 21.1086 15.0509 21.2014 14.9336 21.3189C14.8163 21.4363 14.7236 21.5759 14.6608 21.7295C14.598 21.8832 14.5665 22.0478 14.568 22.2138C14.5695 22.3798 14.6041 22.5438 14.6696 22.6962C14.7352 22.8487 14.8305 22.9866 14.95 23.1019L17.7283 25.8785C17.8441 25.9948 17.9818 26.0871 18.1334 26.1501C18.285 26.2131 18.4475 26.2455 18.6116 26.2455C18.7758 26.2455 18.9383 26.2131 19.0899 26.1501C19.2415 26.0871 19.3791 25.9948 19.495 25.8785L25.05 20.3335C25.1669 20.2173 25.2597 20.0792 25.323 19.927C25.3863 19.7749 25.4189 19.6117 25.4189 19.4469C25.4189 19.282 25.3863 19.1188 25.323 18.9667C25.2597 18.8145 25.1669 18.6764 25.05 18.5602Z" fill="#CB172C"/>
</svg>
