<svg width="40" height="40" viewBox="0 0 40 40" fill="none" xmlns="http://www.w3.org/2000/svg">
<path d="M11.0044 13.2384H31.5988V11.9511C31.5988 10.8886 30.7286 10.02 29.6678 10.02H21.1678V8.89573C21.1678 7.29595 19.8666 6 18.272 6H13.3285C12.5561 6 11.8301 6.30207 11.2808 6.85137C10.7315 7.40067 10.4311 8.12154 10.4311 8.89573V10.0217H1.93104C0.868558 10.02 0 10.8885 0 11.9511V29.1967L6.49179 16.045C7.27966 14.4434 9.22271 13.2384 11.0044 13.2384ZM12.3622 8.89573C12.3622 8.63997 12.4669 8.39791 12.6471 8.216C12.8274 8.03059 13.0711 7.92937 13.3269 7.92937H18.2704C18.8042 7.92937 19.235 8.36194 19.235 8.89573V10.0217H12.3623V8.89573H12.3622Z" fill="#CB172C"/>
<path d="M38.7429 15.166H11.0044C9.94361 15.166 8.68888 15.9453 8.22368 16.8962L0.763869 32.0082C0.293583 32.9574 0.779307 33.7367 1.84012 33.7367H29.5786C30.6394 33.7367 31.8959 32.9591 32.3628 32.0082L39.8209 16.8962C40.2894 15.9453 39.8071 15.166 38.7429 15.166Z" fill="#CB172C"/>
</svg>
