<svg width="30" height="30" viewBox="0 0 30 30" fill="none" xmlns="http://www.w3.org/2000/svg">
<path d="M27.6201 4.25262C26.0671 2.56828 23.9362 1.64062 21.6195 1.64062C19.8878 1.64062 18.3018 2.18811 16.9057 3.26775C16.2012 3.81271 15.5628 4.47945 15 5.25764C14.4374 4.47968 13.7988 3.81271 13.0941 3.26775C11.6982 2.18811 10.1122 1.64062 8.38051 1.64062C6.06377 1.64062 3.93265 2.56828 2.37968 4.25262C0.845261 5.91728 0 8.19145 0 10.6565C0 13.1937 0.945511 15.5161 2.97546 17.9656C4.79141 20.1567 7.40135 22.381 10.4237 24.9566C11.4558 25.8362 12.6256 26.8332 13.8403 27.8952C14.1611 28.1763 14.5729 28.331 15 28.331C15.4269 28.331 15.8389 28.1763 16.1593 27.8957C17.374 26.8334 18.5445 25.836 19.577 24.9559C22.5989 22.3808 25.2088 20.1567 27.0248 17.9654C29.0547 15.5161 30 13.1937 30 10.6563C30 8.19145 29.1547 5.91728 27.6201 4.25262Z" fill="#CB172C"/>
</svg>
