<svg width="40" height="40" viewBox="0 0 40 40" fill="none" xmlns="http://www.w3.org/2000/svg">
<path d="M14.0605 12.1816C14.0605 15.7574 16.9696 18.6059 20.4848 18.6059C21.8181 18.6059 23.0302 18.2422 23.9999 17.515C24.0605 17.515 24.0605 17.4544 24.1212 17.4544C25.8181 16.3028 26.909 14.3634 26.909 12.121C26.909 8.54526 23.9999 5.69678 20.4848 5.69678C16.9696 5.69678 14.0605 8.60587 14.0605 12.1816Z" fill="#CB172C"/>
<path d="M32.2426 29.7574C32.2426 24.7877 29.1517 20.3634 24.4851 18.7271C22.0608 20.1816 19.0305 20.2422 16.5457 18.7271C11.879 20.424 8.78809 24.7877 8.78809 29.7574C8.78809 32.6664 14.8487 34.2422 20.5457 34.2422C26.2426 34.2422 32.2426 32.6664 32.2426 29.7574Z" fill="#CB172C"/>
<path d="M5.21216 21.2121C5.21216 23.2121 6.96973 24.6061 8.72731 24.4242C9.39398 22.9091 10.3637 21.5758 11.5758 20.4242C11.2122 19.0303 9.93943 18 8.48489 18C6.6667 18 5.21216 19.4545 5.21216 21.2121Z" fill="#CB172C"/>
<path d="M1.33325 29.8786C1.33325 30.1816 1.51507 30.4847 1.8181 30.7271C2.96962 31.6968 5.69689 32.1816 8.42416 31.9998C6.96962 30.9089 6.60598 29.7574 6.60598 28.8483C6.60598 27.3938 6.8484 26.0604 7.27265 24.7271C6.60598 24.6665 5.93931 24.4847 5.33325 24.1816C2.8484 25.0907 1.33325 27.3332 1.33325 29.8786Z" fill="#CB172C"/>
<path d="M38.6668 30.7878C38.6668 28.2423 37.091 25.9999 34.7274 25.0908C34.1213 25.4545 33.4547 25.6363 32.788 25.6363C33.2122 26.909 33.4547 28.3029 33.4547 29.7575C33.4547 31.0302 32.788 32.0605 31.6365 32.909C33.8789 33.0302 38.6668 32.5454 38.6668 30.7878Z" fill="#CB172C"/>
<path d="M32.606 18C31.0909 18 29.8788 18.9697 29.5151 20.4242C30.7273 21.5758 31.697 22.9091 32.3636 24.4848C34.1818 24.6667 35.8182 23.2121 35.8182 21.2727C35.8182 19.4545 34.3636 18 32.606 18Z" fill="#CB172C"/>
</svg>
