<svg width="56" height="56" viewBox="0 0 56 56" fill="none" xmlns="http://www.w3.org/2000/svg">
<g clip-path="url(#clip0_1503_640)">
<path d="M54.6194 5.07523C53.7429 4.19958 52.5783 3.70969 51.3398 3.69569C51.3217 3.69547 51.3036 3.69536 51.2856 3.69536C50.0669 3.69536 48.9124 4.15791 48.0294 5.00184L21.7517 30.1282C24.5644 30.8452 26.967 32.6501 28.5378 35.2903C29.0164 36.0949 29.3973 36.9466 29.6811 37.8255L54.6941 11.6661C55.5362 10.7848 56.0001 9.6284 56.0001 8.40986C56.0001 7.15128 55.5103 5.96751 54.6194 5.07523Z" fill="#CB172C"/>
<path d="M19.3143 33.0689C19.1821 33.0633 19.0498 33.0606 18.9177 33.0606C16.7004 33.0606 14.501 33.8317 12.707 35.1224C10.5444 36.6782 9.68209 38.9129 8.09419 40.9488C6.10312 43.5015 3.04008 44.7497 0 45.601C1.77045 50.2801 8.3475 52.1959 12.6604 52.2991C12.8152 52.3028 12.9709 52.3047 13.1277 52.3047C18.0109 52.3047 23.7626 50.4897 26.1166 45.6851C28.7009 40.4106 25.5154 33.3284 19.3143 33.0689Z" fill="#CB172C"/>
</g>
<defs>
<clipPath id="clip0_1503_640">
<rect width="56" height="56" fill="white"/>
</clipPath>
</defs>
</svg>
