<svg width="48" height="48" viewBox="0 0 48 48" fill="none" xmlns="http://www.w3.org/2000/svg">
<path d="M15.8577 10.902V8.91982C15.8001 8.51594 15.8373 8.10419 15.9663 7.71717C16.0954 7.33015 16.3127 6.97848 16.6012 6.69001C16.8897 6.40153 17.2414 6.18417 17.6284 6.05512C18.0154 5.92608 18.4271 5.88889 18.831 5.94652H28.742C29.1459 5.88889 29.5577 5.92608 29.9447 6.05512C30.3317 6.18417 30.6834 6.40153 30.9718 6.69001C31.2603 6.97848 31.4777 7.33015 31.6067 7.71717C31.7358 8.10419 31.773 8.51594 31.7153 8.91982V10.902C31.773 11.3059 31.7358 11.7176 31.6067 12.1047C31.4777 12.4917 31.2603 12.8434 30.9718 13.1318C30.6834 13.4203 30.3317 13.6377 29.9447 13.7667C29.5577 13.8958 29.1459 13.9329 28.742 13.8753H18.831C18.4271 13.9329 18.0154 13.8958 17.6284 13.7667C17.2414 13.6377 16.8897 13.4203 16.6012 13.1318C16.3127 12.8434 16.0954 12.4917 15.9663 12.1047C15.8373 11.7176 15.8001 11.3059 15.8577 10.902ZM39.6441 15.8575V35.6795C39.7594 36.4873 39.685 37.3108 39.4269 38.0848C39.1688 38.8589 38.7341 39.5622 38.1572 40.1392C37.5802 40.7161 36.8769 41.1508 36.1028 41.4089C35.3288 41.667 34.5053 41.7414 33.6975 41.6261H13.8755C13.0678 41.7414 12.2443 41.667 11.4702 41.4089C10.6962 41.1508 9.99285 40.7161 9.4159 40.1392C8.83895 39.5622 8.40422 38.8589 8.14613 38.0848C7.88804 37.3108 7.81368 36.4873 7.92892 35.6795V15.8575C7.92892 12.4045 9.41954 10.46 12.4186 10.0239C12.4756 10.0173 12.5333 10.0225 12.5882 10.0392C12.6431 10.0559 12.694 10.0837 12.7377 10.1209C12.7814 10.1581 12.817 10.2038 12.8422 10.2554C12.8674 10.3069 12.8818 10.363 12.8844 10.4203V10.902C12.8299 11.697 12.9463 12.4944 13.2259 13.2407C13.5054 13.9869 13.9416 14.6645 14.5051 15.228C15.0685 15.7914 15.7462 16.2276 16.4924 16.5072C17.2386 16.7867 18.036 16.9032 18.831 16.8486H28.742C29.537 16.9032 30.3345 16.7867 31.0807 16.5072C31.8269 16.2276 32.5045 15.7914 33.068 15.228C33.6314 14.6645 34.0676 13.9869 34.3472 13.2407C34.6267 12.4944 34.7432 11.697 34.6886 10.902V10.4303C34.6912 10.3729 34.7056 10.3168 34.7309 10.2653C34.7561 10.2137 34.7917 10.168 34.8354 10.1308C34.8791 10.0936 34.9299 10.0658 34.9848 10.0491C35.0397 10.0324 35.0975 10.0272 35.1545 10.0338C38.1535 10.46 39.6441 12.4045 39.6441 15.8575ZM29.7926 22.0737C29.5136 21.7958 29.1358 21.6397 28.742 21.6397C28.3482 21.6397 27.9705 21.7958 27.6915 22.0737L22.1413 27.6239L19.8816 25.3721C19.7444 25.2302 19.5803 25.117 19.3989 25.0392C19.2175 24.9613 19.0224 24.9204 18.825 24.9188C18.6276 24.9172 18.4318 24.9549 18.2492 25.0297C18.0665 25.1045 17.9006 25.215 17.761 25.3547C17.6215 25.4943 17.5112 25.6604 17.4365 25.8431C17.3619 26.0258 17.3244 26.2216 17.3262 26.419C17.328 26.6164 17.3691 26.8115 17.4471 26.9928C17.5251 27.1741 17.6384 27.3381 17.7805 27.4752L21.0848 30.7775C21.2225 30.9159 21.3863 31.0256 21.5666 31.1005C21.7468 31.1754 21.9401 31.214 22.1354 31.214C22.3306 31.214 22.5239 31.1754 22.7042 31.1005C22.8844 31.0256 23.0482 30.9159 23.1859 30.7775L29.7926 24.1828C29.9316 24.0446 30.042 23.8803 30.1173 23.6993C30.1926 23.5183 30.2313 23.3243 30.2313 23.1282C30.2313 22.9322 30.1926 22.7381 30.1173 22.5572C30.042 22.3762 29.9316 22.2119 29.7926 22.0737Z" fill="#CB172C"/>
</svg>
