<svg width="40" height="40" viewBox="0 0 40 40" fill="none" xmlns="http://www.w3.org/2000/svg">
<path d="M13.3334 9.16661V7.49994C13.2849 7.16035 13.3162 6.81415 13.4247 6.48874C13.5332 6.16332 13.7159 5.86763 13.9585 5.62508C14.201 5.38252 14.4967 5.19976 14.8222 5.09125C15.1476 4.98275 15.4938 4.95149 15.8334 4.99994H24.1667C24.5063 4.95149 24.8525 4.98275 25.1779 5.09125C25.5033 5.19976 25.799 5.38252 26.0416 5.62508C26.2841 5.86763 26.4669 6.16332 26.5754 6.48874C26.6839 6.81415 26.7151 7.16035 26.6667 7.49994V9.16661C26.7151 9.50619 26.6839 9.8524 26.5754 10.1778C26.4669 10.5032 26.2841 10.7989 26.0416 11.0415C25.799 11.284 25.5033 11.4668 25.1779 11.5753C24.8525 11.6838 24.5063 11.7151 24.1667 11.6666H15.8334C15.4938 11.7151 15.1476 11.6838 14.8222 11.5753C14.4967 11.4668 14.201 11.284 13.9585 11.0415C13.7159 10.7989 13.5332 10.5032 13.4247 10.1778C13.3162 9.8524 13.2849 9.50619 13.3334 9.16661ZM33.3334 13.3333V29.9999C33.4303 30.6791 33.3677 31.3715 33.1507 32.0223C32.9337 32.6732 32.5682 33.2646 32.0831 33.7497C31.598 34.2348 31.0066 34.6003 30.3558 34.8173C29.7049 35.0343 29.0125 35.0968 28.3334 34.9999H11.6667C10.9875 35.0968 10.2951 35.0343 9.64428 34.8173C8.99345 34.6003 8.40208 34.2348 7.91696 33.7497C7.43185 33.2646 7.06632 32.6732 6.84932 32.0223C6.63231 31.3715 6.56979 30.6791 6.66669 29.9999V13.3333C6.66669 10.4299 7.92002 8.79494 10.4417 8.42827C10.4896 8.42274 10.5382 8.42712 10.5843 8.44114C10.6305 8.45517 10.6732 8.47854 10.71 8.50981C10.7467 8.54107 10.7766 8.57956 10.7978 8.62288C10.8191 8.6662 10.8312 8.71342 10.8334 8.76161V9.16661C10.7875 9.83504 10.8854 10.5055 11.1204 11.133C11.3555 11.7604 11.7223 12.3302 12.196 12.8039C12.6698 13.2777 13.2396 13.6445 13.867 13.8795C14.4944 14.1146 15.1649 14.2125 15.8334 14.1666H24.1667C24.8351 14.2125 25.5056 14.1146 26.1331 13.8795C26.7605 13.6445 27.3303 13.2777 27.804 12.8039C28.2778 12.3302 28.6445 11.7604 28.8796 11.133C29.1147 10.5055 29.2125 9.83504 29.1667 9.16661V8.76994C29.1689 8.72175 29.181 8.67453 29.2022 8.63121C29.2234 8.58789 29.2533 8.54941 29.2901 8.51814C29.3268 8.48688 29.3696 8.4635 29.4157 8.44948C29.4619 8.43545 29.5104 8.43107 29.5584 8.43661C32.08 8.79494 33.3334 10.4299 33.3334 13.3333ZM25.05 18.5599C24.8154 18.3263 24.4978 18.1951 24.1667 18.1951C23.8356 18.1951 23.5179 18.3263 23.2834 18.5599L18.6167 23.2266L16.7167 21.3333C16.6013 21.2139 16.4633 21.1188 16.3108 21.0533C16.1583 20.9879 15.9942 20.9535 15.8283 20.9521C15.6623 20.9508 15.4977 20.9825 15.3441 21.0454C15.1905 21.1083 15.051 21.2012 14.9337 21.3186C14.8164 21.436 14.7236 21.5757 14.6609 21.7293C14.5981 21.883 14.5665 22.0476 14.568 22.2135C14.5696 22.3795 14.6041 22.5435 14.6697 22.696C14.7353 22.8485 14.8306 22.9864 14.95 23.1016L17.7284 25.8783C17.8442 25.9946 17.9818 26.0869 18.1334 26.1498C18.285 26.2128 18.4475 26.2452 18.6117 26.2452C18.7758 26.2452 18.9384 26.2128 19.0899 26.1498C19.2415 26.0869 19.3792 25.9946 19.495 25.8783L25.05 20.3333C25.1669 20.2171 25.2597 20.079 25.323 19.9268C25.3863 19.7746 25.4189 19.6114 25.4189 19.4466C25.4189 19.2818 25.3863 19.1186 25.323 18.9664C25.2597 18.8143 25.1669 18.6761 25.05 18.5599Z" fill="#CB172C"/>
</svg>
