<svg width="79" height="79" viewBox="0 0 79 79" fill="none" xmlns="http://www.w3.org/2000/svg">
<path d="M4.25477 41.8273L17.4214 54.9939C17.7251 55.3083 18.0883 55.5591 18.4899 55.7316C18.8915 55.9041 19.3234 55.9949 19.7605 55.9987C20.1976 56.0025 20.631 55.9192 21.0355 55.7537C21.4401 55.5882 21.8076 55.3438 22.1167 55.0347C22.4257 54.7257 22.6701 54.3581 22.8356 53.9536C23.0012 53.5491 23.0844 53.1156 23.0806 52.6786C23.0768 52.2415 22.986 51.8096 22.8135 51.408C22.641 51.0064 22.3902 50.6432 22.0759 50.3395L11.2364 39.5L22.0759 28.6606C22.3902 28.3569 22.641 27.9937 22.8135 27.5921C22.986 27.1905 23.0768 26.7586 23.0806 26.3215C23.0844 25.8845 23.0012 25.451 22.8356 25.0465C22.6701 24.642 22.4257 24.2744 22.1167 23.9654C21.8076 23.6563 21.4401 23.4119 21.0355 23.2464C20.631 23.0809 20.1976 22.9976 19.7605 23.0014C19.3234 23.0052 18.8915 23.096 18.4899 23.2685C18.0883 23.441 17.7251 23.6918 17.4214 24.0062L4.25477 37.1728C3.63768 37.7901 3.29102 38.6272 3.29102 39.5C3.29102 40.3729 3.63768 41.21 4.25477 41.8273Z" fill="#CB172C"/>
<path d="M61.5773 24.0061C61.2737 23.6918 60.9104 23.441 60.5088 23.2685C60.1072 23.096 59.6753 23.0052 59.2382 23.0014C58.8012 22.9976 58.3677 23.0808 57.9632 23.2464C57.5587 23.4119 57.1911 23.6563 56.8821 23.9653C56.573 24.2744 56.3286 24.6419 56.1631 25.0465C55.9976 25.451 55.9143 25.8844 55.9181 26.3215C55.9219 26.7586 56.0127 27.1905 56.1852 27.5921C56.3577 27.9937 56.6085 28.3569 56.9229 28.6606L67.7623 39.5L56.9229 50.3395C56.6085 50.6431 56.3577 51.0063 56.1852 51.4079C56.0127 51.8095 55.9219 52.2415 55.9181 52.6785C55.9143 53.1156 55.9976 53.549 56.1631 53.9536C56.3286 54.3581 56.573 54.7256 56.8821 55.0347C57.1911 55.3438 57.5587 55.5882 57.9632 55.7537C58.3677 55.9192 58.8012 56.0025 59.2382 55.9987C59.6753 55.9949 60.1072 55.9041 60.5088 55.7316C60.9104 55.559 61.2737 55.3083 61.5773 54.9939L74.744 41.8272C75.3611 41.2099 75.7077 40.3729 75.7077 39.5C75.7077 38.6272 75.3611 37.7901 74.744 37.1728L61.5773 24.0061Z" fill="#CB172C"/>
<path d="M42.9183 15.5565L29.7516 61.6398C29.512 62.4787 29.6152 63.3785 30.0386 64.1414C30.462 64.9043 31.171 65.4679 32.0097 65.7083C32.3046 65.7898 32.609 65.8318 32.9149 65.8334C33.6303 65.8329 34.3259 65.5993 34.8967 65.1681C35.4675 64.737 35.8822 64.1316 36.0782 63.4436L49.2449 17.3603C49.3821 16.9395 49.4331 16.4953 49.3947 16.0543C49.3563 15.6133 49.2293 15.1846 49.0214 14.7938C48.8135 14.403 48.529 14.0582 48.1847 13.7799C47.8405 13.5016 47.4436 13.2957 47.018 13.1743C46.5923 13.0529 46.1465 13.0187 45.7073 13.0735C45.268 13.1284 44.8444 13.2713 44.4617 13.4937C44.0789 13.7161 43.745 14.0134 43.4798 14.3678C43.2146 14.7223 43.0237 15.1265 42.9183 15.5565Z" fill="#CB172C"/>
</svg>
