<svg width="71" height="70" viewBox="0 0 71 70" fill="none" xmlns="http://www.w3.org/2000/svg">
<rect x="1.1001" y="0.5" width="68.5334" height="68.5334" rx="13.0455" fill="white"/>
<rect x="1.1001" y="0.5" width="68.5334" height="68.5334" rx="13.0455" stroke="#D7D7D7"/>
<path d="M17.7009 35.6489L24.2009 42.1489C24.3508 42.3041 24.5301 42.4279 24.7283 42.5131C24.9266 42.5982 25.1398 42.6431 25.3556 42.6449C25.5714 42.6468 25.7853 42.6057 25.9851 42.524C26.1848 42.4423 26.3662 42.3216 26.5188 42.1691C26.6713 42.0165 26.792 41.835 26.8737 41.6353C26.9554 41.4356 26.9965 41.2217 26.9947 41.0059C26.9928 40.7901 26.948 40.5769 26.8628 40.3786C26.7776 40.1804 26.6538 40.0011 26.4986 39.8512L21.1475 34.5L26.4986 29.1489C26.6538 28.999 26.7776 28.8197 26.8628 28.6214C26.948 28.4232 26.9928 28.21 26.9947 27.9942C26.9965 27.7784 26.9554 27.5644 26.8737 27.3647C26.792 27.165 26.6713 26.9836 26.5188 26.831C26.3662 26.6784 26.1848 26.5578 25.9851 26.4761C25.7853 26.3944 25.5714 26.3533 25.3556 26.3551C25.1398 26.357 24.9266 26.4018 24.7283 26.487C24.5301 26.5722 24.3508 26.696 24.2009 26.8512L17.7009 33.3512C17.3962 33.6559 17.2251 34.0691 17.2251 34.5C17.2251 34.9309 17.3962 35.3442 17.7009 35.6489Z" fill="black"/>
<path d="M45.9994 26.8511C45.8495 26.6959 45.6702 26.5721 45.4719 26.487C45.2737 26.4018 45.0605 26.357 44.8447 26.3551C44.6289 26.3532 44.4149 26.3943 44.2152 26.476C44.0155 26.5578 43.8341 26.6784 43.6815 26.831C43.5289 26.9836 43.4083 27.165 43.3266 27.3647C43.2449 27.5644 43.2038 27.7784 43.2056 27.9942C43.2075 28.2099 43.2523 28.4232 43.3375 28.6214C43.4227 28.8197 43.5465 28.999 43.7017 29.1489L49.0528 34.5L43.7017 39.8511C43.5465 40.001 43.4227 40.1803 43.3375 40.3786C43.2523 40.5769 43.2075 40.7901 43.2056 41.0059C43.2038 41.2216 43.2449 41.4356 43.3266 41.6353C43.4083 41.835 43.5289 42.0164 43.6815 42.169C43.8341 42.3216 44.0155 42.4423 44.2152 42.524C44.4149 42.6057 44.6289 42.6468 44.8447 42.6449C45.0605 42.643 45.2737 42.5982 45.4719 42.513C45.6702 42.4279 45.8495 42.3041 45.9994 42.1489L52.4994 35.6489C52.8041 35.3442 52.9752 34.9309 52.9752 34.5C52.9752 34.0691 52.8041 33.6559 52.4994 33.3511L45.9994 26.8511Z" fill="black"/>
<path d="M36.7876 22.6798L30.2876 45.4298C30.1693 45.8439 30.2202 46.2881 30.4293 46.6647C30.6383 47.0414 30.9883 47.3196 31.4024 47.4383C31.5479 47.4785 31.6982 47.4992 31.8492 47.5C32.2024 47.4997 32.5458 47.3845 32.8276 47.1716C33.1094 46.9587 33.3141 46.6599 33.4109 46.3203L39.9109 23.5703C39.9786 23.3625 40.0038 23.1432 39.9848 22.9255C39.9659 22.7078 39.9032 22.4962 39.8006 22.3033C39.6979 22.1103 39.5574 21.9401 39.3875 21.8027C39.2175 21.6653 39.0216 21.5637 38.8115 21.5037C38.6013 21.4438 38.3813 21.4269 38.1644 21.454C37.9476 21.4811 37.7385 21.5517 37.5495 21.6614C37.3606 21.7712 37.1957 21.918 37.0648 22.093C36.9339 22.2679 36.8396 22.4675 36.7876 22.6798Z" fill="black"/>
</svg>
