<svg width="40" height="40" viewBox="0 0 40 40" fill="none" xmlns="http://www.w3.org/2000/svg">
<path fill-rule="evenodd" clip-rule="evenodd" d="M14.7064 17.9418C14.6115 17.9418 14.5195 17.9044 14.4519 17.8368C14.3843 17.7692 14.3469 17.6772 14.3469 17.5823V11.8303C14.3469 11.235 13.8637 10.7518 13.2684 10.7518C8.70138 10.7518 5 14.4546 5 19.0202C5 23.5859 8.70138 27.2887 13.2684 27.2887C17.8355 27.2887 21.5368 23.5859 21.5368 19.0202C21.5368 18.4249 21.0537 17.9418 20.4583 17.9418H14.7064Z" fill="#CB172C"/>
<path fill-rule="evenodd" clip-rule="evenodd" d="M12.1899 9.37291C12.5436 9.33409 12.9031 9.31396 13.2684 9.31396C14.6575 9.31396 15.7848 10.4413 15.7848 11.8304V16.5039H20.4583C21.8474 16.5039 22.9748 17.6313 22.9748 19.0204C22.9748 24.3797 18.6306 28.7268 13.2684 28.7268C12.9031 28.7268 12.5436 28.7066 12.1899 28.6678V31.9622C12.1899 33.0105 12.6069 34.0171 13.3475 34.7591C14.0895 35.4997 15.096 35.9167 16.1443 35.9167H31.9622C33.0105 35.9167 34.0171 35.4997 34.7591 34.7591C35.4996 34.0171 35.9166 33.0105 35.9166 31.9622V13.904C35.9166 13.1951 35.6175 12.5192 35.0927 12.0418C33.6676 10.7462 29.4098 6.87657 28.0667 5.65428C27.6022 5.23295 26.9997 5 26.3727 5C24.673 5 19.4603 5 16.1443 5C15.096 5 14.0895 5.41702 13.3475 6.15758C12.6069 6.89958 12.1899 7.90617 12.1899 8.95446V9.37291ZM25.8507 28.3673C25.8507 27.3751 25.0455 26.5698 24.0533 26.5698H21.8963C20.9041 26.5698 20.0988 27.3751 20.0988 28.3673V31.2432C20.0988 32.2354 20.9041 33.0407 21.8963 33.0407H24.0533C25.0455 33.0407 25.8507 32.2354 25.8507 31.2432V28.3673ZM32.3217 24.0533C32.3217 23.0611 31.5164 22.2558 30.5242 22.2558H28.3672C27.375 22.2558 26.5697 23.0611 26.5697 24.0533V31.2432C26.5697 32.2354 27.375 33.0407 28.3672 33.0407H30.5242C31.5164 33.0407 32.3217 32.2354 32.3217 31.2432V24.0533ZM26.2102 6.90965C26.3598 6.97148 26.4993 7.06063 26.6215 7.17136C27.966 8.39365 32.2225 12.2633 33.6489 13.5589C33.7827 13.6826 33.892 13.8278 33.971 13.9874H26.9292C26.5323 13.9874 26.2102 13.6653 26.2102 13.2684V6.90965Z" fill="#CB172C"/>
</svg>
