<svg width="44" height="44" viewBox="0 0 44 44" fill="none" xmlns="http://www.w3.org/2000/svg">
<path fill-rule="evenodd" clip-rule="evenodd" d="M21.8835 2.27948C32.7031 2.27948 41.4875 11.0639 41.4875 21.8834C41.4875 32.703 32.7031 41.4874 21.8835 41.4874C11.0639 41.4874 2.27954 32.703 2.27954 21.8834C2.27954 11.0639 11.0639 2.27948 21.8835 2.27948ZM19.604 13.9051L20.5158 24.8468C20.5158 25.6018 21.1285 26.2146 21.8835 26.2146C22.6385 26.2146 23.2512 25.6018 23.2512 24.8468L24.163 13.9051C24.163 13.1501 23.7071 11.6256 21.8835 11.6256C20.0599 11.6256 19.604 13.1501 19.604 13.9051ZM21.8835 28.4941C20.8769 28.4941 20.0599 29.3111 20.0599 30.3177C20.0599 31.3244 20.8769 32.1413 21.8835 32.1413C22.8901 32.1413 23.7071 31.3244 23.7071 30.3177C23.7071 29.3111 22.8901 28.4941 21.8835 28.4941Z" fill="#CB172C"/>
</svg>
