<svg width="70" height="70" viewBox="0 0 70 70" fill="none" xmlns="http://www.w3.org/2000/svg">
<rect width="70" height="70" rx="13.5455" fill="white"/>
<path d="M34.707 35.4161C34.707 31.6577 37.7539 28.6108 41.5123 28.6108C45.2707 28.6108 48.3176 31.6578 48.3176 35.4161C48.3176 39.1746 45.2707 42.2214 41.5123 42.2214C37.7538 42.2214 34.707 39.1745 34.707 35.4161Z" fill="#00BCFF"/>
<path d="M21.0957 49.0266C21.0957 45.2682 24.1425 42.2213 27.901 42.2213L31.5276 40.3066L34.7062 42.2213V49.0266C34.7062 52.7851 31.6594 55.8319 27.901 55.8319C24.1425 55.8319 21.0957 52.7851 21.0957 49.0266Z" fill="#00CF7F"/>
<path d="M34.707 15L31.0039 21.4334L34.707 28.6105H41.4168C45.1753 28.6105 48.2221 25.5637 48.2221 21.8053C48.2221 18.0468 45.1752 15 41.4168 15H34.707Z" fill="#FF7361"/>
<path d="M21 21.8053C21 25.5637 24.0468 28.6105 27.8053 28.6105L31.4153 30.0049L34.706 28.6105V15H27.8052C24.0468 15 21 18.0468 21 21.8053Z" fill="#FF4D12"/>
<path d="M21.0957 35.4157C21.0957 39.1742 24.1425 42.221 27.901 42.221H34.7062V28.6104H27.901C24.1425 28.6104 21.0957 31.6573 21.0957 35.4157Z" fill="#B659FF"/>
</svg>
