<svg width="40" height="40" viewBox="0 0 40 40" fill="none" xmlns="http://www.w3.org/2000/svg">
<path d="M3.75 20C3.57284 9.21206 14.6826 1.11251 24.8952 4.50023C25.0524 4.54674 25.2216 4.52965 25.3663 4.45263C25.5111 4.37562 25.6198 4.24484 25.6691 4.08846C25.7183 3.93208 25.7042 3.7626 25.6298 3.61653C25.5553 3.47045 25.4264 3.35946 25.271 3.30745C11.5852 -1.22357 -1.78 12.9593 3.6877 26.349C3.75019 26.5002 3.86948 26.6208 4.01995 26.6851C4.17042 26.7493 4.34008 26.752 4.4925 26.6925C4.64492 26.633 4.76794 26.5162 4.83515 26.367C4.90236 26.2178 4.9084 26.0483 4.85197 25.8947C4.12044 24.0156 3.74669 22.0164 3.75 20Z" fill="#CB172C"/>
<path d="M8.1875 31.1437L10.1063 31.0562C10.2705 31.0466 10.4243 30.9728 10.5345 30.8506C10.6447 30.7285 10.7023 30.5678 10.6949 30.4035C10.6875 30.2391 10.6157 30.0843 10.495 29.9725C10.3743 29.8608 10.2144 29.801 10.05 29.8062L6.80625 29.9562C6.65335 29.9698 6.5101 30.0367 6.40156 30.1453C6.29302 30.2538 6.2261 30.3971 6.2125 30.55L6.0625 33.7937C6.05729 33.9581 6.11704 34.118 6.22881 34.2387C6.34059 34.3594 6.49541 34.4312 6.65975 34.4386C6.82409 34.446 6.98473 34.3884 7.1069 34.2782C7.22906 34.1681 7.30293 34.0142 7.3125 33.85L7.39375 32.0812C8.16458 32.9574 9.04713 33.7286 10.0188 34.375C10.0861 34.4222 10.162 34.4556 10.2422 34.4735C10.3225 34.4913 10.4054 34.4932 10.4864 34.479C10.5674 34.4648 10.6447 34.4347 10.7141 34.3906C10.7834 34.3465 10.8434 34.2892 10.8906 34.2218C10.9378 34.1545 10.9713 34.0786 10.9891 33.9984C11.007 33.9181 11.0089 33.8352 10.9946 33.7542C10.9804 33.6732 10.9504 33.5959 10.9063 33.5265C10.8622 33.4572 10.8048 33.3972 10.7375 33.35C9.831 32.6825 8.97838 31.9448 8.1875 31.1437Z" fill="#CB172C"/>
<path d="M36.1423 13.2307C36.0768 13.0799 35.9545 12.961 35.802 12.8998C35.6495 12.8385 35.479 12.8398 35.3274 12.9034C35.1759 12.967 35.0554 13.0877 34.9923 13.2394C34.9291 13.3912 34.9283 13.5617 34.9899 13.7141C40.4337 26.6085 27.7676 40.018 14.5842 35.3258C14.4287 35.2736 14.2589 35.2846 14.1115 35.3564C13.964 35.4283 13.8508 35.5552 13.7961 35.7098C13.7414 35.8645 13.7497 36.0344 13.8192 36.183C13.8887 36.3315 14.0138 36.4468 14.1675 36.504C28.3683 41.5602 42.0061 27.1109 36.1423 13.2307Z" fill="#CB172C"/>
<path d="M28.6563 6.24379C29.7242 6.97698 30.7185 7.81215 31.625 8.73754L29.7688 8.81879C29.6076 8.82943 29.4568 8.90198 29.3479 9.02126C29.239 9.14054 29.1804 9.29732 29.1844 9.45879C29.1885 9.62026 29.2548 9.77391 29.3695 9.88761C29.4843 10.0013 29.6385 10.0662 29.8 10.0688C29.8188 10.075 33.05 9.91879 33.075 9.91879C33.2279 9.90519 33.3711 9.83827 33.4797 9.72973C33.5882 9.62119 33.6552 9.47794 33.6688 9.32504L33.8188 6.08129C33.8233 5.91727 33.7633 5.75801 33.6515 5.63784C33.5398 5.51767 33.3853 5.4462 33.2214 5.43882C33.0575 5.43145 32.8972 5.48876 32.7751 5.59841C32.6531 5.70805 32.5789 5.86127 32.5688 6.02504L32.4875 7.79379C32.464 7.73455 32.4277 7.6812 32.3813 7.63754C31.457 6.70692 30.4296 5.88492 29.3188 5.18754C29.2496 5.14308 29.1722 5.11281 29.0912 5.09848C29.0103 5.08416 28.9272 5.08606 28.847 5.10409C28.7668 5.12211 28.6909 5.1559 28.6238 5.20349C28.5567 5.25107 28.4998 5.31151 28.4563 5.38129C28.3689 5.52233 28.341 5.69218 28.3785 5.85377C28.4159 6.01536 28.5158 6.15557 28.6563 6.24379Z" fill="#CB172C"/>
<path d="M15.0875 30.2313L16.9813 28.9063C17.1005 28.8229 17.2357 28.7652 17.3783 28.7367C17.521 28.7082 17.6679 28.7096 17.81 28.7407C17.9521 28.7718 18.0862 28.832 18.2039 28.9175C18.3216 29.003 18.4203 29.112 18.4938 29.2375L19.7313 31.3563C19.7876 31.4533 19.8689 31.5334 19.9667 31.5884C20.0646 31.6434 20.1753 31.6711 20.2875 31.6688C22.344 31.6198 24.3511 31.0291 26.1063 29.9563C26.2045 29.8948 26.2838 29.8074 26.3356 29.7038C26.3875 29.6001 26.4097 29.4842 26.4 29.3688L26.2 27.0688C26.1892 26.9234 26.2082 26.7773 26.2559 26.6395C26.3035 26.5017 26.3788 26.3751 26.4771 26.2674C26.5754 26.1598 26.6947 26.0733 26.8276 26.0134C26.9605 25.9534 27.1042 25.9212 27.25 25.9188L29.7125 25.9125C29.8239 25.9116 29.9329 25.881 30.0285 25.8239C30.1241 25.7667 30.2027 25.6851 30.2563 25.5875C31.1883 23.8727 31.676 21.9517 31.675 20C31.6925 19.6717 31.6554 19.281 31.3063 19.1375L29.225 18.1625C29.0926 18.1008 28.9744 18.0123 28.878 17.9025C28.7816 17.7928 28.7091 17.6642 28.665 17.5249C28.621 17.3856 28.6063 17.2387 28.622 17.0935C28.6377 16.9483 28.6834 16.8079 28.7563 16.6813L29.975 14.55C30.0299 14.4523 30.0577 14.3416 30.0555 14.2296C30.0533 14.1175 30.0212 14.008 29.9625 13.9125C28.892 12.1575 27.3761 10.717 25.5688 9.7375C25.4669 9.6824 25.3519 9.65619 25.2363 9.6617C25.1206 9.66721 25.0087 9.70423 24.9125 9.76875L23.0188 11.0938C22.8995 11.1771 22.7643 11.2348 22.6217 11.2633C22.479 11.2918 22.332 11.2904 22.19 11.2593C22.0479 11.2282 21.9138 11.1679 21.7961 11.0824C21.6784 10.9969 21.5797 10.888 21.5063 10.7624L20.2688 8.64375C20.2151 8.54437 20.1344 8.46225 20.0359 8.40693C19.9374 8.35161 19.8253 8.32537 19.7125 8.33125C17.656 8.38021 15.6489 8.97093 13.8938 10.0438C13.7955 10.1052 13.7162 10.1926 13.6644 10.2962C13.6125 10.3999 13.5903 10.5158 13.6 10.6313L13.8 12.9313C13.8108 13.0767 13.7918 13.2227 13.7441 13.3605C13.6965 13.4983 13.6212 13.6249 13.5229 13.7326C13.4246 13.8402 13.3053 13.9267 13.1724 13.9867C13.0395 14.0466 12.8958 14.0788 12.75 14.0813L10.2875 14.0875C10.1762 14.0884 10.0671 14.119 9.97149 14.1762C9.87591 14.2333 9.7973 14.3149 9.74375 14.4125C8.81174 16.1273 8.32399 18.0483 8.325 20C8.3075 20.3284 8.34461 20.7188 8.69375 20.8625L10.775 21.8375C10.9074 21.8992 11.0256 21.9877 11.122 22.0975C11.2184 22.2072 11.2909 22.3358 11.335 22.4751C11.379 22.6144 11.3937 22.7613 11.378 22.9065C11.3623 23.0517 11.3166 23.1921 11.2438 23.3188L10.025 25.45C9.97011 25.5477 9.94233 25.6584 9.94453 25.7705C9.94673 25.8825 9.97882 25.992 10.0375 26.0875C11.108 27.8426 12.6239 29.283 14.4313 30.2625C14.5326 30.3191 14.6479 30.3462 14.7638 30.3406C14.8798 30.3351 14.9919 30.2972 15.0875 30.2313ZM25.25 20C25.25 21.3924 24.6969 22.7278 23.7123 23.7123C22.7277 24.6969 21.3924 25.25 20 25.25C18.6076 25.25 17.2722 24.6969 16.2877 23.7123C15.3031 22.7278 14.75 21.3924 14.75 20C15.04 13.0354 24.9611 13.0375 25.25 20Z" fill="#CB172C"/>
<path d="M24 19.9999C23.8128 14.7053 16.186 14.7075 16 20C16.1869 25.2942 23.8139 25.2928 24 19.9999Z" fill="#CB172C"/>
</svg>
