<svg width="45" height="45" viewBox="0 0 45 45" fill="none" xmlns="http://www.w3.org/2000/svg">
<g clip-path="url(#clip0_1503_831)">
<path d="M43.6542 27.4313L39.518 24.1969C39.5704 23.6981 39.6154 23.1151 39.6154 22.4982C39.6154 21.8813 39.5723 21.2982 39.518 20.7994L43.658 17.5632C44.4267 16.9557 44.6367 15.8775 44.1473 14.9795L39.8461 7.5375C39.3867 6.69753 38.3798 6.26625 37.358 6.64313L32.4773 8.60247C31.5417 7.92747 30.561 7.3575 29.5467 6.90188L28.8042 1.72503C28.6823 0.7425 27.8273 0 26.8167 0H18.1917C17.1811 0 16.328 0.7425 16.208 1.71L15.4636 6.90565C14.4811 7.34818 13.5155 7.91068 12.5386 8.60625L7.64487 6.64128C6.72791 6.2869 5.63103 6.68435 5.17541 7.52063L0.86859 14.9719C0.360494 15.8307 0.570465 16.9463 1.35612 17.5688L5.49234 20.8032C5.42669 21.435 5.39487 21.9844 5.39487 22.5001C5.39487 23.0157 5.42677 23.5651 5.49234 24.1988L1.35234 27.4351C0.58356 28.0444 0.375435 29.1226 0.86481 30.0188L5.16609 37.4607C5.62549 38.2988 6.62296 38.7337 7.65419 38.355L12.5348 36.3957C13.4686 37.0688 14.4492 37.6388 15.4636 38.0963L16.2061 43.2713C16.3279 44.2575 17.1811 45 18.1936 45H26.8186C27.8292 45 28.6842 44.2575 28.8042 43.29L29.5485 38.0963C30.5311 37.6519 31.4948 37.0912 32.4735 36.3937L37.3673 38.3587C37.6035 38.4506 37.8492 38.4975 38.1023 38.4975C38.8298 38.4975 39.4992 38.1 39.8367 37.4812L44.1567 30C44.6367 29.1225 44.4267 28.0444 43.6542 27.4313ZM22.5042 30C18.368 30 15.0042 26.6362 15.0042 22.5C15.0042 18.3638 18.368 15 22.5042 15C26.6404 15 30.0042 18.3638 30.0042 22.5C30.0042 26.6362 26.6404 30 22.5042 30Z" fill="#CB172C"/>
</g>
<defs>
<clipPath id="clip0_1503_831">
<rect width="45" height="45" fill="white"/>
</clipPath>
</defs>
</svg>
