<svg width="53" height="53" viewBox="0 0 53 53" fill="none" xmlns="http://www.w3.org/2000/svg">
<path d="M47.3228 51.6336L47.3228 51.6335L34.0642 38.3749C30.4451 41.0731 26.0483 42.5342 21.5262 42.5342L47.3228 51.6336ZM47.3228 51.6336L47.3291 51.6396M47.3228 51.6336L47.3291 51.6396M47.3291 51.6396C48.5412 52.8103 50.4728 52.7767 51.6435 51.5645C52.7855 50.3821 52.7855 48.5075 51.6435 47.3251L51.6435 47.3251M47.3291 51.6396L51.6435 47.3251M51.6435 47.3251L51.6374 47.319M51.6435 47.3251L51.6374 47.319M51.6374 47.319L38.3785 34.06M51.6374 47.319L38.3785 34.06M38.3785 34.06C45.1878 24.9114 43.4566 11.9536 34.4077 4.92403C25.2422 -2.19605 12.0403 -0.538029 4.92019 8.62745C-2.19989 17.7929 -0.541876 30.9949 8.6236 38.115C12.3135 40.9815 16.8535 42.5365 21.5261 42.5342L38.3785 34.06ZM10.9773 10.9748L10.9781 10.974C16.8036 5.14842 26.2486 5.14832 32.0742 10.9738C37.8998 16.7993 37.8999 26.2444 32.0744 32.07C26.2489 37.8956 16.8039 37.8957 10.9783 32.0702L10.9781 32.07L10.9768 32.0687C5.15209 26.2865 5.11764 16.8773 10.8996 11.0525C10.8997 11.0524 10.8999 11.0522 10.9 11.0521L10.9773 10.9748Z" fill="#CB172C" stroke="#CB172C"/>
</svg>
