<svg width="53" height="53" viewBox="0 0 53 53" fill="none" xmlns="http://www.w3.org/2000/svg">
<path fill-rule="evenodd" clip-rule="evenodd" d="M20.6903 1.01709C14.8621 1.25466 9.17363 3.96312 5.31497 8.93026C2.27405 12.8448 0.873335 17.5135 1.00896 22.1093C0.873339 17.5135 2.27407 12.8448 5.31498 8.93028C9.17364 3.96314 14.8621 1.25466 20.6903 1.01709ZM34.7143 4.52526C43.8639 11.633 45.7059 24.6607 39.0344 34.005L51.997 46.9676L52.003 46.9738C53.3322 48.35 53.3322 50.5318 52.0031 51.908C50.6405 53.3188 48.3924 53.3578 46.9816 51.9953L46.9754 51.9893L34.0132 39.0271C30.3762 41.6264 26.0112 43.0303 21.5261 43.0303C16.7424 43.0326 12.0944 41.4406 8.31678 38.506C-1.06677 31.2165 -2.76423 17.7003 4.52526 8.31679C11.8148 -1.06676 25.3308 -2.76423 34.7143 4.52526ZM11.2548 11.4004L11.3315 11.3237C16.9618 5.69332 26.0902 5.69321 31.7206 11.3235C37.3509 16.9537 37.351 26.0822 31.7208 31.7125C26.0905 37.3429 16.9619 37.3428 11.3315 31.7125L11.3289 31.7099C5.70042 26.1224 5.66695 17.0302 11.2539 11.4013L11.2548 11.4004Z" fill="#CB172C"/>
</svg>
