<svg width="180" height="273" viewBox="0 0 180 273" fill="none" xmlns="http://www.w3.org/2000/svg">
<path fill-rule="evenodd" clip-rule="evenodd" d="M179 269.5V139H180V270.5H5.61979C5.38575 271.734 4.30178 272.667 2.99992 272.667C1.52716 272.667 0.333252 271.473 0.333252 270C0.333252 268.527 1.52716 267.333 2.99992 267.333C4.30178 267.333 5.38575 268.266 5.61979 269.5H179Z" fill="black"/>
<path fill-rule="evenodd" clip-rule="evenodd" d="M141 5.66665C139.527 5.66665 138.333 4.47274 138.333 2.99998C138.333 1.52722 139.527 0.333313 141 0.333313C142.302 0.333313 143.386 1.26622 143.62 2.49998H180V139H179V3.49998H143.62C143.386 4.73374 142.302 5.66665 141 5.66665Z" fill="white"/>
</svg>
