<svg width="92" height="29" viewBox="0 0 92 29" fill="none" xmlns="http://www.w3.org/2000/svg">
<circle cx="14.1608" cy="14.1608" r="12.5874" stroke="#CB172C" stroke-width="3.14685"/>
<path d="M40.0883 23.832V6.80909H43.0843V21.3126L42.1764 20.7452L53.5705 6.80909H56.8162L42.7666 23.832H40.0883ZM48.1912 15.2752L50.3021 13.2097L57.0658 23.832H53.6386L48.1912 15.2752ZM58.9731 6.80909H61.9692V23.832H58.9731V6.80909ZM88.6794 6.80909V23.832H85.8195V7.71698L86.7501 7.76238L78.8288 23.832H75.6285L67.7071 7.78507L68.6377 7.73968V23.832H65.7779V6.80909H70.3627L77.989 22.5383H76.491L84.0946 6.80909H88.6794Z" fill="#16181B"/>
<path d="M14.1611 23.2119V6.18896H17.1572V20.6925L16.2493 20.1251L27.6433 6.18896H30.889L16.8394 23.2119H14.1611ZM22.2641 14.655L24.3749 12.5896L31.1387 23.2119H27.7114L22.2641 14.655Z" fill="#16181B"/>
<path d="M34.4647 23.3932C34.1167 23.3932 33.7989 23.31 33.5114 23.1436C33.239 22.9771 33.0196 22.7577 32.8532 22.4854C32.6867 22.1979 32.6035 21.8801 32.6035 21.5321C32.6035 21.184 32.6867 20.8739 32.8532 20.6015C33.0196 20.314 33.239 20.087 33.5114 19.9206C33.7989 19.7541 34.1167 19.6709 34.4647 19.6709C34.8127 19.6709 35.1229 19.7541 35.3953 19.9206C35.6828 20.087 35.9097 20.314 36.0762 20.6015C36.2426 20.8739 36.3259 21.184 36.3259 21.5321C36.3259 21.8801 36.2426 22.1979 36.0762 22.4854C35.9097 22.7577 35.6828 22.9771 35.3953 23.1436C35.1229 23.31 34.8127 23.3932 34.4647 23.3932Z" fill="#16181B"/>
</svg>
