<svg width="45" height="45" viewBox="0 0 45 45" fill="none" xmlns="http://www.w3.org/2000/svg">
<path fill-rule="evenodd" clip-rule="evenodd" d="M15.7058 33.5161L19.8855 38.9482C20.2649 39.4413 20.1984 40.1393 19.7376 40.5573L18.3002 41.8618C18.0435 42.0947 17.7345 42.1983 17.3893 42.1671C17.0441 42.1359 16.7598 41.9778 16.5479 41.7035L11.9141 35.7052L15.7058 33.5161ZM38.6338 19.5751H42.8906C43.5715 19.5751 44.1225 19.019 44.121 18.339C44.1196 17.6581 43.5644 17.1079 42.8844 17.1079H38.6276C37.9467 17.1079 37.3957 17.664 37.3971 18.3439C37.3985 19.025 37.9537 19.5751 38.6338 19.5751ZM33.581 8.3671L35.7095 4.68061C36.0495 4.09166 35.8507 3.3358 35.2617 2.99408C34.6735 2.65289 33.9164 2.85196 33.576 3.44162L31.4476 7.1281C31.1075 7.71706 31.3063 8.47292 31.8954 8.81464C32.4835 9.15583 33.2405 8.95675 33.581 8.3671ZM38.5061 12.7829L42.0009 10.7652C42.5941 10.4227 42.7973 9.66427 42.4548 9.07092C42.1123 8.47766 41.3539 8.27446 40.7605 8.61697L37.2658 10.6348C36.6726 10.9773 36.4694 11.7357 36.8119 12.329C37.1544 12.9222 37.9128 13.1254 38.5061 12.7829ZM33.0096 18.3348L37.1316 25.4745C37.9056 26.8149 37.442 28.5449 36.1016 29.3188C34.8507 30.041 33.2608 29.6855 32.4249 28.5455H32.4247C27.862 27.8514 21.9185 28.597 16.0084 30.9008L10.3267 21.0598C15.2788 17.0978 18.9074 12.3485 20.5878 8.05008L20.5879 8.0499C19.9976 6.75017 20.4825 5.17693 21.7431 4.44911C23.0836 3.67514 24.8135 4.13877 25.5875 5.47919L29.7095 12.6189C29.8269 12.5282 29.9516 12.4443 30.0836 12.3681C31.6763 11.4485 33.7131 11.9942 34.6327 13.587C35.5523 15.1798 35.0066 17.2166 33.4138 18.1362C33.2818 18.2124 33.1468 18.2785 33.0096 18.3348ZM14.5798 31.9419L8.62615 21.6301L3.89316 24.3627C1.0172 26.0231 0.0228039 29.7346 1.68315 32.6105L1.68323 32.6106C3.34366 35.4865 7.05511 36.4809 9.93107 34.8206L14.6641 32.088L14.5798 31.9419Z" fill="#CB172C"/>
</svg>
