<svg width="24" height="24" viewBox="0 0 24 24" fill="none" xmlns="http://www.w3.org/2000/svg">
<g clip-path="url(#clip0_1698_486)">
<rect width="24" height="24" rx="12" fill="white"/>
<path d="M20.484 3.51344C15.797 -1.17214 8.19899 -1.17101 3.51341 3.51602C-1.17217 8.20305 -1.17104 15.801 3.51599 20.4866C8.20302 25.1722 15.801 25.171 20.4866 20.484C22.7368 18.233 24.0007 15.1803 24 11.9974C23.9993 8.8151 22.7346 5.76335 20.484 3.51344ZM18.1736 16.7159C18.173 16.7164 18.1725 16.717 18.172 16.7175V16.7135L17.564 17.3175C16.7776 18.1137 15.6324 18.4413 14.5439 18.1815C13.4473 17.8879 12.4048 17.4207 11.456 16.7975C10.5744 16.2341 9.75749 15.5755 9.01996 14.8335C8.34135 14.1598 7.73169 13.4201 7.19994 12.6255C6.61832 11.7704 6.15796 10.8389 5.83194 9.85746C5.45821 8.70452 5.76791 7.43941 6.63196 6.58947L7.34394 5.87749C7.54189 5.67864 7.86355 5.67794 8.06235 5.87589C8.06286 5.87641 8.06343 5.87692 8.06394 5.87749L10.3119 8.12547C10.5108 8.32342 10.5115 8.64508 10.3135 8.84388C10.313 8.84439 10.3125 8.84491 10.3119 8.84547L8.99193 10.1655C8.61318 10.5401 8.56555 11.1354 8.87994 11.5655C9.35736 12.2207 9.88569 12.8373 10.46 13.4095C11.1002 14.0525 11.7963 14.6375 12.5399 15.1575C12.9696 15.4572 13.5522 15.4067 13.9239 15.0375L15.1999 13.7415C15.3979 13.5427 15.7195 13.542 15.9183 13.7399C15.9188 13.7404 15.9193 13.741 15.9199 13.7415L18.1719 15.9975C18.3708 16.1954 18.3715 16.517 18.1736 16.7159Z" fill="#CB172C"/>
</g>
<defs>
<clipPath id="clip0_1698_486">
<rect width="24" height="24" rx="12" fill="white"/>
</clipPath>
</defs>
</svg>
