<svg width="39" height="39" viewBox="0 0 39 39" fill="none" xmlns="http://www.w3.org/2000/svg">
<g clip-path="url(#clip0_1399_713)">
<path d="M27.3287 13.8164L17.4391 21.9L16.9738 22.2811C16.8716 22.3622 16.8048 22.4798 16.7877 22.6091L16.6835 23.4689L16.3977 25.8842C16.4003 25.9136 16.3912 25.9428 16.3723 25.9655C16.3534 25.9881 16.3262 26.0023 16.2968 26.005C16.2675 26.0076 16.2382 25.9985 16.2156 25.9796C16.1929 25.9607 16.1787 25.9335 16.1761 25.9042L15.3717 23.4888L14.5407 21.0181C14.5053 20.9073 14.5098 20.7877 14.5536 20.68C14.5973 20.5723 14.6774 20.4833 14.7801 20.4286L25.0707 14.5299L27.0074 13.4219C27.2889 13.258 27.5769 13.6125 27.3287 13.8164Z" fill="url(#paint0_linear_1399_713)"/>
<path d="M19.5 0C15.6433 0 11.8731 1.14366 8.66639 3.28634C5.45963 5.42903 2.96027 8.47451 1.48436 12.0377C0.00844911 15.6008 -0.377716 19.5216 0.374696 23.3043C1.12711 27.0869 2.9843 30.5615 5.71143 33.2886C8.43855 36.0157 11.9131 37.8729 15.6957 38.6253C19.4784 39.3777 23.3992 38.9916 26.9623 37.5157C30.5255 36.0397 33.571 33.5404 35.7137 30.3336C37.8564 27.1269 39 23.3567 39 19.5C39 14.3283 36.9456 9.36838 33.2886 5.71142C29.6316 2.05446 24.6717 0 19.5 0ZM31.6631 11.2878L27.8562 28.1088C27.6767 28.8977 26.6751 29.2544 25.9727 28.7736L20.2246 24.8736L17.2974 27.6413C17.178 27.7533 17.0331 27.8344 16.8753 27.8778C16.7175 27.9211 16.5514 27.9253 16.3916 27.8899C16.2318 27.8545 16.083 27.7807 15.9582 27.6748C15.8334 27.5689 15.7363 27.4342 15.6754 27.2823L14.6184 24.18L13.5614 21.0777L7.89529 19.5266C7.73687 19.492 7.59431 19.406 7.48978 19.2821C7.38525 19.1581 7.32461 19.0031 7.31728 18.8411C7.30995 18.6791 7.35635 18.5192 7.44926 18.3863C7.54216 18.2534 7.67638 18.1549 7.83103 18.1062L29.7198 10.2198L30.1231 10.0757C30.9718 9.77881 31.8493 10.4657 31.6631 11.2878Z" fill="url(#paint1_linear_1399_713)"/>
</g>
<defs>
<linearGradient id="paint0_linear_1399_713" x1="33.7397" y1="33.4108" x2="21.3101" y2="36.5752" gradientUnits="userSpaceOnUse">
<stop stop-color="#CB172C"/>
<stop offset="1" stop-color="#E52D43"/>
</linearGradient>
<linearGradient id="paint1_linear_1399_713" x1="58.0873" y1="61.875" x2="20.4288" y2="71.2541" gradientUnits="userSpaceOnUse">
<stop stop-color="#CB172C"/>
<stop offset="1" stop-color="#E52D43"/>
</linearGradient>
<clipPath id="clip0_1399_713">
<rect width="39" height="39" fill="white"/>
</clipPath>
</defs>
</svg>
