<svg width="39" height="39" viewBox="0 0 39 39" fill="none" xmlns="http://www.w3.org/2000/svg">
<g clip-path="url(#clip0_1399_719)">
<path d="M19.5 0C15.6433 0 11.8731 1.14366 8.66639 3.28634C5.45963 5.42903 2.96027 8.47451 1.48436 12.0377C0.00844911 15.6008 -0.377716 19.5216 0.374696 23.3043C1.12711 27.0869 2.9843 30.5615 5.71143 33.2886C8.43855 36.0157 11.9131 37.8729 15.6957 38.6253C19.4784 39.3777 23.3992 38.9916 26.9623 37.5157C30.5255 36.0397 33.571 33.5404 35.7137 30.3336C37.8564 27.1269 39 23.3567 39 19.5C39 14.3283 36.9456 9.36838 33.2886 5.71142C29.6316 2.05446 24.6717 0 19.5 0ZM30.7391 27.1316C30.1718 27.2114 27.3975 27.1316 27.2535 27.1316C26.5363 27.141 25.8443 26.8671 25.3279 26.3693C24.7429 25.8043 24.2199 25.1838 23.6482 24.5966C23.4797 24.4164 23.2967 24.2503 23.1009 24.1002C22.6444 23.7501 22.1923 23.8277 21.9774 24.3684C21.8096 24.9503 21.6924 25.5456 21.6273 26.1477C21.5896 26.6928 21.2439 27.0341 20.6323 27.0718C20.2534 27.0917 19.8745 27.1006 19.5 27.0895C18.1351 27.082 16.7915 26.7501 15.5801 26.1211C14.2689 25.3913 13.1265 24.3931 12.2274 23.1917C10.7494 21.3038 9.5683 19.2297 8.51353 17.0913C8.45813 16.9827 7.37677 14.6826 7.35018 14.574C7.25268 14.2128 7.35018 13.8649 7.64933 13.7431C7.8399 13.6699 11.4031 13.7431 11.4629 13.7431C11.728 13.7413 11.9868 13.8238 12.2019 13.9788C12.417 14.1337 12.5772 14.353 12.6595 14.6051C13.3188 16.2914 14.2205 17.8724 15.3363 19.2984C15.4926 19.4883 15.6755 19.6547 15.8792 19.7925C16.1695 19.9919 16.4443 19.9232 16.5639 19.5864C16.7059 19.1222 16.7893 18.6421 16.8121 18.1572C16.8321 17.1955 16.8121 16.5639 16.7589 15.6022C16.7235 14.9862 16.5063 14.4477 15.5978 14.2727C15.3186 14.2217 15.2942 13.9913 15.4737 13.7608C15.8482 13.2844 16.3601 13.2068 16.934 13.178C17.7893 13.1293 18.6447 13.1625 19.5 13.178H19.6861C20.0584 13.1767 20.4298 13.2145 20.7941 13.291C21.0096 13.335 21.2052 13.4474 21.3518 13.6115C21.4983 13.7756 21.5879 13.9826 21.6073 14.2018C21.6513 14.4444 21.6699 14.691 21.6627 14.9374C21.6406 15.9856 21.5896 17.0359 21.5785 18.084C21.5682 18.4999 21.6061 18.9156 21.6915 19.3227C21.8134 19.8811 22.1968 20.0207 22.5779 19.6174C23.0719 19.0972 23.5245 18.5394 23.9318 17.9489C24.6537 16.8725 25.2486 15.7163 25.7046 14.5031C25.9527 13.8805 26.1477 13.7431 26.8125 13.7431H30.5929C30.8176 13.7391 31.0417 13.769 31.2576 13.8317C31.334 13.8518 31.4055 13.8874 31.4675 13.9364C31.5295 13.9854 31.5807 14.0466 31.618 14.1163C31.6552 14.186 31.6776 14.2626 31.6839 14.3414C31.6901 14.4201 31.6801 14.4993 31.6543 14.574C31.4681 15.4028 31.0205 16.1097 30.5463 16.7899C29.7774 17.878 28.9664 18.9394 28.1797 20.0141C28.0851 20.153 27.9985 20.2973 27.9205 20.4462C27.6235 20.9824 27.6457 21.2816 28.0756 21.7248C28.7625 22.4317 29.496 23.092 30.1585 23.8188C30.6445 24.3476 31.0834 24.9178 31.4704 25.5228C31.9423 26.2851 31.6432 27.0031 30.7391 27.1316Z" fill="url(#paint0_linear_1399_719)"/>
</g>
<defs>
<linearGradient id="paint0_linear_1399_719" x1="58.0873" y1="61.875" x2="20.4288" y2="71.2541" gradientUnits="userSpaceOnUse">
<stop stop-color="#CB172C"/>
<stop offset="1" stop-color="#E52D43"/>
</linearGradient>
<clipPath id="clip0_1399_719">
<rect width="39" height="39" fill="white"/>
</clipPath>
</defs>
</svg>
