<svg width="24" height="24" viewBox="0 0 24 24" fill="none" xmlns="http://www.w3.org/2000/svg">
<g clip-path="url(#clip0_1698_480)">
<rect width="24" height="24" rx="12" fill="#CB172C"/>
<path d="M12 0C5.3736 0 0 5.3736 0 12C0 18.6264 5.3736 24 12 24C18.6264 24 24 18.6264 24 12C24 5.3736 18.6264 0 12 0ZM12.2543 18.9868C12.2545 18.9868 12.2542 18.9868 12.2543 18.9868H12.2514C11.0493 18.9862 9.8681 18.6848 8.81909 18.1128L5.01178 19.1113L6.03076 15.3906C5.40216 14.3018 5.07147 13.0666 5.07202 11.8011C5.07367 7.84241 8.29559 4.62177 12.2543 4.62177C14.1755 4.6225 15.9789 5.3703 17.3348 6.72729C18.6909 8.08447 19.4372 9.88843 19.4365 11.8068C19.4348 15.7657 16.2125 18.9868 12.2543 18.9868Z" fill="white"/>
<path d="M12.2573 5.83447C8.96454 5.83447 6.28662 8.51129 6.28516 11.8017C6.28479 12.9293 6.60046 14.0273 7.19794 14.9775L7.33984 15.2032L6.73669 17.4055L8.99603 16.8129L9.21411 16.9422C10.1306 17.486 11.1812 17.7737 12.2524 17.774H12.2548C15.545 17.774 18.2229 15.097 18.2244 11.8065C18.2249 10.2118 17.6046 8.71252 16.4775 7.58459C15.3505 6.45667 13.8516 5.83502 12.2573 5.83447ZM15.7686 14.3674C15.619 14.7863 14.9021 15.1688 14.5573 15.2205C14.248 15.2666 13.8569 15.2858 13.427 15.1494C13.1663 15.0667 12.8321 14.9562 12.4038 14.7715C10.6037 13.9944 9.42798 12.1824 9.33826 12.0626C9.24854 11.9429 8.60547 11.0898 8.60547 10.2067C8.60547 9.32373 9.06909 8.88959 9.23352 8.71014C9.39813 8.53052 9.59259 8.48566 9.71216 8.48566C9.83173 8.48566 9.95148 8.48676 10.056 8.49188C10.1663 8.49738 10.3142 8.44995 10.4598 8.79987C10.6094 9.15912 10.9683 10.0421 11.0131 10.1318C11.058 10.2217 11.0878 10.3264 11.0281 10.4462C10.9683 10.5659 10.7694 10.8243 10.5795 11.0598C10.4999 11.1584 10.3961 11.2463 10.5008 11.426C10.6053 11.6054 10.9657 12.193 11.4991 12.6687C12.1846 13.2799 12.7629 13.4692 12.9423 13.5591C13.1216 13.6489 13.2263 13.6339 13.3311 13.5143C13.4356 13.3945 13.7797 12.9904 13.8992 12.8108C14.0188 12.6312 14.1385 12.6612 14.303 12.7211C14.4676 12.7808 15.3498 13.2149 15.5292 13.3046C15.7087 13.3945 15.8282 13.4394 15.8731 13.5143C15.9182 13.5892 15.9182 13.9482 15.7686 14.3674Z" fill="white"/>
</g>
<defs>
<clipPath id="clip0_1698_480">
<rect width="24" height="24" rx="12" fill="white"/>
</clipPath>
</defs>
</svg>
