<svg width="47" height="47" viewBox="0 0 47 47" fill="none" xmlns="http://www.w3.org/2000/svg">
<path d="M26.9743 10.8925V11.986H15.9123C13.7508 11.986 11.9876 13.7491 11.9876 15.9107V32.7029H5.18094C3.94334 32.7029 2.96851 31.7026 2.96851 30.4904V24.6501C3.42628 24.8281 3.93485 24.9129 4.45191 24.9129C6.78298 24.9129 8.6733 23.031 8.6733 20.6915C8.6733 18.3604 6.78298 16.4617 4.45191 16.4617C3.93485 16.4617 3.42628 16.5465 2.96851 16.7414V10.8925C2.96851 9.67189 3.94334 8.68015 5.18094 8.68015H11.0298C10.8517 8.21394 10.7416 7.72228 10.7416 7.19674C10.7416 4.86567 12.6403 2.96692 14.9714 2.96692C17.3025 2.96692 19.1928 4.86567 19.1928 7.19674C19.1928 7.72228 19.091 8.21394 18.913 8.68015H24.7619C25.991 8.68015 26.9743 9.67189 26.9743 10.8925Z" fill="#CB172C"/>
<path d="M39.3934 21.5307C38.8642 21.5307 38.3632 21.6394 37.8957 21.8158V15.9142C37.8957 14.682 36.8968 13.6831 35.6646 13.6831H15.9127C14.6805 13.6831 13.6816 14.682 13.6816 15.9142V35.6662C13.6816 36.8983 14.6805 37.8972 15.9127 37.8972H21.8142C21.6379 38.3647 21.5292 38.8658 21.5292 39.395C21.5292 41.7474 23.4362 43.6545 25.7887 43.6545C28.1411 43.6545 30.0481 41.7474 30.0481 39.395C30.0481 38.8658 29.9394 38.3647 29.7631 37.8972H35.6646C36.8968 37.8972 37.8957 36.8983 37.8957 35.6662V29.7647C38.3632 29.941 38.8642 30.0497 39.3934 30.0497C41.7459 30.0497 43.6529 28.1426 43.6529 25.7902C43.6529 23.4378 41.7459 21.5307 39.3934 21.5307Z" fill="#CB172C"/>
</svg>
