<svg width="201" height="112" viewBox="0 0 201 112" fill="none" xmlns="http://www.w3.org/2000/svg">
<path d="M29.2197 65.1958V61.9976L40.3882 58.1553L40.8611 65.7215L29.2197 65.1958Z" fill="white"/>
<path d="M73.1537 81.1548H24.6927C24.7826 81.0576 24.8566 80.9706 24.9393 80.8893C26.2888 79.5369 27.6426 78.1889 28.9804 76.825C29.1125 76.69 29.2097 76.4535 29.2111 76.2649C29.2227 72.7099 29.2169 69.1549 29.2155 65.6014C29.2155 65.4577 29.2155 65.3141 29.2155 65.1429C29.6116 65.1632 29.9787 65.198 30.3473 65.198C32.4367 65.1995 34.5291 65.2343 36.6171 65.1719C37.7112 65.14 38.7603 64.8149 39.6396 64.101C40.6118 63.3131 40.5465 62.3148 39.4582 61.7127C38.5615 61.2164 37.5719 61.1018 36.5736 61.2193C34.2433 61.4935 31.9695 62.0478 29.7117 62.6747C29.5623 62.7168 29.4114 62.753 29.214 62.8038C29.214 62.6282 29.214 62.4889 29.214 62.3482C29.2097 52.8818 29.2039 43.4139 29.2082 33.9474C29.2082 33.6181 29.1125 33.3874 28.8789 33.1581C27.5599 31.8609 26.2554 30.5492 24.9466 29.2418C24.8566 29.1518 24.7725 29.0575 24.6201 28.8936H73.1566V81.1577L73.1537 81.1548ZM56.0578 56.6646C56.0578 56.3047 56.0724 56.0392 56.0549 55.7765C55.9548 54.2573 55.7938 52.741 55.7604 51.2204C55.7314 49.897 55.0886 49.1062 53.9176 48.6491C52.7785 48.2051 51.5728 48.1036 50.3742 47.9672C49.5834 47.8772 48.7941 47.7698 48.0062 47.6552C47.9031 47.6407 47.7827 47.5565 47.7319 47.468C47.7072 47.4245 47.803 47.2765 47.877 47.2155C48.8434 46.4262 49.8649 45.7181 51.0156 45.2175C52.1575 44.7198 53.3386 44.492 54.5822 44.7343C55.4789 44.9084 56.2363 45.3742 57.001 45.8472C57.4566 46.1287 57.9543 46.387 58.468 46.5176C59.7913 46.8528 61.1466 46.8717 62.5018 46.7425C63.4406 46.654 64.3301 46.3841 65.1165 45.8588C65.4067 45.6644 65.6563 45.3786 65.8551 45.0869C66.0278 44.8344 65.8986 44.5849 65.6041 44.4949C65.4459 44.447 65.2689 44.418 65.1064 44.4368C64.3678 44.521 63.7192 44.8185 63.1461 45.2973C63.0068 45.4134 62.7848 45.5062 62.6092 45.4932C61.9838 45.4482 61.3584 45.3786 60.7403 45.2741C59.253 45.0245 57.8977 44.5094 56.7384 43.4748C55.7401 42.5839 54.6504 41.7887 53.3778 41.2983C53.0615 41.1764 53.1964 41.011 53.3183 40.8238C53.9481 39.8531 54.1556 38.7967 53.8683 37.6737C53.6317 36.7537 52.9062 36.2183 51.8934 36.1443C51.0736 36.0833 50.4511 36.4795 50.0564 37.3385C49.6487 38.2265 49.6516 39.1348 49.9621 40.0519C50.0985 40.4553 50.0187 40.5336 49.6095 40.4785C49.2032 40.4248 48.7941 40.3653 48.3849 40.3609C46.3854 40.3334 44.5484 40.8993 42.8594 41.9513C40.5131 43.4124 38.8241 45.4903 37.4007 47.8148C37.3165 47.9527 37.1932 48.0731 37.0684 48.1776C36.353 48.7754 35.8916 49.4951 36.0062 50.4644C36.0585 50.9098 36.3966 51.0927 36.8261 50.9766C37.7808 50.7197 38.6021 49.2557 38.3395 48.3038C38.3061 48.1848 38.3351 48.0252 38.3903 47.912C38.4628 47.7626 38.5876 47.6378 38.6921 47.5057C40.0967 45.7529 41.8132 44.4194 43.9259 43.6257C44.0434 43.5807 44.1943 43.6214 44.3293 43.6214C44.3032 43.7447 44.3061 43.8855 44.248 43.9914C43.45 45.4134 42.6505 46.8339 41.8364 48.2472C41.3924 49.0163 41.404 49.617 41.9191 50.3309C42.456 51.0723 43.1917 51.5817 43.9607 52.0416C45.5017 52.963 47.1617 53.6218 48.839 54.2399C48.9899 54.2951 49.1336 54.3734 49.3121 54.4547C49.1887 54.6404 49.0988 54.7811 49.0016 54.9175C48.5242 55.5937 48.1179 56.3076 47.9452 57.1245C47.6971 58.3013 47.1312 59.3141 46.3781 60.2312C46.2562 60.3792 46.0763 60.5141 45.8949 60.5722C44.9431 60.8827 43.9767 61.1468 43.0292 61.4703C42.6621 61.5966 42.2877 61.7838 41.996 62.0333C41.5491 62.4178 41.642 62.991 42.1977 63.184C42.6156 63.3291 43.1003 63.3871 43.5399 63.3392C44.5339 63.2319 45.5206 63.0432 46.5073 62.8735C52.7829 61.7968 58.883 60.0832 64.8075 57.7514C65.3269 57.5468 65.8174 57.2276 66.2628 56.8866C67.2699 56.1161 67.7298 55.0133 68.0534 53.8191C68.2449 53.1125 67.9765 52.8905 67.5238 52.6075C67.2945 52.4653 67.0174 52.3754 66.7489 52.3246C65.5968 52.1055 64.5042 52.3812 63.4812 52.8716C62.3291 53.4244 61.2278 54.0832 60.0888 54.6651C58.78 55.334 57.4537 55.971 56.0564 56.6602L56.0578 56.6646ZM67.6268 69.2594V67.7054C66.9376 67.672 66.3252 67.8563 65.7332 68.1015C64.954 68.4251 64.1879 68.7806 63.416 69.1259C62.5149 69.5293 61.6167 69.5235 60.7171 69.1245C60.0119 68.811 59.3052 68.4991 58.6015 68.1813C57.1983 67.5457 55.7996 67.5486 54.3993 68.19C53.7087 68.5063 53.0107 68.8081 52.3186 69.123C51.3943 69.5438 50.4743 69.5365 49.5515 69.1201C48.8477 68.8038 48.1411 68.4918 47.4359 68.1755C46.069 67.5632 44.7022 67.5574 43.3353 68.1755C42.7085 68.4584 42.0744 68.7269 41.4577 69.0287C40.3636 69.5656 39.2841 69.5627 38.1842 69.0359C37.4457 68.6819 36.6955 68.3409 35.9279 68.0565C35.407 67.8635 34.8454 67.7808 34.2317 67.6314C34.2317 68.2509 34.2215 68.7559 34.2433 69.2594C34.2462 69.3261 34.3927 69.4161 34.4885 69.4466C34.9688 69.6004 35.4665 69.7078 35.9337 69.8906C36.5838 70.146 37.2106 70.4608 37.8534 70.7394C39.1651 71.3068 40.4797 71.3053 41.7885 70.7336C42.4749 70.4347 43.1612 70.1373 43.8359 69.8137C44.8618 69.3218 45.8746 69.3131 46.9034 69.8021C47.5781 70.1227 48.2659 70.4188 48.9522 70.7177C50.2741 71.2952 51.5989 71.2981 52.9193 70.7177C53.549 70.4405 54.186 70.1779 54.7984 69.8688C55.9389 69.2928 57.0576 69.2971 58.2025 69.8616C58.9047 70.2084 59.6273 70.5189 60.3543 70.8105C61.4905 71.2676 62.6411 71.2647 63.7787 70.8105C64.3388 70.5871 64.88 70.3186 65.4401 70.0937C66.141 69.8122 66.8505 69.554 67.6239 69.2608L67.6268 69.2594ZM67.6355 72.81V71.1922C67.1625 71.2821 66.7069 71.3053 66.3006 71.4591C65.3879 71.803 64.4912 72.1934 63.6031 72.5982C62.5831 73.064 61.579 73.077 60.5633 72.6054C59.9176 72.3065 59.266 72.0178 58.6174 71.7261C57.2158 71.0978 55.8126 71.0949 54.4109 71.7261C53.8392 71.9844 53.2588 72.2253 52.7002 72.5097C51.5263 73.1089 50.3728 73.1046 49.1945 72.514C48.5155 72.1745 47.8146 71.877 47.1094 71.5941C45.9617 71.1341 44.7994 71.1341 43.6517 71.6028C42.9929 71.8712 42.3327 72.144 41.7029 72.4719C40.4478 73.1249 39.2115 73.1365 37.9622 72.4763C37.6851 72.3297 37.3978 72.2021 37.1105 72.0758C36.7245 71.906 36.3429 71.7116 35.9424 71.5912C35.407 71.4301 34.8541 71.3271 34.2665 71.1907V72.9595C35.2894 73.0451 36.1528 73.5181 37.0408 73.923C37.2715 74.0274 37.5022 74.1305 37.7344 74.2335C39.1245 74.8545 40.5175 74.856 41.9075 74.2364C42.5576 73.9462 43.2076 73.656 43.8504 73.3513C44.8894 72.8579 45.9181 72.8666 46.9542 73.3629C47.5738 73.6603 48.2078 73.9288 48.8347 74.2117C50.248 74.8531 51.6598 74.8487 53.0717 74.2045C53.7522 73.8939 54.4371 73.5936 55.119 73.286C56.0404 72.8681 56.9633 72.8652 57.8876 73.2758C58.5928 73.5892 59.298 73.9056 60.0017 74.2204C61.3802 74.8357 62.7601 74.84 64.1386 74.2204C64.5898 74.0173 65.0324 73.7953 65.4924 73.6124C66.1816 73.3382 66.8824 73.0915 67.637 72.8115L67.6355 72.81ZM67.6587 64.162C67.473 64.1707 67.3366 64.1533 67.2147 64.1866C66.6227 64.3448 66.0191 64.4768 65.4474 64.693C64.7262 64.9658 64.037 65.3199 63.3274 65.626C62.4989 65.9859 61.6588 65.9874 60.8288 65.6362C60.1178 65.3358 59.4111 65.0224 58.7118 64.6974C57.2404 64.014 55.7865 64.0343 54.3021 64.6901C53.1529 65.198 52.0734 65.9192 50.7239 65.9264C50.7239 66.3951 50.7399 66.8289 50.7181 67.2613C50.7021 67.5661 50.8023 67.6952 51.1084 67.6255C51.6598 67.5022 52.2315 67.4326 52.7568 67.2367C53.581 66.9305 54.3732 66.5402 55.18 66.1861C56.0564 65.8016 56.9372 65.7973 57.815 66.1789C58.5231 66.4865 59.2269 66.8043 59.9306 67.1206C61.3439 67.7561 62.7572 67.7663 64.1734 67.1307C64.5913 66.9436 64.999 66.7259 65.4271 66.5663C66.0902 66.3196 66.7693 66.1179 67.4367 65.8829C67.5252 65.8524 67.6442 65.7421 67.6486 65.6638C67.6674 65.1835 67.6587 64.7003 67.6587 64.1576V64.162ZM62.0346 64.0894C62.2203 64.0778 62.3393 64.0735 62.4568 64.0604C63.4856 63.9559 64.3838 63.4756 65.3182 63.0868C66.0133 62.798 66.7446 62.5963 67.4541 62.3366C67.5426 62.3047 67.6428 62.1639 67.65 62.0667C67.6732 61.7054 67.6428 61.3412 67.6645 60.9813C67.6834 60.6694 67.576 60.5925 67.2684 60.6273C66.302 60.7361 65.4416 61.141 64.5768 61.5385C63.8222 61.8853 63.0866 62.2815 62.2363 62.3627C62.1652 62.37 62.0491 62.4889 62.0476 62.5601C62.0317 63.0519 62.0389 63.5438 62.0389 64.0894H62.0346Z" fill="#CC2228"/>
<path d="M113.529 57.5205C113.321 58.2619 113.131 58.9439 112.937 59.6259C112.129 62.4583 111.325 65.2907 110.505 68.1201C110.411 68.4466 110.485 68.5772 110.804 68.6527C111.6 68.8413 112.393 69.0517 113.196 69.2548C112.413 69.4551 111.635 69.6901 110.843 69.844C110.171 69.9745 109.861 70.3068 109.676 70.9888C108.813 74.1927 107.876 77.3776 106.977 80.5728C106.895 80.8673 106.768 80.9762 106.454 80.9762C103.395 80.9675 100.336 80.9718 97.2774 80.9849C96.9422 80.9863 96.8218 80.8731 96.7652 80.5452C96.5461 79.2741 96.2965 78.0074 96.0542 76.7406C96.0368 76.6463 95.9961 76.5564 95.9657 76.4649C95.9337 76.4678 95.9033 76.4722 95.8713 76.4751C95.7654 77.0512 95.6566 77.6258 95.5536 78.2018C95.4056 79.0318 95.2532 79.8632 95.1197 80.6961C95.0849 80.9123 94.9819 80.9863 94.7831 80.982C94.7352 80.982 94.6859 80.982 94.638 80.982C91.5923 80.9979 88.5452 81.0081 85.4995 81.0356C85.1759 81.0385 85.0352 80.9399 84.9466 80.6265C84.0412 77.4328 83.1256 74.242 82.1955 71.0556C82.091 70.6957 82.1723 70.5085 82.5089 70.3982C83.4927 70.0732 84.4751 69.7482 85.4589 69.4232C85.5691 69.3869 85.6823 69.3593 85.794 69.3288C85.7984 69.2955 85.8013 69.2635 85.8056 69.2302C85.5865 69.1736 85.3631 69.1315 85.1498 69.0575C84.2269 68.7426 83.2968 68.4437 82.3885 68.0882C82.049 67.9547 81.7341 67.7153 81.4599 67.4686C81.2553 67.2844 81.0608 67.0275 80.9854 66.7678C80.1336 63.8484 79.3065 60.9217 78.4737 57.9964C78.4417 57.8818 78.4142 57.7671 78.3735 57.6032C78.5317 57.5945 78.6579 57.5829 78.7842 57.5829C81.2393 57.58 83.693 57.5843 86.1481 57.5669C86.5166 57.564 86.6734 57.6728 86.7633 58.0385C87.7964 62.2087 88.8455 66.3731 89.8917 70.5404C89.9236 70.6667 89.9643 70.79 90.0789 70.9351C90.1297 70.8045 90.1964 70.6783 90.2298 70.5433C90.8929 67.8851 91.5531 65.2268 92.2133 62.5671C92.5979 61.0218 92.9882 59.4779 93.3611 57.9297C93.4278 57.6554 93.5526 57.5596 93.8327 57.5596C95.2227 57.5567 96.6128 57.5466 98.0029 57.5161C98.3192 57.5089 98.444 57.6191 98.5194 57.918C99.5584 62.0999 100.607 66.2774 101.655 70.4563C101.694 70.6144 101.754 70.7668 101.892 70.925C101.929 70.8074 101.973 70.6913 102.002 70.5724C103.044 66.3934 104.088 62.2145 105.114 58.0327C105.209 57.6482 105.348 57.5089 105.761 57.5118C108.192 57.5335 110.622 57.5219 113.051 57.5219C113.192 57.5219 113.333 57.5219 113.529 57.5219V57.5205Z" fill="#262626"/>
<path d="M97.3062 39.5784C98.6049 40.198 100.004 40.4679 101.427 40.7987C100.596 41.012 99.7947 41.2006 99.0039 41.4255C98.5178 41.5634 98.0462 41.7549 97.5674 41.9232C97.3251 42.0088 97.2496 42.122 97.4194 42.3745C98.3597 43.7747 98.4801 45.3418 98.3321 46.9655C98.2523 47.839 98.0738 48.6864 97.6937 49.4772C96.8767 51.1807 95.4489 52.0542 93.6453 52.3618C92.9837 52.475 92.3017 52.5157 91.6299 52.5186C87.3624 52.536 83.0935 52.5331 78.8261 52.536C78.3414 52.536 78.3385 52.536 78.3385 52.0586C78.3356 49.351 78.3502 46.6419 78.3153 43.9343C78.3066 43.3104 78.5664 42.8998 79.0104 42.5501C80.0638 41.7201 81.3189 41.366 82.59 41.0497C82.8091 40.9946 83.0297 40.9423 83.2633 40.803C83.1516 40.7653 83.0427 40.7174 82.9296 40.6899C81.8007 40.4185 80.6761 40.1341 79.659 39.5479C79.45 39.4275 79.2498 39.2911 79.0597 39.1445C78.5939 38.7847 78.295 38.3711 78.2994 37.7167C78.3197 34.9613 78.2936 32.2043 78.2762 29.4488C78.2732 29.0962 78.5011 29.1427 78.7173 29.1427C82.0662 29.1383 85.4152 29.1354 88.7641 29.1282C89.671 29.1267 90.5779 29.0788 91.4833 29.102C92.7152 29.1325 93.9428 29.2094 95.1007 29.7115C96.5183 30.3253 97.4746 31.3627 97.9403 32.8225C98.4714 34.4897 98.5889 36.1888 98.0695 37.8807C97.8953 38.4495 97.5834 38.9762 97.3077 39.5798L97.3062 39.5784ZM88.3636 37.5484C88.3636 37.5484 88.3636 37.5455 88.3636 37.5441C88.8221 37.5441 89.2807 37.5426 89.7406 37.5441C89.9917 37.5441 90.115 37.4454 90.1034 37.1741C90.0874 36.7997 90.0932 36.4253 90.1019 36.051C90.1077 35.8275 90.025 35.7071 89.7929 35.7071C88.8265 35.71 87.8601 35.7114 86.8952 35.7143C86.7051 35.7143 86.6151 35.8014 86.6209 36.0045C86.6311 36.4021 86.6355 36.8026 86.6195 37.2002C86.6093 37.4526 86.708 37.5513 86.9518 37.5484C87.4234 37.5426 87.8935 37.547 88.3651 37.547L88.3636 37.5484ZM88.3259 45.9135C88.8091 45.9135 89.2908 45.9063 89.774 45.9164C89.996 45.9208 90.1121 45.8598 90.1048 45.6132C90.0932 45.2156 90.0961 44.8166 90.1034 44.419C90.1063 44.2057 90.0134 44.1099 89.8016 44.1099C88.8366 44.1128 87.8717 44.1143 86.9068 44.1128C86.6862 44.1128 86.6166 44.2231 86.6209 44.4306C86.6297 44.8282 86.6326 45.2272 86.6209 45.6248C86.6137 45.8453 86.6978 45.9222 86.9155 45.9164C87.3856 45.9048 87.8558 45.9135 88.3273 45.9135H88.3259Z" fill="#262626"/>
<path d="M120.017 42.1019C121.228 41.404 122.467 41.1559 123.68 40.8309L123.662 40.7394C123.13 40.6016 122.59 40.4826 122.063 40.323C120.984 39.9965 119.928 39.6222 119.103 38.7922C118.842 38.5281 118.693 38.2234 118.693 37.8577C118.694 36.4706 118.649 35.0834 118.893 33.7035C119.301 31.4036 120.884 29.7349 123.185 29.3127C123.94 29.1748 124.716 29.0965 125.483 29.0907C129.195 29.0675 132.905 29.0791 136.617 29.0791C136.949 29.0791 137.115 29.2445 137.116 29.5753C137.116 31.4616 137.106 33.3465 137.125 35.2328C137.129 35.6101 137.007 35.6957 136.649 35.6943C133.615 35.6812 130.581 35.687 127.547 35.687C127.168 35.687 126.978 35.8829 126.978 36.2747C126.978 36.5533 126.99 36.8319 126.978 37.109C126.965 37.4079 127.09 37.5037 127.386 37.5022C129.127 37.4921 130.868 37.4732 132.608 37.5051C133.976 37.5298 135.378 37.7039 136.431 38.621C137.9 39.8979 139.68 40.2505 141.459 40.6829C141.585 40.7133 141.713 40.7365 141.813 40.7583C140.915 40.9977 139.994 41.2357 139.077 41.4911C138.515 41.6478 138.557 41.655 138.617 42.2253C138.705 43.064 138.757 43.907 138.782 44.7501C138.818 45.9936 138.801 47.2342 138.458 48.4501C137.848 50.6165 136.394 51.8658 134.23 52.2895C133.431 52.4462 132.601 52.5043 131.785 52.5101C128.159 52.5333 124.532 52.5202 120.906 52.5202C120.421 52.5202 120.421 52.5202 120.419 52.0472C120.417 50.1493 120.424 48.2514 120.406 46.3534C120.403 45.9994 120.515 45.9051 120.861 45.9065C123.906 45.9181 126.953 45.9123 129.999 45.9109C130.503 45.9109 130.505 45.9051 130.507 45.4074C130.507 45.1288 130.488 44.8502 130.511 44.573C130.542 44.2161 130.421 44.0913 130.045 44.0956C128.413 44.1145 126.781 44.1319 125.15 44.0956C123.713 44.0637 122.304 43.8475 121.084 43.0001C120.723 42.7506 120.406 42.4357 120.015 42.1049L120.017 42.1019Z" fill="#262626"/>
<path d="M134.104 69.2224C133.062 69.5126 132.073 69.7781 131.09 70.0669C130.575 70.2192 130.581 70.2381 130.725 70.7416C131.661 74.0136 132.596 77.2857 133.531 80.5577C133.563 80.6709 133.582 80.787 133.618 80.9582C133.461 80.9582 133.345 80.9582 133.229 80.9582C130.751 80.9582 128.274 80.9539 125.796 80.9655C125.475 80.9669 125.308 80.8857 125.254 80.5505C125.202 80.2182 125.115 79.8874 124.996 79.5725C124.951 79.452 124.777 79.3026 124.659 79.3011C122.847 79.2837 121.033 79.2852 119.22 79.3011C119.111 79.3011 118.942 79.439 118.905 79.5478C118.781 79.912 118.7 80.2907 118.613 80.6666C118.565 80.8726 118.465 80.9655 118.239 80.9655C115.676 80.9597 113.114 80.9655 110.551 80.9626C110.471 80.9626 110.393 80.9364 110.273 80.9161C110.471 80.2095 110.661 79.5261 110.854 78.8455C111.518 76.5123 112.191 74.1834 112.839 71.8458C112.979 71.3452 113.318 71.0449 113.709 70.7793C114.788 70.048 116.024 69.7099 117.274 69.4168C117.41 69.3849 117.544 69.3457 117.68 69.3094C117.683 69.2761 117.686 69.2427 117.689 69.2079C117.513 69.1585 117.333 69.1179 117.161 69.0599C116.213 68.7435 115.267 68.4229 114.319 68.1051C114.013 68.0021 113.983 67.8134 114.068 67.5174C114.988 64.3296 115.898 61.1388 116.799 57.9451C116.889 57.623 117.027 57.5083 117.372 57.5098C120.406 57.5243 123.441 57.5228 126.475 57.5098C126.807 57.5098 126.958 57.5939 127.054 57.932C127.955 61.1257 128.882 64.3121 129.784 67.5044C129.877 67.8323 130.038 68.0442 130.352 68.137C131.472 68.4693 132.595 68.7943 133.717 69.1208C133.831 69.1542 133.947 69.1774 134.103 69.2166L134.104 69.2224ZM121.988 67.5203C121.889 67.6524 121.846 67.6858 121.836 67.7264C121.444 69.2819 121.057 70.8359 120.669 72.3929C120.611 72.6279 120.737 72.6874 120.946 72.686C121.622 72.6816 122.299 72.686 122.975 72.6816C123.055 72.6816 123.133 72.6511 123.266 72.6236C122.844 70.936 122.428 69.2732 121.988 67.5218V67.5203Z" fill="#262626"/>
<path d="M119.83 40.7593C118.662 41.1133 117.453 41.4804 116.245 41.849C116.187 41.8664 116.134 41.8983 116.078 41.9186C115.455 42.1392 115.129 42.5034 115.194 43.2391C115.27 44.0995 115.212 44.1039 114.361 44.1039C112.559 44.1039 110.758 44.1039 108.956 44.1039C108.483 44.1039 108.476 44.114 108.473 44.5958C108.472 44.8976 108.488 45.2008 108.47 45.5026C108.453 45.8175 108.576 45.9205 108.892 45.9176C110.779 45.906 112.665 45.9118 114.551 45.9118C115.204 45.9118 115.857 45.922 116.51 45.9075C116.784 45.9017 116.898 45.9771 116.896 46.2731C116.889 48.232 116.89 50.1909 116.902 52.1498C116.903 52.4342 116.806 52.5241 116.523 52.5241C111.204 52.5183 105.883 52.5198 100.564 52.527C100.282 52.527 100.185 52.4458 100.185 52.1556C100.194 49.3145 100.18 46.4734 100.205 43.6323C100.208 43.3769 100.378 43.078 100.558 42.8763C101.354 41.9796 102.453 41.6139 103.553 41.2744C104.068 41.1148 104.597 41.0016 105.139 40.7854C105.053 40.7506 104.97 40.7114 104.883 40.6838C104.007 40.4168 103.119 40.1832 102.257 39.8742C101.595 39.6376 100.996 39.2662 100.519 38.7264C100.294 38.4725 100.182 38.1982 100.183 37.8427C100.196 35.0742 100.196 32.3057 100.18 29.5357C100.178 29.1584 100.297 29.0728 100.655 29.0742C105.915 29.0844 111.173 29.0844 116.433 29.0742C116.773 29.0742 116.893 29.1555 116.89 29.5153C116.874 31.4249 116.876 33.3359 116.892 35.2469C116.895 35.598 116.79 35.6967 116.442 35.6952C113.964 35.6822 111.485 35.6894 109.006 35.6909C108.47 35.6909 108.469 35.6923 108.469 36.2408C108.469 36.531 108.483 36.8227 108.466 37.1114C108.448 37.4147 108.572 37.5032 108.868 37.5017C110.79 37.4916 112.713 37.4959 114.635 37.4959C115.02 37.4959 115.212 37.6831 115.212 38.0575C115.212 38.2026 115.235 38.352 115.207 38.4913C115.088 39.0862 115.402 39.4243 115.907 39.5868C117.099 39.9714 118.302 40.3211 119.502 40.6809C119.628 40.7186 119.76 40.739 119.832 40.7549L119.83 40.7593Z" fill="#262626"/>
<path d="M160.518 69.1647C160.007 69.0341 159.494 68.9151 158.987 68.77C158.066 68.5074 157.174 68.1795 156.393 67.6005C155.831 67.1841 155.514 66.6994 155.527 65.9304C155.575 63.2838 155.544 60.6356 155.546 57.9875C155.546 57.6732 155.707 57.5155 156.03 57.5145C161.266 57.5087 166.499 57.5044 171.735 57.5C172.245 57.5 172.247 57.5 172.248 57.9904C172.251 59.8637 172.244 61.7384 172.263 63.6117C172.266 63.9802 172.151 64.0862 171.787 64.0862C169.285 64.0876 166.782 64.1166 164.281 64.1195C163.954 64.1195 163.814 64.2051 163.835 64.5432C163.854 64.8567 163.851 65.1715 163.837 65.4864C163.822 65.81 163.95 65.9348 164.284 65.9333C165.952 65.9203 167.621 65.9246 169.288 65.9232C169.59 65.9232 169.893 65.9348 170.195 65.9188C170.471 65.9043 170.598 65.9957 170.578 66.2888C170.559 66.566 170.597 66.8475 170.569 67.1217C170.533 67.4786 170.681 67.7224 170.992 67.8385C171.916 68.1838 172.842 68.5248 173.779 68.8295C174.294 68.9964 174.834 69.0835 175.252 69.1807C174.203 69.4825 173.055 69.7974 171.917 70.1485C171.565 70.2573 171.235 70.4532 170.905 70.6259C170.674 70.7463 170.555 70.9379 170.574 71.2179C170.593 71.5183 170.564 71.823 170.583 72.1233C170.601 72.4077 170.478 72.5224 170.208 72.5224C170.051 72.5224 169.895 72.5398 169.738 72.5398C167.949 72.5412 166.16 72.5398 164.371 72.5412C164.229 72.5412 164.086 72.5412 163.895 72.5412C163.895 73.0955 163.883 73.6121 163.906 74.1257C163.909 74.2012 164.072 74.3202 164.169 74.3303C164.445 74.3594 164.725 74.3434 165.002 74.3434C167.287 74.342 169.571 74.3449 171.857 74.3303C172.197 74.3289 172.318 74.4174 172.315 74.7758C172.299 76.6984 172.302 78.6195 172.314 80.5421C172.315 80.8512 172.235 80.9629 171.907 80.9629C166.599 80.9542 161.293 80.9557 155.985 80.9629C155.683 80.9629 155.588 80.8628 155.588 80.5654C155.58 77.7489 155.551 74.9325 155.563 72.1161C155.563 71.8375 155.74 71.5168 155.927 71.2905C156.458 70.6477 157.193 70.282 157.96 70.015C158.699 69.7582 159.463 69.5725 160.215 69.3519C160.321 69.3214 160.424 69.2779 160.528 69.2416C160.526 69.2155 160.521 69.1894 160.518 69.1633V69.1647Z" fill="#262626"/>
<path d="M142.108 70.8678C142.305 70.0872 142.504 69.308 142.698 68.5259C143.576 65.0014 144.457 61.4768 145.325 57.9494C145.405 57.6244 145.535 57.5054 145.886 57.5083C148.353 57.5243 150.82 57.5156 153.285 57.5141C153.404 57.5141 153.523 57.5141 153.693 57.5141C153.661 57.6665 153.643 57.7796 153.613 57.8885C152.652 61.2664 151.69 64.6444 150.728 68.0224C150.595 68.4939 150.592 68.5012 151.074 68.6274C151.843 68.8306 152.616 69.0236 153.378 69.218C152.491 69.4502 151.596 69.7085 150.691 69.913C150.264 70.0103 150.083 70.2366 149.969 70.6415C149.042 73.9541 148.092 77.2595 147.163 80.5722C147.078 80.8798 146.938 80.9625 146.635 80.9611C143.576 80.9509 140.518 80.9509 137.459 80.9611C137.155 80.9611 137.016 80.8784 136.929 80.5708C136.018 77.3539 135.092 74.1413 134.158 70.9317C134.072 70.6357 134.139 70.4746 134.42 70.3817C135.449 70.0407 136.478 69.6983 137.507 69.3573C137.592 69.3283 137.681 69.3065 137.782 69.1948C137.636 69.1498 137.491 69.0947 137.341 69.0598C136.138 68.7784 134.954 68.449 133.898 67.7771C133.381 67.4478 133.035 67.0328 132.862 66.4074C132.075 63.5445 131.243 60.6947 130.427 57.8391C130.401 57.7492 130.385 57.6563 130.352 57.5156C130.504 57.5156 130.62 57.5156 130.738 57.5156C133.228 57.5156 135.719 57.5214 138.209 57.5069C138.522 57.5054 138.65 57.6055 138.724 57.9044C139.762 62.0848 140.808 66.2623 141.855 70.4412C141.892 70.5863 141.95 70.7271 141.999 70.8693C142.037 70.8678 142.074 70.8649 142.112 70.8635L142.108 70.8678Z" fill="#262626"/>
<path d="M156.384 40.7548C155.397 41.032 154.302 41.3236 153.218 41.653C152.84 41.7676 152.489 41.9708 152.131 42.1449C151.868 42.2726 151.765 42.4743 151.767 42.7848C151.778 45.8319 151.774 48.8791 151.774 51.9247C151.774 52.4906 151.768 52.5095 151.185 52.5139C149.759 52.5226 148.332 52.5182 146.904 52.5182C145.9 52.5182 144.898 52.511 143.894 52.524C143.606 52.5284 143.487 52.4573 143.489 52.1424C143.497 49.2897 143.484 46.4355 143.505 43.5828C143.506 43.3362 143.653 43.0445 143.821 42.853C144.587 41.9824 145.641 41.6051 146.707 41.2757C147.267 41.1031 147.84 40.9725 148.408 40.8216C148.411 40.7896 148.415 40.7563 148.418 40.7243C148.21 40.6678 148.004 40.6068 147.794 40.5575C146.733 40.3079 145.69 40.0075 144.742 39.4489C144.515 39.314 144.291 39.166 144.089 38.9947C143.69 38.6552 143.418 38.2634 143.473 37.683C143.522 37.1679 143.471 36.6441 143.486 36.1246C143.494 35.8083 143.402 35.6777 143.053 35.6821C141.639 35.7009 140.224 35.6821 138.809 35.6951C138.512 35.698 138.41 35.6095 138.413 35.3048C138.425 33.3575 138.423 31.4117 138.413 29.4645C138.412 29.1583 138.515 29.0756 138.811 29.0756C144.663 29.0799 150.514 29.0785 156.366 29.0654C156.707 29.0654 156.794 29.1757 156.793 29.5036C156.781 31.4262 156.781 33.3488 156.797 35.2714C156.8 35.6182 156.678 35.698 156.356 35.6951C154.978 35.6806 153.599 35.7038 152.221 35.6792C151.838 35.6719 151.755 35.7981 151.765 36.1522C151.788 37.0097 151.791 37.8687 151.765 38.7277C151.755 39.0716 151.883 39.2878 152.173 39.4155C152.669 39.6332 153.161 39.877 153.678 40.0337C154.608 40.3152 155.557 40.5401 156.387 40.7592L156.384 40.7548Z" fill="#262626"/>
<path d="M56.0584 56.6643C57.4543 55.9751 58.7805 55.3381 60.0908 54.6692C61.2298 54.0873 62.3311 53.4286 63.4832 52.8757C64.5062 52.3853 65.5988 52.1096 66.7509 52.3287C67.0179 52.3795 67.2965 52.468 67.5258 52.6117C67.9785 52.8946 68.2469 53.1166 68.0554 53.8233C67.7318 55.0174 67.2733 56.1188 66.2648 56.8907C65.8179 57.2317 65.3289 57.5509 64.8095 57.7555C58.8864 60.0887 52.7863 61.8009 46.5092 62.8776C45.5226 63.0474 44.5359 63.236 43.5419 63.3434C43.1023 63.3913 42.6176 63.3318 42.1997 63.1881C41.644 62.9951 41.5497 62.422 41.998 62.0375C42.2897 61.7864 42.6641 61.5992 43.0312 61.4745C43.9787 61.1509 44.9451 60.8868 45.8969 60.5763C46.0768 60.5168 46.2582 60.3833 46.3801 60.2353C47.1332 59.3183 47.6976 58.3054 47.9472 57.1287C48.1199 56.3117 48.5262 55.5978 49.0035 54.9217C49.0993 54.7853 49.1893 54.6445 49.3141 54.4588C49.1356 54.3775 48.9919 54.2992 48.841 54.244C47.1637 53.6245 45.5022 52.9657 43.9627 52.0458C43.1937 51.5858 42.4566 51.0765 41.9211 50.335C41.4046 49.6211 41.3944 49.0204 41.8384 48.2513C42.6524 46.8381 43.452 45.4175 44.25 43.9955C44.3095 43.8896 44.3066 43.7503 44.3313 43.6255C44.1963 43.6255 44.0469 43.5849 43.9279 43.6299C41.8152 44.4236 40.0972 45.7571 38.6941 47.5099C38.5882 47.6419 38.4634 47.7667 38.3923 47.9162C38.3371 48.0308 38.3096 48.189 38.3415 48.3079C38.6041 49.2598 37.7828 50.7239 36.8281 50.9807C36.3986 51.0968 36.0605 50.914 36.0082 50.4685C35.8936 49.4992 36.3565 48.7781 37.0704 48.1817C37.1952 48.0772 37.3185 47.9568 37.4027 47.8189C38.8261 45.4944 40.5151 43.4166 42.8614 41.9554C44.5504 40.9034 46.3874 40.3375 48.3869 40.3651C48.7961 40.3709 49.2052 40.4289 49.6115 40.4826C50.0207 40.5363 50.1005 40.4579 49.9641 40.056C49.6536 39.1375 49.6507 38.2306 50.0584 37.3426C50.4531 36.4836 51.0741 36.0889 51.8954 36.1484C52.9097 36.2239 53.6337 36.7578 53.8703 37.6778C54.1576 38.8009 53.9501 39.8572 53.3203 40.8279C53.1984 41.0151 53.0635 41.1805 53.3798 41.3024C54.6524 41.7929 55.7421 42.5866 56.7404 43.479C57.8997 44.5135 59.255 45.0286 60.7423 45.2782C61.3604 45.3827 61.9858 45.4523 62.6112 45.4973C62.7868 45.5104 63.0073 45.4175 63.1481 45.3014C63.7227 44.8226 64.3698 44.5266 65.1084 44.441C65.2709 44.4221 65.4479 44.4511 65.6061 44.499C65.9006 44.589 66.0298 44.8386 65.8571 45.091C65.6583 45.3827 65.4087 45.6685 65.1185 45.863C64.3321 46.3882 63.4426 46.6581 62.5038 46.7466C61.1486 46.8758 59.7919 46.8569 58.47 46.5217C57.9563 46.3911 57.4586 46.1329 57.003 45.8514C56.2383 45.3798 55.4809 44.9126 54.5842 44.7384C53.3406 44.4961 52.1595 44.7239 51.0176 45.2216C49.8669 45.7222 48.8454 46.4303 47.879 47.2197C47.805 47.2806 47.7078 47.4286 47.7339 47.4722C47.7847 47.5592 47.9051 47.6448 48.0082 47.6593C48.7961 47.774 49.5854 47.8813 50.3762 47.9713C51.5762 48.1077 52.7805 48.2093 53.9196 48.6533C55.0906 49.1089 55.7334 49.9012 55.7624 51.2245C55.7958 52.7437 55.9568 54.2615 56.0569 55.7807C56.0744 56.0433 56.0598 56.3088 56.0598 56.6687L56.0584 56.6643ZM49.0398 59.4721C49.108 59.4619 49.1428 59.4619 49.1733 59.4503C51.0335 58.7103 52.8923 57.9674 54.7525 57.2288C54.9426 57.1533 54.973 57.0416 54.9092 56.8617C54.6596 56.171 54.442 55.4673 54.1648 54.7882C53.8209 53.9451 53.5438 53.089 53.4524 52.1807C53.4233 51.8876 53.4117 51.5916 53.39 51.2462C52.4105 51.4218 51.479 51.5901 50.4807 51.7701C50.7781 52.0312 51.0509 52.2199 51.2555 52.4636C51.5298 52.7901 51.8229 53.1311 51.9825 53.5171C52.2335 54.1251 52.0318 54.7505 51.7474 55.2946C51.3571 56.039 50.8942 56.747 50.4342 57.4537C49.9946 58.1284 49.5201 58.7814 49.0427 59.4706L49.0398 59.4721Z" fill="white"/>
<path d="M67.6271 69.2584C66.8537 69.553 66.1427 69.8098 65.4434 70.0913C64.8847 70.3162 64.342 70.5846 63.7819 70.8081C62.6443 71.2623 61.4937 71.2652 60.3575 70.8081C59.6306 70.515 58.9094 70.2045 58.2057 69.8591C57.0608 69.2947 55.9421 69.2903 54.8016 69.8664C54.1893 70.1769 53.5508 70.4395 52.9225 70.7152C51.6007 71.2956 50.2759 71.2927 48.9555 70.7152C48.2706 70.4163 47.5828 70.1203 46.9066 69.7996C45.8778 69.3106 44.865 69.3193 43.8392 69.8112C43.1644 70.1348 42.4781 70.4323 41.7918 70.7312C40.4815 71.3029 39.1669 71.3029 37.8566 70.737C37.2138 70.4598 36.587 70.1435 35.9369 69.8881C35.4697 69.7053 34.972 69.5979 34.4917 69.4441C34.396 69.4137 34.2494 69.3251 34.2465 69.2569C34.2262 68.7534 34.2349 68.2485 34.2349 67.6289C34.8472 67.7784 35.4088 67.8611 35.9311 68.0541C36.6987 68.3385 37.4489 68.678 38.1875 69.0335C39.2873 69.5602 40.3654 69.5631 41.4609 69.0262C42.0776 68.7244 42.7117 68.456 43.3386 68.173C44.7054 67.5564 46.0723 67.5607 47.4391 68.173C48.1443 68.4894 48.8495 68.8013 49.5547 69.1177C50.4776 69.5326 51.3975 69.5399 52.3218 69.1206C53.0139 68.8057 53.7119 68.5039 54.4026 68.1875C55.8028 67.5462 57.2016 67.5433 58.6047 68.1788C59.3085 68.4966 60.0151 68.8086 60.7203 69.122C61.6199 69.521 62.5181 69.5268 63.4192 69.1235C64.1897 68.7781 64.9558 68.4226 65.7365 68.099C66.327 67.8538 66.9408 67.6695 67.63 67.7029V69.2569L67.6271 69.2584Z" fill="white"/>
<path d="M67.636 72.8083C66.8815 73.0883 66.1806 73.335 65.4914 73.6092C65.0329 73.7921 64.5888 74.0141 64.1376 74.2172C62.7591 74.8354 61.3792 74.831 60.0007 74.2172C59.2955 73.9024 58.5918 73.586 57.8866 73.2726C56.9623 72.862 56.0395 72.8663 55.1181 73.2828C54.4361 73.5918 53.7512 73.8907 53.0707 74.2013C51.6588 74.847 50.247 74.8499 48.8337 74.2085C48.2069 73.9241 47.5728 73.6571 46.9532 73.3597C45.9157 72.862 44.8884 72.8547 43.8495 73.3481C43.2067 73.6528 42.5566 73.943 41.9066 74.2332C40.5165 74.8528 39.1235 74.8513 37.7334 74.2303C37.5027 74.1273 37.2706 74.0242 37.0398 73.9198C36.1518 73.5149 35.2885 73.0434 34.2655 72.9563V71.1875C34.8532 71.3253 35.406 71.4269 35.9414 71.588C36.3434 71.7099 36.7235 71.9029 37.1095 72.0726C37.3968 72.1989 37.6841 72.3266 37.9612 72.4731C39.2106 73.1333 40.4468 73.1217 41.702 72.4688C42.3317 72.1408 42.9934 71.8695 43.6507 71.5996C44.7984 71.1309 45.9592 71.1309 47.1084 71.5909C47.8136 71.8738 48.5145 72.1713 49.1936 72.5108C50.3718 73.0999 51.5253 73.1043 52.6992 72.5065C53.2579 72.2221 53.8383 71.9812 54.41 71.7229C55.8116 71.0917 57.2148 71.0932 58.6165 71.7229C59.2665 72.0146 59.9166 72.3019 60.5623 72.6022C61.578 73.0738 62.5821 73.0608 63.6022 72.595C64.4902 72.1902 65.3869 71.7998 66.2996 71.4559C66.7059 71.3021 67.1615 71.2789 67.6345 71.189V72.8068L67.636 72.8083Z" fill="white"/>
<path d="M67.659 64.1631C67.659 64.7058 67.6692 65.1875 67.6489 65.6692C67.646 65.7476 67.5255 65.8564 67.437 65.8883C66.7696 66.1234 66.0905 66.3266 65.4274 66.5718C64.9979 66.7314 64.5916 66.9476 64.1737 67.1362C62.7575 67.7718 61.3442 67.7616 59.9309 67.1261C59.2272 66.8097 58.522 66.492 57.8153 66.1844C56.9375 65.8027 56.0582 65.8071 55.1803 66.1916C54.3735 66.5457 53.5813 66.936 52.7571 67.2421C52.2318 67.4366 51.6601 67.5062 51.1087 67.631C50.8026 67.6992 50.7025 67.5715 50.7184 67.2668C50.7402 66.8344 50.7242 66.4006 50.7242 65.9319C52.0737 65.9246 53.1547 65.2035 54.3024 64.6956C55.7868 64.0398 57.2407 64.0209 58.7121 64.7029C59.4129 65.0279 60.1181 65.3413 60.8291 65.6417C61.6591 65.9928 62.4992 65.9914 63.3277 65.6315C64.0358 65.3239 64.7265 64.9713 65.4477 64.6985C66.0194 64.4823 66.623 64.3503 67.215 64.1921C67.3369 64.1587 67.4733 64.1761 67.659 64.1674V64.1631Z" fill="white"/>
<path d="M62.0346 64.09C62.0346 63.5444 62.0274 63.0525 62.0433 62.5606C62.0462 62.4895 62.1609 62.3705 62.232 62.3633C63.0823 62.282 63.8194 61.8859 64.5725 61.5391C65.4387 61.1415 66.2977 60.7381 67.2641 60.6278C67.5717 60.593 67.6791 60.6699 67.6602 60.9819C67.6385 61.3432 67.6689 61.7074 67.6457 62.0673C67.6399 62.163 67.5398 62.3038 67.4498 62.3371C66.7417 62.5954 66.0104 62.7986 65.3139 63.0873C64.3795 63.4747 63.4827 63.9565 62.4525 64.0609C62.335 64.0726 62.216 64.0769 62.0303 64.09H62.0346Z" fill="white"/>
<path d="M49.0393 59.4714C49.5181 58.7807 49.9911 58.1292 50.4308 57.4545C50.8908 56.7493 51.3537 56.0412 51.744 55.2954C52.0284 54.7513 52.2301 54.1259 51.979 53.5179C51.8194 53.1319 51.5278 52.791 51.2521 52.4645C51.046 52.2207 50.7747 52.0321 50.4772 51.7709C51.4755 51.591 52.4071 51.4241 53.3865 51.2471C53.4097 51.5924 53.4199 51.8884 53.4489 52.1815C53.5403 53.0899 53.8175 53.946 54.1614 54.789C54.4385 55.4681 54.6562 56.1718 54.9057 56.8625C54.971 57.041 54.9391 57.1542 54.749 57.2296C52.8888 57.9667 51.0301 58.7096 49.1699 59.4511C49.1408 59.4627 49.106 59.4613 49.0364 59.4729L49.0393 59.4714Z" fill="#CC2228"/>
</svg>
