<svg width="201" height="112" viewBox="0 0 201 112" fill="none" xmlns="http://www.w3.org/2000/svg">
<rect x="12.6665" y="33" width="175" height="45.0072" rx="22.5036" fill="#F1F1F1"/>
<rect x="93.6292" y="36.7715" width="90.2658" height="37.4641" rx="18.732" fill="#644EF7"/>
<path d="M112.194 69.0073H108.8V51.2512H112.194V69.0073ZM122.065 57.257C122.065 58.6148 121.795 59.7724 121.255 60.7298C120.716 61.6873 120.002 62.4097 119.114 62.8971C118.244 63.3846 117.304 63.6283 116.294 63.6283C115.267 63.6283 114.37 63.3671 113.604 62.8449C112.856 62.3227 112.273 61.5828 111.855 60.6254C111.455 59.668 111.254 58.5451 111.254 57.257C111.254 55.9514 111.455 54.8285 111.855 53.8885C112.273 52.9311 112.856 52.1912 113.604 51.669C114.37 51.1468 115.267 50.8856 116.294 50.8856C117.304 50.8856 118.244 51.1294 119.114 51.6168C120.002 52.1042 120.716 52.8266 121.255 53.7841C121.795 54.7241 122.065 55.8817 122.065 57.257ZM118.566 57.257C118.566 56.5432 118.418 55.9339 118.122 55.4291C117.826 54.9243 117.425 54.5413 116.921 54.2802C116.433 54.0191 115.894 53.8885 115.302 53.8885C114.797 53.8885 114.301 54.0191 113.813 54.2802C113.343 54.5239 112.952 54.8982 112.638 55.403C112.342 55.9078 112.194 56.5258 112.194 57.257C112.194 57.9881 112.342 58.6061 112.638 59.1109C112.952 59.6157 113.343 59.9987 113.813 60.2598C114.301 60.5035 114.797 60.6254 115.302 60.6254C115.894 60.6254 116.433 60.4948 116.921 60.2337C117.425 59.9726 117.826 59.5896 118.122 59.0848C118.418 58.58 118.566 57.9707 118.566 57.257ZM128.085 58.5625C128.085 59.3459 128.242 59.9552 128.555 60.3904C128.869 60.8082 129.373 61.0171 130.07 61.0171C130.557 61.0171 130.975 60.9213 131.323 60.7298C131.689 60.5209 131.967 60.2337 132.159 59.8681C132.368 59.5026 132.472 59.0674 132.472 58.5625V51.2512H135.84V63.2627H132.472V61.4349C132.089 62.1138 131.602 62.636 131.01 63.0016C130.418 63.3497 129.695 63.5238 128.842 63.5238C127.415 63.5238 126.344 63.1147 125.631 62.2966C124.934 61.4784 124.586 60.3556 124.586 58.9281V51.2512H128.085V58.5625ZM139.172 42.8954H142.567V63.2627H139.172V42.8954ZM146.505 59.1109C147.009 59.5809 147.48 59.9639 147.915 60.2598C148.35 60.5384 148.759 60.7472 149.142 60.8865C149.542 61.0258 149.917 61.0954 150.265 61.0954C150.717 61.0954 151.066 60.9997 151.309 60.8082C151.553 60.5993 151.675 60.3208 151.675 59.9726C151.675 59.6592 151.57 59.3981 151.361 59.1892C151.17 58.9629 150.883 58.7627 150.5 58.5887C150.117 58.4146 149.629 58.2318 149.038 58.0403C148.48 57.8314 147.941 57.5877 147.419 57.3092C146.896 57.0132 146.461 56.6303 146.113 56.1603C145.782 55.6728 145.617 55.0548 145.617 54.3063C145.617 53.5926 145.808 52.992 146.191 52.5046C146.574 51.9998 147.088 51.6255 147.732 51.3818C148.393 51.1206 149.125 50.9901 149.925 50.9901C150.604 50.9901 151.24 51.0771 151.832 51.2512C152.423 51.4253 152.972 51.6603 153.477 51.9562C153.981 52.2348 154.425 52.5655 154.808 52.9485L153.32 55.0374C152.885 54.5674 152.362 54.1844 151.753 53.8885C151.161 53.5926 150.578 53.4446 150.004 53.4446C149.621 53.4446 149.316 53.5229 149.09 53.6796C148.881 53.8189 148.776 54.0365 148.776 54.3324C148.776 54.5935 148.881 54.8285 149.09 55.0374C149.316 55.2289 149.629 55.403 150.03 55.5597C150.448 55.7163 150.918 55.9078 151.44 56.1341C152.084 56.3779 152.676 56.6564 153.215 56.9697C153.772 57.2657 154.216 57.6399 154.547 58.0925C154.878 58.5451 155.043 59.137 155.043 59.8681C155.043 61.0693 154.652 62.0093 153.868 62.6882C153.085 63.3497 152.006 63.6805 150.63 63.6805C149.777 63.6805 148.994 63.5673 148.28 63.341C147.584 63.1147 146.949 62.8188 146.374 62.4532C145.817 62.0703 145.312 61.6612 144.86 61.226L146.505 59.1109ZM163.045 63.5238C161.74 63.5238 160.6 63.2627 159.625 62.7405C158.65 62.2182 157.893 61.4958 157.353 60.5732C156.831 59.6331 156.57 58.5277 156.57 57.257C156.57 55.9688 156.831 54.8634 157.353 53.9407C157.893 53.0007 158.65 52.2783 159.625 51.7734C160.6 51.2512 161.748 50.9901 163.071 50.9901C164.394 50.9901 165.517 51.2338 166.44 51.7212C167.38 52.1912 168.094 52.8876 168.581 53.8102C169.069 54.7154 169.312 55.8121 169.312 57.1003C169.312 57.257 169.304 57.4223 169.286 57.5964C169.286 57.7705 169.277 57.9097 169.26 58.0142H158.502V55.9252H166.309L165.395 57.1264C165.465 57.0219 165.526 56.8827 165.578 56.7086C165.648 56.5171 165.683 56.3604 165.683 56.2386C165.683 55.6467 165.57 55.1419 165.343 54.7241C165.134 54.3063 164.83 53.9756 164.429 53.7318C164.029 53.4881 163.559 53.3663 163.019 53.3663C162.358 53.3663 161.801 53.5142 161.348 53.8102C160.913 54.0887 160.573 54.5152 160.33 55.0897C160.103 55.6467 159.982 56.343 159.964 57.1786C159.964 57.9794 160.077 58.6583 160.304 59.2153C160.547 59.7724 160.904 60.1989 161.374 60.4948C161.844 60.7908 162.41 60.9387 163.071 60.9387C163.82 60.9387 164.455 60.7995 164.978 60.5209C165.517 60.225 165.961 59.7898 166.309 59.2153L169.26 60.1293C168.633 61.2608 167.798 62.1138 166.753 62.6882C165.726 63.2453 164.49 63.5238 163.045 63.5238Z" fill="#D8FF9D"/>
<path d="M27.9601 57.257C27.9601 57.9533 28.1168 58.5625 28.4301 59.0848C28.7435 59.607 29.1613 60.0161 29.6835 60.312C30.2231 60.608 30.815 60.756 31.4591 60.756C31.9813 60.756 32.4862 60.6776 32.9736 60.5209C33.461 60.3469 33.8962 60.1206 34.2792 59.842C34.6796 59.5461 34.9842 59.2066 35.1931 58.8237V62.2966C34.7753 62.6795 34.227 62.9842 33.5481 63.2105C32.8866 63.4194 32.1119 63.5238 31.2241 63.5238C29.9533 63.5238 28.8044 63.2627 27.7773 62.7405C26.7677 62.2182 25.9669 61.4871 25.375 60.5471C24.8006 59.5896 24.5133 58.4929 24.5133 57.257C24.5133 56.0036 24.8006 54.9069 25.375 53.9668C25.9669 53.0268 26.7677 52.2957 27.7773 51.7734C28.8044 51.2512 29.9533 50.9901 31.2241 50.9901C32.1119 50.9901 32.8866 51.1032 33.5481 51.3295C34.227 51.5384 34.7753 51.8257 35.1931 52.1912V55.6641C34.9842 55.2811 34.6709 54.9504 34.2531 54.6719C33.8527 54.3759 33.4088 54.1496 32.9214 53.993C32.434 53.8363 31.9465 53.758 31.4591 53.758C30.815 53.758 30.2231 53.9146 29.6835 54.228C29.1613 54.5239 28.7435 54.933 28.4301 55.4552C28.1168 55.9775 27.9601 56.578 27.9601 57.257ZM38.1766 42.8954H41.5712V63.2627H38.1766V42.8954ZM44.7519 46.6033C44.7519 46.0462 44.9521 45.5936 45.3525 45.2455C45.7529 44.8799 46.2316 44.6971 46.7886 44.6971C47.3457 44.6971 47.8157 44.8799 48.1987 45.2455C48.5991 45.5936 48.7993 46.0462 48.7993 46.6033C48.7993 47.1429 48.5991 47.5955 48.1987 47.9611C47.8157 48.3267 47.3457 48.5095 46.7886 48.5095C46.2316 48.5095 45.7529 48.3267 45.3525 47.9611C44.9521 47.5955 44.7519 47.1429 44.7519 46.6033ZM45.1175 51.2512H48.4076V63.2627H45.1175V51.2512ZM57.6639 63.5238C56.3583 63.5238 55.218 63.2627 54.2432 62.7405C53.2684 62.2182 52.5111 61.4958 51.9715 60.5732C51.4492 59.6331 51.1881 58.5277 51.1881 57.257C51.1881 55.9688 51.4492 54.8634 51.9715 53.9407C52.5111 53.0007 53.2684 52.2783 54.2432 51.7734C55.218 51.2512 56.367 50.9901 57.69 50.9901C59.013 50.9901 60.1358 51.2338 61.0584 51.7212C61.9984 52.1912 62.7122 52.8876 63.1996 53.8102C63.687 54.7154 63.9307 55.8121 63.9307 57.1003C63.9307 57.257 63.922 57.4223 63.9046 57.5964C63.9046 57.7705 63.8959 57.9097 63.8785 58.0142H53.1204V55.9252H60.9278L60.0139 57.1264C60.0836 57.0219 60.1445 56.8827 60.1967 56.7086C60.2663 56.5171 60.3012 56.3604 60.3012 56.2386C60.3012 55.6467 60.188 55.1419 59.9617 54.7241C59.7528 54.3063 59.4482 53.9756 59.0478 53.7318C58.6474 53.4881 58.1774 53.3663 57.6377 53.3663C56.9762 53.3663 56.4192 53.5142 55.9666 53.8102C55.5314 54.0887 55.1919 54.5152 54.9482 55.0897C54.7219 55.6467 54.6001 56.343 54.5827 57.1786C54.5827 57.9794 54.6958 58.6583 54.9221 59.2153C55.1658 59.7724 55.5227 60.1989 55.9927 60.4948C56.4627 60.7908 57.0285 60.9387 57.69 60.9387C58.4385 60.9387 59.0739 60.7995 59.5961 60.5209C60.1358 60.225 60.5797 59.7898 60.9278 59.2153L63.8785 60.1293C63.2518 61.2608 62.4162 62.1138 61.3718 62.6882C60.3447 63.2453 59.1087 63.5238 57.6639 63.5238ZM74.2368 55.9514C74.2368 55.1506 74.0801 54.5413 73.7668 54.1235C73.4534 53.7057 72.9486 53.4968 72.2523 53.4968C71.7822 53.4968 71.3645 53.6013 70.9989 53.8102C70.6333 54.0017 70.3548 54.2802 70.1633 54.6458C69.9718 55.0113 69.8761 55.4465 69.8761 55.9514V63.2627H66.4815V51.2512H69.8761V53.079C70.2416 52.4001 70.7204 51.8866 71.3122 51.5384C71.9215 51.1729 72.6526 50.9901 73.5056 50.9901C74.9331 50.9901 75.995 51.3992 76.6913 52.2173C77.3876 53.0181 77.7358 54.1409 77.7358 55.5858V63.2627H74.2368V55.9514ZM79.5269 51.2512H86.9427V54.0974H79.5269V51.2512ZM81.5897 47.0733H84.8537V63.2627H81.5897V47.0733Z" fill="#0A0527"/>
</svg>
