<svg width="201" height="112" viewBox="0 0 201 112" fill="none" xmlns="http://www.w3.org/2000/svg">
<path fill-rule="evenodd" clip-rule="evenodd" d="M55.1411 63.2057C55.7236 63.1292 56.3067 63.0526 56.8902 62.976C57.2359 60.4237 57.5827 57.8948 57.9304 55.3894C58.5905 57.8366 59.2504 60.2422 59.91 62.6062C60.4378 62.5444 60.9654 62.4834 61.4927 62.4232C62.1643 59.9362 62.8358 57.4902 63.5074 55.0854C63.8412 57.4402 64.1745 59.7764 64.5073 62.0939C65.0863 62.0337 65.6656 61.9747 66.2452 61.917C65.7248 58.2927 65.204 54.6247 64.6827 50.9131L62.9306 50.9437C62.1919 53.5915 61.4521 56.2866 60.7114 59.0288C59.9851 56.4111 59.2583 53.7449 58.5311 51.0302L56.7783 51.0662C56.2306 55.0535 55.6848 59.1 55.1411 63.2057ZM66.7869 61.8673C67.4102 61.806 68.0321 61.7468 68.6524 61.6896C68.9106 60.9239 69.1685 60.1605 69.4262 59.3994C70.7121 59.3039 71.9978 59.2141 73.2833 59.1299C73.528 59.8354 73.7728 60.5377 74.0175 61.2371C74.6413 61.1891 75.2649 61.1429 75.8882 61.0985C74.6848 57.7371 73.4815 54.3044 72.2781 50.8005L70.453 50.8258C69.2312 54.4118 68.0092 58.0923 66.7869 61.8673ZM72.6244 57.2156C71.7822 57.2616 70.9392 57.3093 70.0955 57.3588C70.5218 56.1061 70.9477 54.8644 71.373 53.6336C71.7899 54.8373 72.207 56.0313 72.6244 57.2156ZM77.1455 61.012C77.7425 60.9722 78.3394 60.9336 78.9364 60.8964C78.9439 58.1367 78.9508 55.3771 78.9573 52.6175C79.9258 52.5976 80.8944 52.5795 81.863 52.5632L81.8674 50.6948C80.3034 50.7086 78.7392 50.7242 77.1746 50.7416C77.1662 54.1653 77.1577 57.5888 77.1493 61.012H77.1455ZM88.5078 50.6466C87.3139 52.763 86.118 54.907 84.9201 57.0785L84.9335 50.6734L83.1337 50.6872L83.1113 60.6659C83.6337 60.6398 84.156 60.6143 84.6783 60.5893C85.8593 58.4668 87.0398 56.3738 88.2198 54.3105L88.2093 60.4446C88.8102 60.4242 89.4109 60.4048 90.0114 60.3864C90.0158 57.1367 90.0208 53.8873 90.0263 50.6382L88.5085 50.6458L88.5078 50.6466ZM95.7145 50.6183C94.8544 50.6509 94.3298 50.6765 94.1408 50.6948C93.8802 50.7316 93.6247 50.7997 93.3797 50.8978C93.0636 51.0134 92.7763 51.199 92.538 51.4414C92.2901 51.6954 92.0989 52.0016 91.9776 52.3388C91.8395 52.7375 91.7725 53.1585 91.7798 53.5816C91.7798 54.9154 92.3997 55.7562 93.6393 56.1038C92.9235 57.5102 92.2076 58.9242 91.4918 60.3458C92.1485 60.329 92.8049 60.3142 93.461 60.3014C94.0968 58.9905 94.7323 57.6852 95.3675 56.3856L95.8152 56.381C95.8152 57.675 95.8152 58.9691 95.8152 60.2631C96.4167 60.2549 97.0178 60.2488 97.6188 60.2447C97.6188 57.0349 97.6188 53.825 97.6188 50.6152H95.7115L95.7145 50.6183ZM95.2519 54.5953C94.7047 54.5999 94.3067 54.5234 94.058 54.3656C93.8102 54.2125 93.6849 53.933 93.6849 53.5341C93.6768 53.2945 93.7421 53.0584 93.8714 52.8587C93.9848 52.6839 94.1556 52.5568 94.3527 52.5004C94.5492 52.4453 94.8725 52.4164 95.3227 52.4138H95.8167V54.5908L95.2526 54.5946L95.2519 54.5953ZM105.86 60.2807C106.625 60.293 107.224 60.1934 107.658 59.9821C108.096 59.765 108.465 59.4242 108.721 58.9997C108.995 58.5563 109.137 58.0407 109.13 57.5158C109.142 56.992 109.002 56.4763 108.73 56.0333C108.463 55.6132 108.042 55.2615 107.468 54.9782C107.774 54.7591 108.028 54.471 108.209 54.1359C108.363 53.825 108.44 53.4804 108.433 53.1321C108.444 52.595 108.268 52.0715 107.937 51.655C107.587 51.227 107.113 50.9252 106.584 50.7936C106.186 50.6777 105.555 50.619 104.691 50.6175H103.205C103.205 53.8284 103.205 57.039 103.205 60.2493C104.09 60.257 104.975 60.268 105.86 60.2823L105.86 60.2807ZM105.466 52.3725C105.88 52.3725 106.188 52.4629 106.39 52.6436C106.49 52.7327 106.569 52.8439 106.622 52.9689C106.675 53.094 106.699 53.2295 106.694 53.3656C106.701 53.5097 106.675 53.6534 106.62 53.786C106.565 53.9186 106.481 54.0367 106.375 54.1313C106.163 54.3182 105.837 54.4095 105.397 54.4055H105.003V52.3717H105.467L105.466 52.3725ZM105.378 56.0479C106.088 56.054 106.595 56.1801 106.901 56.4262C107.05 56.5423 107.169 56.6933 107.249 56.8665C107.329 57.0398 107.367 57.2301 107.36 57.4216C107.36 57.7907 107.231 58.0686 106.972 58.2577C106.712 58.4469 106.207 58.5342 105.458 58.525L105.006 58.5196V56.0464L105.379 56.0502L105.378 56.0479ZM110.735 60.3956C111.342 60.414 111.949 60.4341 112.556 60.4561C112.553 59.0038 112.55 57.5515 112.548 56.0992C113.523 57.5734 114.499 59.0648 115.474 60.5732C116.186 60.6044 116.898 60.6381 117.611 60.6743C116.397 58.7692 115.185 56.8963 113.974 55.0555C115.072 53.614 116.17 52.1566 117.267 50.6834L115.104 50.6665C114.251 51.7972 113.397 52.9187 112.542 54.031C112.542 52.9039 112.54 51.777 112.537 50.6504L110.717 50.6405L110.732 60.3956H110.735ZM120.928 59.064C120.779 59.1688 120.598 59.2165 120.419 59.1988C119.96 59.1751 119.493 58.8588 119.019 58.2554C118.626 58.6597 118.232 59.0622 117.838 59.463C118.631 60.4691 119.495 61.0066 120.431 61.0625C121.006 61.097 121.55 60.9216 122.054 60.5265C122.559 60.1314 123.031 59.3259 123.461 58.0908C124.295 55.6844 125.128 53.2439 125.96 50.7691L124.109 50.7477C123.506 52.6584 122.902 54.5502 122.299 56.4231C121.553 54.4945 120.805 52.5887 120.056 50.7056C119.379 50.6984 118.702 50.6923 118.024 50.6872C119.15 53.2671 120.276 55.8886 121.403 58.5518C121.266 58.7411 121.106 58.9121 120.928 59.061V59.064ZM133.87 51.1834C133.178 50.7961 132.405 50.5882 131.617 50.5777C130.712 50.564 129.823 50.8136 129.051 51.2975C128.281 51.7594 127.65 52.4282 127.224 53.2316C126.8 54.0341 126.589 54.9529 126.592 55.9966C126.592 57.6092 127.067 58.9538 128.01 60.0633C128.952 61.1728 130.152 61.8045 131.62 61.9423C132.417 62.0189 133.126 61.9354 133.746 61.6889C134.366 61.4423 135.023 60.9546 135.719 60.2118C135.312 59.6753 134.905 59.1437 134.498 58.6168C133.981 59.1796 133.508 59.5533 133.08 59.744C132.628 59.9374 132.137 60.0137 131.65 59.966C131.051 59.9215 130.474 59.7134 129.98 59.3634C129.481 59.0156 129.079 58.5406 128.814 57.9851C128.533 57.392 128.39 56.7397 128.398 56.0801C128.398 55.0663 128.704 54.2278 129.32 53.5532C129.606 53.2265 129.958 52.9687 130.353 52.7986C130.747 52.6285 131.173 52.5502 131.6 52.5693C132.67 52.5976 133.634 53.1443 134.493 54.2378C134.91 53.7886 135.329 53.3342 135.748 52.8748C135.257 52.1721 134.618 51.593 133.878 51.1811L133.87 51.1834ZM136.442 62.1452C137.064 62.2111 137.686 62.2787 138.307 62.3481C138.562 61.5947 138.817 60.8364 139.072 60.0732C140.355 60.1942 141.639 60.3218 142.922 60.4561C143.17 61.2943 143.417 62.1386 143.66 62.989C144.283 63.0682 144.904 63.1488 145.526 63.231C144.318 59.0288 143.106 54.9619 141.89 51.0302L140.066 50.9942C138.856 54.8228 137.647 58.5405 136.441 62.1475L136.442 62.1452ZM142.256 58.2003C141.415 58.1309 140.574 58.0632 139.731 57.9974C140.152 56.712 140.573 55.4124 140.993 54.0984C141.415 55.4506 141.836 56.8179 142.256 58.2003Z" fill="#86B358"/>
<path d="M92.6252 37.7699C93.2876 37.4353 93.8645 36.944 94.309 36.3357C95.3531 36.1034 96.3861 35.833 97.4191 35.5535C99.446 35.0044 101.5 34.5344 103.57 34.1887C103.885 35.4355 105 39.5612 106.483 38.4302C107.185 37.8971 106.863 36.8247 106.483 36.21C106.176 35.7248 105.819 35.2751 105.419 34.8688C105.119 34.5641 104.682 34.3356 104.307 34.0721L104.473 34.0462C106.37 33.7644 108.338 33.868 110.163 34.4834C110.486 35.8361 110.06 37.3258 110.627 38.6084C110.87 39.1576 111.595 40.0982 112.254 39.5551C112.93 38.9976 112.294 37.4881 112.081 36.8666C111.874 36.2634 111.592 35.7142 111.312 35.1445C111.272 35.0638 111.238 34.9808 111.2 34.8977C111.242 34.9175 111.285 34.9351 111.327 34.9549C112.368 35.456 113.268 36.2359 114.074 37.0714C114.136 37.1362 114.196 37.204 114.254 37.2733C114.328 37.3852 114.415 37.4751 114.461 37.5391C114.536 37.6483 114.605 37.7622 114.667 37.8803C115.182 38.776 115.811 40.0708 116.802 40.4592C117.401 40.693 118.415 40.84 118.41 39.9162C118.405 39.0266 117.216 38.108 116.519 37.7683C116.042 37.5399 115.591 37.2847 115.104 37.0829C114.984 37.0321 114.861 36.9876 114.736 36.9496C114.298 36.4637 113.825 36.0118 113.322 35.5977C112.546 34.9533 111.674 34.4445 110.74 34.0912C110.721 34.0802 110.701 34.0712 110.681 34.0645C110.567 34.0241 110.582 34.0333 110.502 34.0036C110.284 33.9249 110.061 33.8535 109.835 33.7896C109.508 33.6959 109.18 33.6205 108.853 33.5611C109.77 33.2564 110.756 32.9601 111.407 32.2175C111.819 31.7461 112.486 30.6615 111.922 30.0492C111.345 29.4208 110.358 30.0728 109.911 30.5145C109.342 31.0789 108.954 31.8283 108.558 32.5542C108.328 32.8943 108.004 33.1549 107.629 33.3021C107.58 33.3212 107.539 33.3333 107.404 33.3851C106.142 33.2945 104.989 33.3958 103.73 33.587C103.591 33.6129 103.599 33.6106 103.439 33.6327C102.986 33.7088 102.533 33.7903 102.081 33.881C102.316 33.6967 102.538 33.4948 102.744 33.277C103.013 32.9686 103.243 32.625 103.426 32.2549C103.697 31.7034 103.948 30.641 103.317 30.2213C102.722 29.8252 102.189 30.5838 102.022 31.0934C101.874 31.5503 101.786 32.0546 101.675 32.5252C101.564 32.9959 101.404 33.6273 101.113 34.0142C101.092 34.051 101.059 34.0795 101.021 34.095C100.841 34.1338 100.701 34.1711 100.521 34.2123C98.8938 34.5695 97.2924 35.0196 95.6792 35.4355C95.3641 35.5169 95.024 35.6152 94.672 35.7081C94.8331 35.3472 94.9215 34.9562 94.9319 34.5588C94.9621 33.0988 93.9011 32.4102 92.6104 32.2472C91.5841 32.1178 90.0975 32.2084 89.739 33.4255C89.2972 34.9206 90.434 36.0859 91.7159 36.4987C92.274 36.6777 92.8276 36.6373 93.3828 36.5375C93.2559 36.6687 93.1188 36.7886 92.9727 36.8963C91.4751 37.9854 89.3693 38.2154 87.592 38.351C86.5737 38.4272 85.5643 38.3099 84.5622 38.1225C83.605 37.9428 82.6243 37.7859 81.8129 37.1979C81.5221 36.9877 81.1694 37.4317 81.4632 37.6442C82.8319 38.6343 84.8655 38.8735 86.492 38.939C88.4645 39.0174 90.8353 38.6838 92.6252 37.7699ZM90.649 35.2054C89.8759 34.3433 90.152 33.0531 91.2932 32.8368C91.9201 32.7228 92.5639 32.7617 93.1737 32.9502C94.6728 33.4156 94.5535 34.8101 93.8813 35.8909C92.7054 36.1255 91.492 36.1423 90.649 35.2024V35.2054Z" fill="#86B358"/>
<path d="M118.299 72.5547C116.931 71.5646 114.898 71.3254 113.272 71.2561C111.296 71.1724 108.928 71.5052 107.136 72.423C106.474 72.7575 105.896 73.2488 105.452 73.8571C104.408 74.0856 103.375 74.3598 102.342 74.6393C100.316 75.1885 98.2619 75.6584 96.1924 76.0042C95.8766 74.7574 94.7619 70.6316 93.2792 71.7626C92.5769 72.2958 92.9001 73.3682 93.2792 73.9828C93.5858 74.4684 93.9425 74.9181 94.343 75.324C94.6419 75.6325 95.0792 75.861 95.454 76.1207L95.2883 76.1466C93.3911 76.4284 91.424 76.3248 89.5989 75.7094C89.2765 74.3568 89.7013 72.867 89.1344 71.5844C88.8914 71.0353 88.167 70.0946 87.5081 70.6377C86.8315 71.1952 87.4676 72.7048 87.6811 73.3263C87.888 73.9295 88.1692 74.4786 88.4497 75.0483C88.4895 75.1291 88.5233 75.2121 88.5623 75.2951C88.5196 75.2753 88.4769 75.2578 88.435 75.238C87.394 74.7368 86.4943 73.9569 85.6882 73.1214C85.6256 73.0566 85.566 72.9889 85.5078 72.9196C85.4342 72.8076 85.3473 72.7177 85.301 72.6537C85.2257 72.5445 85.1571 72.4306 85.0956 72.3125C84.5802 71.4169 83.9507 70.1221 82.9606 69.7336C82.362 69.4998 81.3475 69.3528 81.3527 70.2767C81.3586 71.1663 82.5468 72.0848 83.244 72.4245C83.7211 72.653 84.1716 72.9081 84.6582 73.11C84.7802 73.1608 84.9045 73.2053 85.0308 73.2433C85.4691 73.7293 85.9415 74.1812 86.4443 74.5952C87.2198 75.2395 88.0919 75.7484 89.0262 76.1017C89.0448 76.1127 89.0646 76.1216 89.0851 76.1283C89.1992 76.1687 89.1837 76.1596 89.2639 76.1893C89.4824 76.2674 89.7047 76.3388 89.931 76.4033C90.2586 76.497 90.5854 76.5724 90.9123 76.6318C89.9957 76.9364 89.0107 77.2327 88.3599 77.9753C87.9469 78.4467 87.2799 79.5313 87.8445 80.1437C88.4225 80.772 89.409 80.1201 89.8551 79.6783C90.4242 79.1139 90.8166 78.3645 91.209 77.6387C91.4387 77.2984 91.7622 77.0377 92.1374 76.8907C92.1867 76.8717 92.2272 76.8595 92.3626 76.8077C93.6252 76.8983 94.7781 76.797 96.0363 76.6059C96.1747 76.58 96.1681 76.5822 96.3308 76.5602C96.7836 76.484 97.2356 76.4025 97.6876 76.3119C97.4529 76.4963 97.2315 76.6982 97.025 76.9159C96.7557 77.2244 96.5265 77.568 96.3433 77.938C96.0724 78.4894 95.8213 79.5519 96.4515 79.9715C97.0464 80.3676 97.5801 79.609 97.7473 79.0995C97.8945 78.6425 97.9828 78.1383 98.094 77.6676C98.2052 77.1969 98.3649 76.5655 98.6557 76.1786C98.6768 76.1418 98.7092 76.1134 98.7478 76.0979C98.9274 76.059 99.068 76.0217 99.2476 75.9806C100.875 75.6234 102.476 75.1732 104.089 74.7574C104.404 74.6759 104.744 74.5776 105.097 74.4847C104.935 74.8455 104.847 75.2366 104.836 75.634C104.806 77.0941 105.867 77.7826 107.157 77.9456C108.184 78.0751 109.671 77.9844 110.029 76.7673C110.47 75.2723 109.334 74.1069 108.053 73.6941C107.495 73.5152 106.94 73.5555 106.385 73.6553C106.512 73.524 106.65 73.404 106.796 73.2966C108.293 72.2074 110.398 71.9774 112.175 71.8418C113.194 71.7657 114.204 71.883 115.205 72.0703C116.162 72.2501 117.143 72.407 117.954 72.995C118.242 73.2113 118.594 72.7672 118.299 72.5547ZM109.112 74.9874C109.884 75.8496 109.608 77.1398 108.467 77.3561C107.84 77.4699 107.197 77.4311 106.587 77.2426C105.088 76.7772 105.207 75.3827 105.879 74.3019C107.057 74.0643 108.27 74.0475 109.114 74.9874H109.112Z" fill="#86B358"/>
<path d="M132.965 69.8128C130.251 76.2385 125.709 81.7205 119.905 85.5745C114.102 89.4286 107.295 91.4838 100.334 91.4838C93.3724 91.4838 86.5652 89.4286 80.762 85.5745C74.9587 81.7205 70.4165 76.2385 67.7022 69.8128C67.0348 68.2333 66.4842 66.6068 66.0546 64.9465L54.6511 66.6396C59.4643 87.4719 78.0876 103 100.332 103C122.615 103 141.268 87.4177 146.037 66.5312L134.639 64.8381C134.206 66.5358 133.646 68.1987 132.965 69.8128ZM67.7022 42.188C70.5918 35.3275 75.5602 29.5515 81.9045 25.6769C88.2488 21.8023 95.6479 20.0254 103.055 20.5976C110.462 21.1697 117.502 24.0619 123.179 28.865C128.857 33.6682 132.884 40.1391 134.691 47.3623H146.429C142.381 25.5316 123.285 9 100.333 9C77.3819 9 58.2832 25.5302 54.2372 47.3608H65.9762C66.4168 45.5943 66.9939 43.8648 67.7022 42.188Z" fill="#86B358"/>
<path d="M62.5823 35.7148C61.8903 35.3171 61.7541 34.5847 62.1169 33.9534C62.4797 33.3221 63.1811 33.0711 63.8732 33.4688C64.5652 33.8665 64.7014 34.599 64.3386 35.2303C63.9758 35.8616 63.2744 36.1126 62.5823 35.7148ZM64.3092 32.71C63.253 32.103 62.0535 32.5603 61.4674 33.5801C60.8813 34.5999 61.09 35.8666 62.1463 36.4736C63.2025 37.0807 64.402 36.6234 64.9881 35.6036C65.5742 34.5837 65.3655 33.3171 64.3092 32.71Z" fill="white"/>
<path d="M64.0812 29.7988L64.6907 30.2833L65.6641 29.0588L68.0641 30.9666L68.6049 30.2863L66.2048 28.3785L67.1782 27.154L66.5686 26.6695L64.0812 29.7988Z" fill="white"/>
<path d="M70.1436 25.6612C69.6002 25.0803 69.6841 24.3426 70.214 23.8469C70.7439 23.3512 71.4855 23.3166 72.0289 23.8975C72.5723 24.4784 72.4885 25.2161 71.9586 25.7118C71.4286 26.2075 70.687 26.242 70.1436 25.6612ZM72.6659 23.3017C71.8365 22.4151 70.56 22.5009 69.704 23.3017C68.8479 24.1024 68.6773 25.3704 69.5067 26.257C70.3361 27.1436 71.6125 27.0578 72.4686 26.257C73.3246 25.4562 73.4953 24.1883 72.6659 23.3017Z" fill="white"/>
<path d="M73.4711 20.21L75.6588 23.3883L77.6876 21.9918C78.3371 21.5448 78.4664 20.7358 78.0589 20.1438C77.6396 19.5346 76.8733 19.4182 76.2239 19.8653L74.9077 20.7712L74.6268 20.3631L76.6614 18.9627L76.2184 18.319L73.4711 20.21ZM75.3429 21.4034L76.6016 20.537C76.9349 20.3076 77.184 20.3987 77.3462 20.6344C77.5124 20.8758 77.5262 21.1543 77.1928 21.3837L75.9284 22.254L75.3429 21.4034Z" fill="white"/>
<path d="M78.8652 16.7334L80.573 20.1934L81.3551 19.8073L80.9753 19.0378L82.2329 18.417C83.0462 18.0156 83.4031 17.1936 83.0016 16.3802C82.6001 15.5669 81.7183 15.3252 80.9049 15.7266L78.8652 16.7334ZM79.9994 17.0606L81.2257 16.4554C81.6261 16.2577 82.0219 16.3658 82.2195 16.7663C82.4172 17.1667 82.2499 17.5216 81.8495 17.7192L80.6232 18.3245L79.9994 17.0606Z" fill="white"/>
<path d="M86.7534 14.2131L87.0391 14.1215L88.2341 15.5628L86.5996 16.0869L86.7534 14.2131ZM85.9987 13.6418L85.5757 17.8295L86.466 17.544L86.5262 16.9092L88.7919 16.1826L89.21 16.664L90.087 16.3828L87.3474 13.2093L85.9987 13.6418Z" fill="white"/>
<path d="M91.5077 12.1289L92.0973 15.9421L92.9592 15.8088L92.714 14.2228L94.8654 13.8902L95.1106 15.4761L95.9725 15.3428L95.3829 11.5297L94.521 11.663L94.746 13.1179L92.5946 13.4506L92.3696 11.9956L91.5077 12.1289Z" fill="white"/>
<path d="M98.9204 13.2551C98.9075 12.4598 99.4648 11.9692 100.19 11.9575C100.916 11.9457 101.489 12.4179 101.502 13.2132C101.515 14.0085 100.957 14.4991 100.232 14.5108C99.5062 14.5226 98.9333 14.0504 98.9204 13.2551ZM102.374 13.1991C102.354 11.9851 101.35 11.192 100.178 11.211C99.0062 11.23 98.0286 12.0554 98.0483 13.2693C98.0681 14.4832 99.0718 15.2764 100.244 15.2573C101.416 15.2383 102.393 14.413 102.374 13.1991Z" fill="white"/>
<path d="M109.875 12.3046L108.551 15.1476L108.076 15.0309L107.713 16.5079L108.445 16.6879L108.689 15.9864L111.582 16.6981L111.473 17.433L112.205 17.613L112.568 16.1359L112.128 16.0276L112.863 13.0397L109.875 12.3046ZM110.385 13.2132L111.834 13.5698L111.281 15.8193L109.431 15.3643L110.385 13.2132Z" fill="white"/>
<path d="M116.798 14.4256L115.245 16.7663C115.125 16.9425 114.967 16.9743 114.781 16.8954L114.396 16.7321L114.086 17.4639L114.51 17.6435C115.094 17.8911 115.602 17.7811 115.985 17.201L117.16 15.4276L118.521 16.0045L117.321 18.8353L118.124 19.1755L119.628 15.6257L116.798 14.4256Z" fill="white"/>
<path d="M125.27 18.8414L123.33 17.6532C122.557 17.1794 121.657 17.3399 121.183 18.1134C120.873 18.6191 120.89 19.153 121.149 19.5981L120.089 20.1927L120.898 20.6884L121.733 20.1934L122.959 20.9442L122.511 21.6761L123.254 22.1316L125.27 18.8414ZM124.111 19.0641L123.374 20.266L122.208 19.5516C121.827 19.3184 121.693 18.9497 121.926 18.569C122.16 18.1882 122.564 18.1165 122.944 18.3497L124.111 19.0641Z" fill="white"/>
<path d="M130.393 22.8867L127.692 25.6262L129.589 27.4969C130.109 28.0097 130.867 28.0043 131.331 27.5337C131.663 27.1968 131.734 26.8274 131.609 26.4495C131.85 26.4921 132.085 26.392 132.281 26.1939C132.72 25.748 132.652 25.1139 132.156 24.6255L130.393 22.8867ZM130.465 24.0521L131.58 25.151C131.788 25.3561 131.72 25.5534 131.603 25.6723C131.481 25.7961 131.27 25.8321 131.136 25.7002L129.972 24.5524L130.465 24.0521ZM129.439 25.0924L130.713 26.3476C130.891 26.5235 130.902 26.7595 130.727 26.9378C130.56 27.1063 130.319 27.1129 130.121 26.9175L128.863 25.677L129.439 25.0924Z" fill="white"/>
<path d="M135.468 29.6003L135.648 29.8405L134.675 31.4404L133.647 30.0665L135.468 29.6003ZM135.762 28.7004L131.665 29.6674L132.226 30.4158L132.845 30.2655L134.272 32.1699L133.953 32.7223L134.505 33.4595L136.611 29.8341L135.762 28.7004Z" fill="white"/>
<path d="M139.951 37.2159C140.359 36.5457 140.364 35.7996 139.939 35.0061C139.365 33.9358 138.238 33.4711 137.137 34.0607C136.036 34.6503 135.788 35.8279 136.371 36.9166C136.796 37.7101 137.419 38.1202 138.204 38.1513L138.229 37.3702C137.721 37.3095 137.337 37.0799 137.047 36.5387C136.691 35.8744 136.887 35.1759 137.545 34.8234C138.216 34.4644 138.884 34.6767 139.249 35.3594C139.539 35.9007 139.517 36.3477 139.287 36.8037L139.951 37.2159Z" fill="white"/>
<path d="M64.4417 68.9346L61.1414 70.2989L61.4473 71.0389L62.8498 70.4591L63.2544 71.4379L62.2096 72.883L62.5748 73.7663L63.8785 71.8996L65.843 72.3244L65.4877 71.465L63.9273 71.1387L63.5301 70.1779L64.7476 69.6746L64.4417 68.9346Z" fill="white"/>
<path d="M66.5846 75.1282L66.7235 75.3698L65.6474 76.7356L64.8531 75.3535L66.5846 75.1282ZM66.9564 74.3315L63.0713 74.7631L63.504 75.516L64.0922 75.447L65.1932 77.3628L64.8375 77.8363L65.2637 78.5779L67.6118 75.472L66.9564 74.3315Z" fill="white"/>
<path d="M68.6476 77.2529L67.5207 78.0859C66.8456 78.5849 66.7315 79.3758 67.2306 80.0509L67.9867 81.074L67.3688 81.5308L67.8486 82.1799L70.7204 80.0572L70.2406 79.4081L68.5736 80.6402L67.8903 79.7159C67.6139 79.342 67.6577 78.9884 68.0576 78.6928L69.1274 77.9021L68.6476 77.2529Z" fill="white"/>
<path d="M71.3746 80.835L68.7646 83.2723L71.0388 85.7077L71.5816 85.2009L69.8583 83.3554L70.3775 82.8706L71.8716 84.4706L72.4049 83.9726L70.9108 82.3726L71.3922 81.923L73.0539 83.7024L73.5872 83.2043L71.3746 80.835Z" fill="white"/>
<path d="M76.5711 86.976C76.6964 86.2604 76.4472 85.6163 75.8125 85.0767C74.9564 84.3489 73.8279 84.3303 73.0792 85.211C72.3305 86.0917 72.5156 87.1899 73.3865 87.9303C74.0212 88.4699 74.697 88.6121 75.3832 88.3733L75.1401 87.6921C74.6825 87.8116 74.2739 87.7439 73.8409 87.3758C73.3096 86.9241 73.2417 86.2561 73.6893 85.7297C74.1452 85.1934 74.7923 85.1501 75.3384 85.6144C75.7714 85.9825 75.9039 86.3749 75.8596 86.8458L76.5711 86.976Z" fill="white"/>
<path d="M77.7125 86.7441L77.3116 87.3461L78.521 88.1515L76.9426 90.5219L77.6144 90.9693L79.1929 88.5989L80.4023 89.4043L80.8032 88.8022L77.7125 86.7441Z" fill="white"/>
<path d="M81.5507 89.2334L79.9349 92.4181L82.1407 93.5372C82.7454 93.8439 83.4138 93.6255 83.6913 93.0784C83.89 92.6867 83.8487 92.3399 83.631 92.0412C83.8564 92.0107 84.0364 91.8558 84.1533 91.6255C84.4162 91.1072 84.1768 90.5657 83.6009 90.2735L81.5507 89.2334ZM81.9433 90.2436L83.2391 90.901C83.481 91.0237 83.4769 91.2172 83.4068 91.3554C83.3338 91.4994 83.1571 91.5908 83.0016 91.5119L81.6482 90.8253L81.9433 90.2436ZM81.3297 91.453L82.8098 92.2039C83.0171 92.3091 83.0939 92.5146 82.9887 92.7219C82.8894 92.9177 82.6781 92.9916 82.4478 92.8747L80.985 92.1326L81.3297 91.453Z" fill="white"/>
<path d="M85.6217 91.2256L84.3868 94.5764L87.5135 95.7287L87.7703 95.0319L85.4011 94.1587L85.6467 93.4922L87.7008 94.2492L87.9532 93.5645L85.899 92.8075L86.1268 92.1894L88.4112 93.0313L88.6635 92.3466L85.6217 91.2256Z" fill="white"/>
<path d="M89.6508 92.6602L88.8177 96.1328L89.6026 96.3211L89.9491 94.8768L91.9084 95.3468L91.5619 96.7911L92.3468 96.9794L93.1799 93.5068L92.3949 93.3185L92.0771 94.6435L90.1178 94.1735L90.4357 92.8485L89.6508 92.6602Z" fill="white"/>
<path d="M94.1339 93.6387L93.7411 97.1741L94.5402 97.2629L94.7036 95.7925L96.6983 96.0141L96.5349 97.4845L97.3341 97.5733L97.7269 94.0379L96.9277 93.9491L96.7779 95.2981L94.7832 95.0764L94.9331 93.7275L94.1339 93.6387Z" fill="white"/>
<path d="M102.533 94.0994L102.596 97.67L103.403 97.6557L103.341 94.0851L102.533 94.0994ZM98.6981 94.167L98.7611 97.7376L100.801 97.7016C101.641 97.6868 102.264 97.1139 102.249 96.2745C102.234 95.4352 101.592 94.9298 100.753 94.9446L99.5196 94.9663L99.5052 94.1528L98.6981 94.167ZM99.5322 95.683L100.707 95.6623C101.185 95.6539 101.434 95.8497 101.442 96.2888C101.449 96.7278 101.208 96.9581 100.73 96.9666L99.5552 96.9873L99.5322 95.683Z" fill="white"/>
<path d="M104.295 93.9648L104.814 97.498L108.111 97.0136L108.003 96.2788L105.505 96.6459L105.401 95.9431L107.567 95.6248L107.461 94.9029L105.295 95.2211L105.2 94.5695L107.608 94.2155L107.502 93.4935L104.295 93.9648Z" fill="white"/>
<path d="M110.801 92.7197L111.938 96.1049L112.697 95.8499L111.788 93.1442L113.6 92.5355L114.509 95.2412L115.274 94.9841L114.137 91.5989L110.801 92.7197Z" fill="white"/>
<path d="M115.051 91.2559L116.586 94.4699L117.313 94.1228L116.971 93.4079L118.139 92.8498C118.895 92.4888 119.234 91.7343 118.873 90.9787C118.512 90.2231 117.701 89.9896 116.945 90.3506L115.051 91.2559ZM116.094 91.5713L117.233 91.0271C117.605 90.8493 117.969 90.9538 118.146 91.3258C118.324 91.6978 118.166 92.0234 117.794 92.2011L116.655 92.7453L116.094 91.5713Z" fill="white"/>
<path d="M120.659 90.3798C120.265 89.7583 120.467 89.1018 121.034 88.7418C121.601 88.3819 122.282 88.4777 122.676 89.0992C123.071 89.7207 122.868 90.3772 122.301 90.7372C121.734 91.0972 121.054 91.0014 120.659 90.3798ZM123.358 88.6665C122.756 87.7179 121.58 87.577 120.664 88.1585C119.748 88.74 119.375 89.8639 119.978 90.8125C120.58 91.7611 121.756 91.902 122.672 91.3206C123.587 90.7391 123.96 89.6152 123.358 88.6665Z" fill="white"/>
<path d="M123.793 86.0716L125.182 88.6206L124.834 88.9096L125.734 89.9921L126.27 89.5463L125.882 88.9786L128.003 87.2157L128.49 87.7008L129.026 87.255L128.126 86.1724L127.804 86.4408L125.983 84.2509L123.793 86.0716ZM124.75 86.1917L125.812 85.3082L127.183 86.9568L125.827 88.0839L124.75 86.1917Z" fill="white"/>
<path d="M126.712 83.5879L128.329 84.3189C128.802 84.5326 129.198 84.47 129.56 84.0842L130.113 83.4959L130.239 83.7204C130.312 83.8598 130.275 84.0117 130.178 84.1152L129.515 84.8211L130.013 85.2899L130.703 84.5557C131.026 84.2122 131.074 83.7082 130.861 83.3036L129.45 80.6749L128.888 81.2726L129.741 82.845L129.064 83.565C128.976 83.6592 128.858 83.6902 128.733 83.6347L127.283 82.9808L126.712 83.5879Z" fill="white"/>
<path d="M129.965 80.0381L132.841 82.1548L133.316 81.5098L132.094 80.6103L132.722 79.7573L134.499 79.9027L135.065 79.1329L132.793 78.9843L132.139 77.0838L131.588 77.8328L132.117 79.3366L131.501 80.174L130.44 79.3931L129.965 80.0381Z" fill="white"/>
<path d="M132.558 76.4355L133.187 76.7927L133.905 75.5292L136.381 76.9354L136.78 76.2335L134.303 74.8272L135.021 73.5637L134.392 73.2066L132.558 76.4355Z" fill="white"/>
<path d="M136.219 68.9197L139.529 70.2592L139.832 69.511L136.521 68.1715L136.219 68.9197ZM134.78 72.4756L138.09 73.8151L138.856 71.9234C139.171 71.1452 138.887 70.3478 138.109 70.0329C137.331 69.718 136.614 70.1109 136.299 70.8891L135.837 72.0325L135.083 71.7273L134.78 72.4756ZM136.501 72.3014L136.942 71.2119C137.121 70.7689 137.399 70.6165 137.806 70.7812C138.213 70.9459 138.331 71.2582 138.151 71.7012L137.711 72.7907L136.501 72.3014Z" fill="white"/>
</svg>
