<svg width="201" height="112" viewBox="0 0 201 112" fill="none" xmlns="http://www.w3.org/2000/svg">
<path d="M10.8231 68.854H8.33325V68.2432H14.0072V68.854H11.5075V75.1907H10.8231V68.854Z" fill="#00AED6"/>
<path d="M17.7848 68.1361C18.2515 68.1295 18.7148 68.2164 19.1475 68.3915C19.5801 68.5667 19.9734 68.8266 20.3041 69.156C20.6348 69.4853 20.8964 69.8775 21.0733 70.3095C21.2502 70.7415 21.339 71.2044 21.3344 71.6712C21.3468 72.1434 21.2645 72.6134 21.0924 73.0533C20.9203 73.4932 20.6618 73.8942 20.3322 74.2326C20.0027 74.571 19.6086 74.84 19.1734 75.0237C18.7382 75.2073 18.2706 75.3019 17.7983 75.3019C17.3259 75.3019 16.8583 75.2073 16.4231 75.0237C15.9879 74.84 15.5939 74.571 15.2643 74.2326C14.9347 73.8942 14.6763 73.4932 14.5042 73.0533C14.332 72.6134 14.2498 72.1434 14.2622 71.6712C14.2583 71.2069 14.3467 70.7465 14.5222 70.3166C14.6976 69.8867 14.9568 69.496 15.2845 69.1671C15.6122 68.8383 16.002 68.5778 16.4312 68.4008C16.8604 68.2238 17.3205 68.1338 17.7848 68.1361ZM17.7848 74.6764C19.3572 74.6764 20.6132 73.3737 20.6132 71.6712C20.6358 71.2867 20.5797 70.9017 20.4482 70.5397C20.3167 70.1777 20.1126 69.8464 19.8484 69.5661C19.5842 69.2859 19.2655 69.0626 18.9119 68.91C18.5583 68.7573 18.1773 68.6786 17.7922 68.6786C17.407 68.6786 17.026 68.7573 16.6724 68.91C16.3188 69.0626 16.0001 69.2859 15.7359 69.5661C15.4717 69.8464 15.2676 70.1777 15.1361 70.5397C15.0046 70.9017 14.9485 71.2867 14.9711 71.6712C14.9564 73.3737 16.2247 74.6764 17.7848 74.6764Z" fill="#00AED6"/>
<path d="M22.8064 68.2539H25.2055C26.432 68.2539 27.3519 69.0635 27.3519 70.349C27.3519 71.6345 26.4394 72.4735 25.2055 72.4735H23.4883V75.2015H22.8064V68.2539ZM25.1172 71.8602C26.0469 71.8602 26.6479 71.2984 26.6479 70.349C26.6479 69.3996 26.0346 68.8549 25.1147 68.8549H23.4736V71.8504L25.1172 71.8602Z" fill="#00AED6"/>
<path d="M28.6936 68.2539H32.3315V68.8549H29.3633V75.1917H28.6936V68.2539Z" fill="#00AED6"/>
<path d="M36.2024 68.136C36.6675 68.132 37.1286 68.2208 37.559 68.3971C37.9894 68.5735 38.3803 68.8338 38.7089 69.1629C39.0376 69.492 39.2973 69.8833 39.473 70.314C39.6488 70.7446 39.7369 71.206 39.7323 71.6711C39.75 72.1467 39.6717 72.6211 39.5019 73.0657C39.3321 73.5104 39.0744 73.9162 38.7442 74.259C38.4139 74.6018 38.018 74.8744 37.58 75.0607C37.142 75.2469 36.671 75.3429 36.195 75.3429C35.7191 75.3429 35.248 75.2469 34.81 75.0607C34.372 74.8744 33.9761 74.6018 33.6459 74.259C33.3157 73.9162 33.058 73.5104 32.8882 73.0657C32.7184 72.6211 32.64 72.1467 32.6577 71.6711C32.6538 71.2049 32.7428 70.7426 32.9197 70.3113C33.0966 69.88 33.3577 69.4883 33.6877 69.1591C34.0178 68.8299 34.4102 68.5699 34.842 68.3942C35.2738 68.2185 35.7363 68.1307 36.2024 68.136ZM36.2024 74.6763C37.7772 74.6763 39.0308 73.3736 39.0308 71.6711C39.0534 71.2866 38.9973 70.9015 38.8658 70.5395C38.7343 70.1775 38.5302 69.8462 38.266 69.566C38.0018 69.2857 37.6831 69.0625 37.3295 68.9098C36.9759 68.7572 36.5949 68.6785 36.2097 68.6785C35.8246 68.6785 35.4436 68.7572 35.09 68.9098C34.7364 69.0625 34.4177 69.2857 34.1535 69.566C33.8893 69.8462 33.6852 70.1775 33.5537 70.5395C33.4222 70.9015 33.3661 71.2866 33.3887 71.6711C33.3789 73.3736 34.6447 74.6763 36.2024 74.6763Z" fill="#00AED6"/>
<path d="M41.2852 68.2539H43.6573C44.744 68.2539 45.5338 68.9163 45.5338 70.0031C45.5492 70.3135 45.4741 70.6217 45.3178 70.8904C45.1615 71.1591 44.9306 71.3766 44.6532 71.5167V71.5363C45.3646 71.7326 45.8208 72.422 45.8208 73.2536C45.8208 74.4802 44.9034 75.2015 43.7382 75.2015H41.2852V68.2539ZM43.6573 71.2689C43.8176 71.275 43.9775 71.247 44.1262 71.1868C44.275 71.1266 44.4093 71.0356 44.5203 70.9197C44.6314 70.8038 44.7166 70.6656 44.7703 70.5144C44.8241 70.3632 44.8452 70.2023 44.8323 70.0423C44.8433 69.8829 44.8199 69.723 44.7636 69.5735C44.7074 69.4239 44.6196 69.2882 44.5063 69.1756C44.393 69.063 44.2567 68.976 44.1069 68.9207C43.957 68.8654 43.7969 68.843 43.6376 68.8549H41.9671V71.2591L43.6573 71.2689ZM43.7456 74.5882C44.587 74.5882 45.1095 74.0656 45.1095 73.234C45.1201 73.051 45.092 72.8678 45.0269 72.6965C44.9618 72.5251 44.8612 72.3695 44.7317 72.2397C44.6022 72.11 44.4467 72.0091 44.2755 71.9437C44.1043 71.8783 43.9212 71.8498 43.7382 71.8602H41.9671V74.5882H43.7456Z" fill="#00AED6"/>
<path d="M50.4447 68.136C50.9106 68.1307 51.3729 68.2185 51.8044 68.3943C52.2359 68.57 52.628 68.8301 52.9577 69.1594C53.2874 69.4886 53.548 69.8804 53.7243 70.3117C53.9006 70.743 53.9891 71.2051 53.9845 71.6711C53.9969 72.1433 53.9147 72.6133 53.7426 73.0532C53.5704 73.4931 53.312 73.8941 52.9824 74.2325C52.6528 74.5709 52.2588 74.8399 51.8236 75.0235C51.3884 75.2072 50.9208 75.3018 50.4484 75.3018C49.9761 75.3018 49.5085 75.2072 49.0733 75.0235C48.6381 74.8399 48.2441 74.5709 47.9145 74.2325C47.5849 73.8941 47.3264 73.4931 47.1543 73.0532C46.9822 72.6133 46.8999 72.1433 46.9124 71.6711C46.9084 71.206 46.9971 70.7447 47.1732 70.3142C47.3493 69.8837 47.6093 69.4925 47.9381 69.1635C48.2668 68.8345 48.6578 68.5742 49.0881 68.3978C49.5185 68.2214 49.9797 68.1324 50.4447 68.136ZM50.4447 74.6763C52.0196 74.6763 53.2731 73.3736 53.2731 71.6711C53.2958 71.2866 53.2397 70.9015 53.1081 70.5395C52.9766 70.1775 52.7725 69.8462 52.5083 69.566C52.2442 69.2857 51.9255 69.0625 51.5719 68.9098C51.2183 68.7572 50.8372 68.6785 50.4521 68.6785C50.067 68.6785 49.6859 68.7572 49.3323 68.9098C48.9787 69.0625 48.6601 69.2857 48.3959 69.566C48.1317 69.8462 47.9276 70.1775 47.7961 70.5395C47.6646 70.9015 47.6084 71.2866 47.6311 71.6711C47.6213 73.3736 48.8871 74.6763 50.4447 74.6763Z" fill="#00AED6"/>
<path d="M57.7327 72.0879H60.539V72.6987H57.7327V72.0879Z" fill="#00AED6"/>
<path d="M64.7534 68.2539H67.1525C68.379 68.2539 69.2989 69.0635 69.2989 70.349C69.2989 71.6345 68.3888 72.4735 67.1525 72.4735H65.4354V75.2015H64.7534V68.2539ZM67.0642 71.8602C67.9939 71.8602 68.5949 71.2984 68.5949 70.349C68.5949 69.3996 67.9939 68.8648 67.074 68.8648H65.4329V71.8602H67.0642Z" fill="#00AED6"/>
<path d="M72.0045 68.2539H72.7404L75.2892 75.2015H74.5655L73.7658 72.9936H70.9693L70.1794 75.2015H69.4583L72.0045 68.2539ZM73.5573 72.395L72.6448 69.873C72.5246 69.5492 72.3798 68.9653 72.3798 68.9653H72.3578C72.3578 68.9653 72.2081 69.5492 72.0904 69.873L71.168 72.395H73.5573Z" fill="#00AED6"/>
<path d="M76.2141 73.928C76.4296 74.1625 76.6906 74.3507 76.9812 74.481C77.2717 74.6113 77.5858 74.6811 77.9042 74.6861C78.8536 74.6861 79.5527 74.1341 79.5527 73.2337C79.5527 72.3849 78.9026 71.8992 78.0809 71.8992H77.2027V71.308H77.9018C78.6745 71.308 79.3246 70.7928 79.3246 70.0225C79.3246 69.3503 78.9198 68.759 77.9312 68.759C77.3446 68.7585 76.7771 68.9683 76.3318 69.3503L76.0154 68.8179C76.5737 68.3581 77.2794 68.1159 78.0024 68.1359C79.2559 68.1359 80.0261 68.8572 80.0261 69.9538C80.0289 70.289 79.9317 70.6175 79.7469 70.8971C79.562 71.1768 79.298 71.395 78.9885 71.5238V71.5533C79.3675 71.6468 79.702 71.8693 79.9348 72.1827C80.1676 72.4961 80.284 72.8807 80.2641 73.2705C80.2641 74.5364 79.2461 75.3386 77.9312 75.3386C77.5342 75.3418 77.1407 75.2632 76.7753 75.1079C76.4098 74.9526 76.0802 74.7239 75.8069 74.4358L76.2141 73.928Z" fill="#00AED6"/>
<path d="M81.8093 68.2539H84.1814C85.2657 68.2539 86.058 68.9163 86.058 70.0031C86.0733 70.3135 85.9983 70.6217 85.842 70.8904C85.6857 71.1591 85.4548 71.3766 85.1774 71.5167V71.5363C85.8912 71.7326 86.345 72.422 86.345 73.2536C86.345 74.4802 85.4251 75.2015 84.2599 75.2015H81.8069L81.8093 68.2539ZM84.1814 71.2689C84.3418 71.275 84.5016 71.247 84.6504 71.1868C84.7992 71.1266 84.9335 71.0356 85.0445 70.9197C85.1555 70.8038 85.2407 70.6656 85.2945 70.5144C85.3483 70.3632 85.3694 70.2023 85.3564 70.0423C85.3674 69.8829 85.344 69.723 85.2878 69.5735C85.2315 69.4239 85.1438 69.2882 85.0305 69.1756C84.9171 69.063 84.7809 68.976 84.631 68.9207C84.4812 68.8654 84.3211 68.843 84.1618 68.8549H82.4913V71.2591L84.1814 71.2689ZM84.2722 74.5882C84.454 74.6029 84.6368 74.578 84.808 74.5153C84.9793 74.4525 85.1348 74.3533 85.264 74.2246C85.3932 74.0958 85.4929 73.9406 85.5563 73.7696C85.6197 73.5986 85.6453 73.4158 85.6312 73.234C85.6418 73.051 85.6137 72.8678 85.5486 72.6965C85.4835 72.5251 85.3829 72.3695 85.2534 72.2397C85.1239 72.11 84.9685 72.0091 84.7973 71.9437C84.626 71.8783 84.4429 71.8498 84.2599 71.8602H82.4913V74.5882H84.2722Z" fill="#00AED6"/>
<path d="M88.57 69.6572V68.2539H92.3845V75.2015H91.6952V68.8549H89.2422V69.6572C89.2422 72.947 88.8252 75.123 86.929 75.2702V74.6274C88.2242 74.4631 88.57 72.6109 88.57 69.6572Z" fill="#00AED6"/>
<path d="M94.3716 68.2539H98.2744V68.8549H95.0535V71.3867H97.693V72H95.0535V74.5784H98.4608V75.1917H94.3716V68.2539Z" fill="#00AED6"/>
<path d="M99.9058 68.2539H100.59V71.2689H101.753L103.634 68.2539H104.414L102.329 71.5363V71.5535L104.549 75.199H103.757L101.76 71.8773H100.598V75.199H99.9058V68.2539Z" fill="#00AED6"/>
<path d="M107.517 68.2539H108.253L110.802 75.2015H110.081L109.281 72.9936H106.477L105.69 75.2015H104.969L107.517 68.2539ZM109.07 72.395L108.172 69.873C108.052 69.5492 107.905 68.9653 107.905 68.9653H107.883C107.883 68.9653 107.736 69.5492 107.618 69.873L106.698 72.395H109.07Z" fill="#00AED6"/>
<path d="M113.061 68.854H110.572V68.2432H116.245V68.854H113.746V75.1907H113.061V68.854Z" fill="#00AED6"/>
<path d="M117.411 68.2539H121.313V68.8549H118.093V71.3867H120.732V72H118.093V74.5784H121.502V75.1917H117.411V68.2539Z" fill="#00AED6"/>
<path d="M123.705 69.6572V68.2539H127.522V75.2015H126.83V68.8549H124.363V69.6572C124.363 72.947 123.948 75.123 122.049 75.2702V74.6274C123.362 74.4631 123.705 72.6109 123.705 69.6572Z" fill="#00AED6"/>
<path d="M129.514 68.2539H130.193V71.0629H131.776C132.941 71.0629 133.841 71.7743 133.841 73.1481C133.841 74.4042 132.99 75.2039 131.832 75.2039H129.514V68.2539ZM131.722 74.5882C132.583 74.5882 133.115 74.0534 133.115 73.1457C133.115 72.238 132.543 71.6737 131.714 71.6737H130.181V74.5906L131.722 74.5882Z" fill="#00AED6"/>
<path d="M135.193 68.2539H135.875V71.4161H139.898V68.2539H140.59V75.2015H139.898V72.0294H135.875V75.2015H135.193V68.2539Z" fill="#00AED6"/>
<path d="M142.576 68.2539H143.251V71.0629H144.814C145.979 71.0629 146.867 71.7743 146.867 73.1481C146.867 74.4042 146.028 75.2039 144.873 75.2039H142.569L142.576 68.2539ZM144.784 74.5882C145.643 74.5882 146.178 74.0534 146.178 73.1457C146.178 72.238 145.604 71.6737 144.772 71.6737H143.251V74.5906L144.784 74.5882ZM147.936 68.2539H148.616V75.2015H147.936V68.2539Z" fill="#00AED6"/>
<path d="M150.61 68.2536H151.292V73.2533C151.292 73.6213 151.233 74.1929 151.233 74.1929H151.253C151.253 74.1929 151.621 73.5796 151.856 73.2337L155.376 68.2536H156.036V75.2012H155.354V70.2015C155.354 69.8335 155.416 69.2619 155.416 69.2619H155.396C155.396 69.2619 155.048 69.8531 154.812 70.2015L151.275 75.2012H150.61V68.2536ZM152.045 66.762V66.5928H152.629V66.7424C152.627 66.8358 152.645 66.9285 152.681 67.0146C152.718 67.1007 152.771 67.1783 152.839 67.2424C152.907 67.3066 152.988 67.3559 153.076 67.3873C153.163 67.4186 153.257 67.4313 153.35 67.4244C153.445 67.4308 153.54 67.4176 153.629 67.3856C153.719 67.3535 153.801 67.3033 153.87 67.2381C153.939 67.1729 153.994 67.0941 154.031 67.0067C154.068 66.9193 154.087 66.8252 154.086 66.7302V66.5928H154.66V66.762C154.66 67.498 154.03 67.9273 153.358 67.9273C152.685 67.9273 152.045 67.5029 152.045 66.762Z" fill="#00AED6"/>
<path d="M160.506 68.2539H161.188V74.5882H164.97V68.2539H165.662V74.5882H166.445V76.5851H165.819V75.2015H160.506V68.2539Z" fill="#00AED6"/>
<path d="M167.86 68.2539H171.76V68.8549H168.54V71.3867H171.179V72H168.54V74.5784H171.952V75.1917H167.86V68.2539Z" fill="#00AED6"/>
<path d="M173.394 68.2539H174.078V71.4161H178.099V68.2539H178.788V75.2015H178.099V72.0294H174.078V75.2015H173.394V68.2539Z" fill="#00AED6"/>
<path d="M182.436 68.854H179.946V68.2432H185.62V68.854H183.121V75.1907H182.436V68.854Z" fill="#00AED6"/>
<path d="M186.788 68.2539H189.187C190.413 68.2539 191.333 69.0635 191.333 70.349C191.333 71.6345 190.423 72.4735 189.187 72.4735H187.47V75.2015H186.79L186.788 68.2539ZM189.096 71.8602C190.028 71.8602 190.629 71.2984 190.629 70.349C190.629 69.3996 190.028 68.8648 189.108 68.8648H187.467V71.8602H189.096Z" fill="#00AED6"/>
<path d="M181.614 35.0342H179.63L169.867 55.9971H170.438H174.025L176.269 51.1912H184.904L187.161 55.9971H191.292L181.614 35.0342ZM177.716 47.6708L180.589 41.182L183.464 47.6708H177.716Z" fill="#00AED6"/>
<path d="M79.4987 45.0146C79.8696 44.6969 80.1861 44.3206 80.4357 43.9008C80.9301 43.0401 81.1843 42.0623 81.1716 41.0698C81.192 40.144 81.0165 39.2244 80.6565 38.3712C80.3297 37.6199 79.8245 36.9596 79.1847 36.4479C78.5394 35.9456 77.8006 35.577 77.0113 35.3635C76.1616 35.1365 75.2856 35.0235 74.4061 35.0274H66.2031V55.9977H75.2303C76.1393 56.0143 77.0449 55.8825 77.9115 55.6077C78.7146 55.3659 79.4571 54.9561 80.0898 54.4056C80.703 53.862 81.1916 53.1926 81.5224 52.443C81.8804 51.5995 82.0568 50.69 82.04 49.7739C82.0722 48.553 81.7034 47.3552 80.9901 46.3639C80.5872 45.8197 80.0803 45.3611 79.4987 45.0146ZM69.9808 38.5994H74.2712C74.7305 38.5991 75.1882 38.6526 75.6351 38.7588C75.9871 38.8574 76.3192 39.0168 76.6163 39.2298C76.8652 39.4237 77.0617 39.6767 77.1879 39.9658C77.3426 40.3429 77.417 40.7482 77.4062 41.1556C77.4207 41.5461 77.3425 41.9345 77.1781 42.289C77.031 42.5729 76.8119 42.8132 76.5427 42.9858C76.2126 43.1964 75.8468 43.3452 75.4634 43.4249C74.9604 43.5271 74.4484 43.5781 73.9351 43.577H69.9808V38.5994ZM77.3694 51.7438C76.7046 52.2075 75.8313 52.4356 74.7667 52.4356H69.9808V47.0778H73.9425C74.5352 47.079 75.1267 47.129 75.7112 47.2274C76.2028 47.2947 76.6786 47.4483 77.1167 47.6813C77.4954 47.8698 77.8078 48.169 78.0124 48.5393C78.217 48.9095 78.3042 49.3333 78.2623 49.7542C78.2451 50.7012 77.9581 51.3513 77.3694 51.7438Z" fill="#00AED6"/>
<path d="M108.302 43.7162C107.631 43.0536 106.824 42.5432 105.938 42.2197C104.974 41.865 103.955 41.6871 102.928 41.6947H98.397V35.0342H94.6807V55.9971H102.918C103.961 56.0124 104.996 55.8215 105.965 55.4353C106.849 55.0893 107.652 54.563 108.322 53.8898C108.978 53.2318 109.49 52.4438 109.823 51.5764C110.179 50.6795 110.359 49.7225 110.353 48.7576C110.359 47.7948 110.174 46.8403 109.811 45.9486C109.467 45.1086 108.954 44.3486 108.302 43.7162ZM106.377 50.2541C106.205 50.6818 105.948 51.07 105.621 51.3948C105.273 51.7086 104.872 51.9579 104.436 52.1308C103.954 52.3289 103.437 52.4274 102.916 52.4203C102.047 52.4203 101.181 52.435 100.301 52.4203C99.6653 52.4203 99.0226 52.4203 98.397 52.4203V45.2715H102.928C103.451 45.2636 103.971 45.3466 104.466 45.5169C104.9 45.677 105.297 45.9232 105.634 46.2406C105.957 46.5414 106.208 46.9112 106.369 47.3225C106.554 47.7808 106.645 48.271 106.639 48.765C106.65 49.2737 106.561 49.7797 106.377 50.2541Z" fill="#00AED6"/>
<path d="M125.52 46.9594H134.052V43.4193H125.52V38.5717H134.351V35.0342H121.74V55.9971H134.658V52.3467H125.52V46.9594Z" fill="#00AED6"/>
<path d="M22.1882 37.1932C21.515 36.5049 20.7065 35.9636 19.8137 35.6035C18.8468 35.2114 17.8128 35.0114 16.7694 35.0147H8.35791V55.9972H12.1111V49.8249H16.7547C17.7929 49.8384 18.8234 49.6458 19.7867 49.2582C20.6706 48.899 21.4744 48.3678 22.1514 47.6955C22.8128 47.0212 23.328 46.2178 23.6649 45.3355C24.0264 44.4204 24.208 43.4441 24.1997 42.4603C24.2044 41.4743 24.029 40.4957 23.6821 39.5728C23.3559 38.6839 22.847 37.8732 22.1882 37.1932ZM20.2258 43.969C20.0491 44.4199 19.7819 44.8298 19.4408 45.1736C19.109 45.5147 18.7085 45.7815 18.2658 45.9561C17.7879 46.1479 17.277 46.2438 16.7621 46.2383H12.1013V38.6062C12.7832 38.6062 13.4553 38.6062 14.1177 38.5792C15.0179 38.5792 15.8937 38.5792 16.7743 38.6062C17.2972 38.5945 17.8171 38.6888 18.3026 38.8834C18.7453 39.0702 19.1477 39.3409 19.4874 39.6807C19.8226 40.0131 20.082 40.4139 20.2478 40.8559C20.4353 41.3502 20.5284 41.8752 20.5226 42.4038C20.5218 42.9402 20.4186 43.4714 20.2184 43.969H20.2258Z" fill="#00AED6"/>
<path d="M161.303 37.1932C160.632 36.5044 159.825 35.963 158.933 35.6035C157.965 35.2118 156.931 35.0118 155.887 35.0147H147.48V55.9972H151.231V49.8249H155.877C156.913 49.8373 157.942 49.6447 158.904 49.2582C159.787 48.8954 160.591 48.3647 161.271 47.6955C161.93 47.0182 162.446 46.2157 162.789 45.3355C163.147 44.4194 163.329 43.4438 163.324 42.4603C163.327 41.4745 163.151 40.4963 162.807 39.5728C162.475 38.6843 161.963 37.874 161.303 37.1932ZM159.34 43.969C159.17 44.4166 158.908 44.8241 158.573 45.166C158.237 45.508 157.835 45.7769 157.39 45.9561C156.912 46.1474 156.401 46.2433 155.887 46.2382H151.199V38.6062C151.876 38.6062 152.558 38.6062 153.22 38.5792C154.113 38.5792 154.989 38.5792 155.877 38.6062C156.398 38.5949 156.916 38.6892 157.4 38.8834C157.843 39.0708 158.246 39.3414 158.587 39.6807C158.919 40.0146 159.177 40.4151 159.343 40.8558C159.537 41.3485 159.632 41.8745 159.623 42.4038C159.627 42.9395 159.528 43.4709 159.331 43.969H159.34Z" fill="#00AED6"/>
<path d="M51.6223 35V35.6869C51.6223 39.4036 50.3418 41.6924 48.6271 43.3705C47.4227 44.5406 46.0097 45.3993 44.6605 46.2138C42.5092 47.5115 40.4388 48.7774 39.3521 51.1914C38.8006 52.5031 38.5346 53.9173 38.5721 55.3398V56.0046H39.3521V55.1852C39.4037 50.3254 41.9082 48.8068 45.0653 46.8982C46.3188 46.181 47.5102 45.3604 48.6271 44.445V55.9973H52.4073V35H51.6223Z" fill="#00AED6"/>
<path d="M43.5246 44.2781C45.6612 42.9853 47.5942 41.8249 48.627 39.6366C49.1785 38.3948 49.4451 37.0452 49.407 35.6869V35H48.627V35.6869C48.627 40.2745 46.3186 41.6777 43.1297 43.5986C41.7948 44.3585 40.5306 45.2362 39.352 46.2211V35H35.562V55.9973H36.347V55.3324C36.347 51.4514 37.6275 49.0497 39.3471 47.3177C40.6153 46.0543 42.1068 45.1417 43.5246 44.2781Z" fill="#00AED6"/>
<path d="M44.295 45.5882C45.838 44.6535 47.3981 43.7041 48.6271 42.3352C49.9787 40.8117 50.906 38.7853 50.906 35.6869V35H50.1259V35.6869C50.1259 38.0715 49.5445 39.7642 48.6271 41.084C47.4423 42.7719 45.6834 43.8268 43.9001 44.9209C42.2712 45.9022 40.6252 46.9007 39.3521 48.3849C37.998 49.9648 37.0757 52.0942 37.0757 55.3447V56.0095H37.8533V55.3324C37.8533 52.8203 38.4322 51.0442 39.3521 49.6704C40.5786 47.8501 42.4062 46.7338 44.295 45.5882Z" fill="#00AED6"/>
<path d="M191.284 60.3643H8.36987V61.7037H191.284V60.3643Z" fill="#00AED6"/>
</svg>
