<svg width="201" height="112" viewBox="0 0 201 112" fill="none" xmlns="http://www.w3.org/2000/svg">
<path d="M14.0192 31C14.4481 31.0698 14.8792 31.1304 15.3059 31.2102C19.1994 31.939 22.7495 33.5042 26.0673 35.6358C30.0969 38.2249 33.6662 41.3582 36.9634 44.8171C38.1674 46.0802 39.3978 47.3192 40.6168 48.5681C40.6973 48.6507 40.787 48.7241 40.8932 48.821C41.1803 48.1855 41.4418 47.5792 41.7261 46.9836C43.012 44.2899 44.6727 41.864 46.8805 39.8357C49.4966 37.4319 52.5637 35.9094 56.0311 35.1778C59.1245 34.5252 62.2315 34.4938 65.3356 35.0573C66.6166 35.2896 67.8762 35.6415 69.145 35.9408C69.2319 35.9614 69.3153 35.9978 69.4193 36.0334C68.3777 36.1182 67.3618 36.1716 66.3537 36.2877C60.3713 36.9767 55.8616 39.9098 52.8757 45.1605C51.2963 47.9383 50.2832 50.9312 49.4931 54.0097C49.3605 54.5262 49.2551 55.0506 49.1112 55.5635C49.0407 55.8164 49.0834 56.0095 49.2259 56.2268C50.8175 58.6434 52.7247 60.7871 54.9026 62.6801C60.3749 67.4356 66.5489 71.0085 73.3669 73.4579C76.2124 74.4802 79.147 75.0766 82.1934 74.9448C86.0555 74.778 89.2522 73.3225 91.5199 70.0873C91.5392 70.0602 91.5677 70.0403 91.6482 70.0424C91.3917 70.6865 91.1509 71.3377 90.8752 71.9739C89.9176 74.1867 88.668 76.2036 86.8627 77.8344C84.8422 79.659 82.4499 80.6742 79.7711 81.0383C76.7995 81.4415 73.8778 81.1529 70.9959 80.3643C67.3668 79.3711 63.977 77.8166 60.7076 75.9821C54.9155 72.7319 49.8457 68.5513 45.1386 63.9012C40.9865 59.799 37.17 55.3925 33.3677 50.9733C29.7442 46.7606 26.1414 42.5294 22.2543 38.5526C19.8456 36.0875 17.3342 33.7343 14.6483 31.5714C14.4396 31.4032 14.2166 31.2515 14 31.0926C14.0064 31.062 14.0128 31.0313 14.0192 31Z" fill="#1390D1"/>
<path d="M80.7578 71.8984C81.1375 70.9416 81.5721 70.0133 81.8785 69.0451C83.5584 63.7403 82.8816 58.7247 79.8658 54.0589C77.3908 50.2295 74.1107 47.1646 70.4752 44.463C68.2894 42.8387 65.9604 41.4394 63.5602 40.1571C63.2674 40.001 62.9525 39.8856 62.6625 39.726C62.3861 39.5743 62.1282 39.3883 61.7642 39.1554C61.9672 39.0784 62.0641 39.0357 62.1645 39.005C64.8476 38.1929 67.5883 37.7483 70.3918 37.6735C72.5505 37.6158 74.5047 38.262 76.3407 39.3413C79.4419 41.1644 82.291 43.331 84.6591 46.0347C86.8271 48.5104 88.4956 51.3303 89.6939 54.418C90.5902 56.7291 91.2777 59.0894 91.5677 61.5552C91.7721 63.2921 91.7971 65.0348 91.6624 66.7788C91.6546 66.88 91.6239 66.994 91.5662 67.0738C90.1171 69.085 88.3688 70.7407 86.0199 71.659C84.3578 72.3088 82.6529 72.4035 80.9202 71.9675C80.8746 71.9561 80.8291 71.939 80.7863 71.9205C80.7657 71.9127 80.7514 71.8927 80.7578 71.8984Z" fill="#FF0A00"/>
<path d="M18.9073 75.8701C19.0277 75.9001 19.1481 75.9293 19.2678 75.9606C21.7514 76.5997 24.1972 76.6296 26.5618 75.484C28.4512 74.5685 29.9345 73.1636 31.2204 71.5349C32.9844 69.3007 34.3046 66.8058 35.4003 64.1947C36.1527 62.4022 36.8145 60.5726 37.517 58.7595C37.559 58.6512 37.5996 58.5429 37.6538 58.4004C37.7222 58.4495 37.772 58.4752 37.8084 58.5137C39.8695 60.7137 41.9312 62.913 43.9895 65.1158C44.4027 65.5583 44.7988 66.0164 45.2099 66.4609C45.3282 66.5892 45.3666 66.6889 45.2655 66.8606C43.7494 69.4276 42.1934 71.9667 40.2513 74.2436C38.1553 76.7008 35.7116 78.6814 32.6617 79.8548C30.3049 80.7618 27.951 80.6798 25.5872 79.9254C23.4 79.2279 21.4607 78.0744 19.6654 76.6617C19.4324 76.4786 19.188 76.3104 18.9551 76.1266C18.9073 76.0889 18.8895 76.0141 18.8582 75.9571C18.8738 75.9279 18.8909 75.8994 18.9073 75.8701Z" fill="#FF0A00"/>
<path d="M44.7609 36.282C44.7367 39.1596 42.3899 41.4579 39.4952 41.4379C36.6277 41.418 34.3101 39.047 34.3429 36.1673C34.3756 33.3247 36.7588 31.0043 39.6092 31.0385C42.4697 31.0734 44.7851 33.4301 44.7609 36.282Z" fill="#1390D1"/>
<path d="M54.4957 57.6698C54.49 58.368 53.9229 58.9351 53.2268 58.9387C52.5244 58.9422 51.9316 58.348 51.9373 57.6449C51.943 56.9395 52.535 56.3724 53.251 56.386C53.9563 56.3995 54.5014 56.9616 54.4957 57.6698Z" fill="#1390D1"/>
<path d="M57.5663 61.1656C57.5685 61.7583 57.0983 62.2278 56.5062 62.2243C55.9356 62.2214 55.4611 61.7569 55.4461 61.1884C55.4319 60.6149 55.9177 60.1176 56.5005 60.1104C57.0904 60.1026 57.5642 60.5714 57.5663 61.1656Z" fill="#1390D1"/>
<path d="M58.6936 63.8331C58.6915 63.375 59.0448 63.0259 59.5079 63.0273C59.9511 63.0288 60.3023 63.3686 60.3137 63.8068C60.3251 64.2506 59.9582 64.636 59.5165 64.6439C59.0769 64.6524 58.6958 64.2763 58.6936 63.8331Z" fill="#1390D1"/>
<path d="M63.1648 66.0437C63.1677 66.4904 62.8257 66.8245 62.3704 66.8195C61.933 66.8145 61.6081 66.4882 61.6067 66.0515C61.6053 65.6276 61.9423 65.2742 62.3619 65.2593C62.7858 65.2436 63.162 65.6112 63.1648 66.0437Z" fill="#1390D1"/>
<path d="M65.7982 67.9266C65.8074 68.3134 65.5039 68.6326 65.1164 68.6426C64.7338 68.6525 64.4103 68.3433 64.4018 67.9586C64.3932 67.571 64.6982 67.2504 65.0829 67.2405C65.4648 67.2305 65.7889 67.5418 65.7982 67.9266Z" fill="#1390D1"/>
<path d="M68.2681 69.3713C68.2659 69.6948 67.9988 69.9591 67.6753 69.9577C67.349 69.9562 67.0926 69.6955 67.0933 69.367C67.0947 69.0343 67.3455 68.7864 67.6803 68.7871C68.0102 68.7864 68.2702 69.0457 68.2681 69.3713Z" fill="#1390D1"/>
<path d="M70.339 71.0581C70.0626 71.0588 69.8125 70.8051 69.8218 70.533C69.831 70.2737 70.0718 70.04 70.334 70.0371C70.6176 70.0343 70.8513 70.2765 70.8427 70.5636C70.8342 70.8372 70.6105 71.0574 70.339 71.0581Z" fill="#1390D1"/>
<path d="M75.2278 72.355C75.2292 72.6386 75.0283 72.848 74.7462 72.858C74.4469 72.868 74.2261 72.6557 74.2261 72.3593C74.2268 72.0793 74.4313 71.8641 74.7077 71.8549C75.0033 71.8442 75.2271 72.0586 75.2278 72.355Z" fill="#1390D1"/>
<path d="M71.92 71.5402C71.93 71.2773 72.1466 71.0757 72.4095 71.0842C72.6781 71.0928 72.8719 71.2966 72.8697 71.568C72.8676 71.8423 72.6296 72.0681 72.3653 72.0475C72.1138 72.0275 71.9101 71.7953 71.92 71.5402Z" fill="#1390D1"/>
<path d="M103.69 52.8027V39.7659H109.195C109.321 39.7659 109.49 39.772 109.702 39.784C109.919 39.7901 110.112 39.8082 110.281 39.8384C111.06 39.9591 111.696 40.2156 112.191 40.6079C112.692 41.0002 113.061 41.4951 113.296 42.0926C113.531 42.6841 113.649 43.345 113.649 44.0753C113.649 44.8056 113.528 45.4695 113.287 46.067C113.051 46.6585 112.683 47.1504 112.182 47.5427C111.687 47.9351 111.054 48.1916 110.281 48.3123C110.112 48.3364 109.919 48.3545 109.702 48.3666C109.484 48.3787 109.315 48.3847 109.195 48.3847H106.153V52.8027H103.69ZM106.153 46.0852H109.086C109.213 46.0852 109.352 46.0791 109.503 46.067C109.653 46.055 109.792 46.0308 109.919 45.9946C110.251 45.9041 110.507 45.7532 110.689 45.542C110.87 45.3247 110.993 45.0863 111.06 44.8267C111.132 44.5612 111.168 44.3107 111.168 44.0753C111.168 43.8399 111.132 43.5925 111.06 43.3329C110.993 43.0674 110.87 42.829 110.689 42.6177C110.507 42.4004 110.251 42.2465 109.919 42.156C109.792 42.1198 109.653 42.0957 109.503 42.0836C109.352 42.0715 109.213 42.0655 109.086 42.0655H106.153V46.0852ZM121.062 53.0743C119.758 53.0743 118.632 52.7907 117.685 52.2233C116.743 51.656 116.016 50.8623 115.503 49.8423C114.996 48.8223 114.742 47.6363 114.742 46.2843C114.742 44.9324 114.996 43.7464 115.503 42.7264C116.016 41.7064 116.743 40.9127 117.685 40.3453C118.632 39.778 119.758 39.4943 121.062 39.4943C122.365 39.4943 123.488 39.778 124.43 40.3453C125.377 40.9127 126.104 41.7064 126.611 42.7264C127.124 43.7464 127.381 44.9324 127.381 46.2843C127.381 47.6363 127.124 48.8223 126.611 49.8423C126.104 50.8623 125.377 51.656 124.43 52.2233C123.488 52.7907 122.365 53.0743 121.062 53.0743ZM121.062 50.7567C121.889 50.7688 122.577 50.5907 123.126 50.2225C123.675 49.8544 124.086 49.3323 124.357 48.6563C124.635 47.9803 124.774 47.1897 124.774 46.2843C124.774 45.379 124.635 44.5944 124.357 43.9305C124.086 43.2666 123.675 42.7505 123.126 42.3823C122.577 42.0142 121.889 41.8241 121.062 41.812C120.235 41.7999 119.547 41.978 118.998 42.3461C118.448 42.7143 118.035 43.2364 117.757 43.9124C117.486 44.5883 117.35 45.379 117.35 46.2843C117.35 47.1897 117.486 47.9743 117.757 48.6382C118.035 49.3021 118.448 49.8182 118.998 50.1863C119.547 50.5545 120.235 50.7446 121.062 50.7567ZM129.188 52.8027V39.7659H134.403C135.332 39.7659 136.084 39.953 136.657 40.3272C137.231 40.6954 137.65 41.1601 137.916 41.7214C138.181 42.2828 138.314 42.8501 138.314 43.4235C138.314 44.1538 138.148 44.7604 137.816 45.2432C137.49 45.726 137.04 46.0489 136.467 46.2119V45.7592C137.282 45.9282 137.891 46.3055 138.296 46.8909C138.706 47.4764 138.911 48.1312 138.911 48.8555C138.911 49.6341 138.767 50.3191 138.477 50.9106C138.193 51.5021 137.759 51.9668 137.173 52.3048C136.588 52.6368 135.851 52.8027 134.964 52.8027H129.188ZM131.687 50.4851H134.711C135.043 50.4851 135.338 50.4157 135.598 50.2769C135.857 50.132 136.06 49.9328 136.205 49.6793C136.355 49.4198 136.431 49.115 136.431 48.7649C136.431 48.4571 136.367 48.1825 136.241 47.9411C136.114 47.6997 135.921 47.5095 135.661 47.3707C135.408 47.2259 135.091 47.1535 134.711 47.1535H131.687V50.4851ZM131.687 44.8539H134.367C134.644 44.8539 134.892 44.8056 135.109 44.709C135.326 44.6125 135.498 44.4646 135.625 44.2654C135.752 44.0602 135.815 43.7977 135.815 43.4778C135.815 43.0794 135.692 42.7445 135.444 42.4729C135.197 42.2013 134.837 42.0655 134.367 42.0655H131.687V44.8539ZM140.717 52.8027V39.7659H143.18V45.1255H149.01V39.7659H151.472V52.8027H149.01V47.4251H143.18V52.8027H140.717ZM153.109 52.8027L157.092 39.7659H160.768L164.751 52.8027H162.216L158.668 41.305H159.138L155.644 52.8027H153.109ZM155.499 50.0867V47.7872H162.379V50.0867H155.499ZM175.971 52.8027H173.508V48.3847H170.466L169.38 48.3123C168.221 48.1312 167.37 47.6544 166.827 46.8819C166.284 46.1033 166.012 45.1678 166.012 44.0753C166.012 43.345 166.13 42.6841 166.365 42.0926C166.606 41.4951 166.975 41.0002 167.47 40.6079C167.964 40.2156 168.601 39.9591 169.38 39.8384C169.555 39.8082 169.748 39.7901 169.959 39.784C170.17 39.772 170.339 39.7659 170.466 39.7659H175.971V52.8027ZM168.619 52.8027H165.831L168.656 47.0086L171.19 47.4975L168.619 52.8027ZM173.508 46.0852V42.0655H170.575C170.448 42.0655 170.309 42.0715 170.158 42.0836C170.007 42.0957 169.869 42.1198 169.742 42.156C169.41 42.2465 169.153 42.4004 168.972 42.6177C168.791 42.829 168.665 43.0674 168.592 43.3329C168.526 43.5925 168.493 43.8399 168.493 44.0753C168.493 44.3107 168.526 44.5612 168.592 44.8267C168.665 45.0863 168.791 45.3247 168.972 45.542C169.153 45.7532 169.41 45.9041 169.742 45.9946C169.869 46.0308 170.007 46.055 170.158 46.067C170.309 46.0791 170.448 46.0852 170.575 46.0852H173.508Z" fill="#1390D1"/>
<path d="M109.285 70.0743C107.982 70.0743 106.856 69.7907 105.908 69.2233C104.967 68.656 104.24 67.8623 103.727 66.8423C103.22 65.8223 102.966 64.6363 102.966 63.2843C102.966 61.9324 103.22 60.7464 103.727 59.7264C104.24 58.7064 104.967 57.9127 105.908 57.3453C106.856 56.778 107.982 56.4943 109.285 56.4943C110.782 56.4943 112.037 56.8655 113.051 57.6079C114.071 58.3503 114.79 59.3552 115.206 60.6226L112.726 61.3107C112.484 60.52 112.077 59.9074 111.503 59.4729C110.93 59.0323 110.191 58.812 109.285 58.812C108.458 58.812 107.767 58.9961 107.212 59.3642C106.663 59.7324 106.249 60.2515 105.972 60.9214C105.694 61.5914 105.555 62.379 105.555 63.2843C105.555 64.1897 105.694 64.9773 105.972 65.6473C106.249 66.3172 106.663 66.8363 107.212 67.2044C107.767 67.5726 108.458 67.7567 109.285 67.7567C110.191 67.7567 110.93 67.5364 111.503 67.0958C112.077 66.6552 112.484 66.0426 112.726 65.258L115.206 65.946C114.79 67.2135 114.071 68.2184 113.051 68.9608C112.037 69.7031 110.782 70.0743 109.285 70.0743ZM117.2 69.8027V56.7659H127.955V69.8027H125.492V59.0655H119.662V69.8027H117.2ZM141.162 69.8027H138.663V61.1115L132.995 69.8027H130.497V56.7659H132.995V65.4571L138.663 56.7659H141.162V69.8027ZM143.688 69.8027V56.7659H146.15V62.1255H151.981V56.7659H154.443V69.8027H151.981V64.4251H146.15V69.8027H143.688ZM156.079 69.8027L160.063 56.7659H163.739L167.722 69.8027H165.187L161.638 58.305H162.109L158.614 69.8027H156.079ZM158.47 67.0867V64.7872H165.35V67.0867H158.47Z" fill="#FF0A00"/>
</svg>
