<svg width="28" height="28" viewBox="0 0 28 28" fill="none" xmlns="http://www.w3.org/2000/svg">
<g clip-path="url(#clip0_125_409)">
<path d="M26.6736 17.3206C26.9623 16.2443 27.1111 15.1243 27.1111 13.9868C27.1111 6.75057 21.2223 0.861816 13.9861 0.861816C6.74983 0.861816 0.861084 6.75057 0.861084 13.9868C0.861084 21.2231 6.74983 27.1118 13.9861 27.1118C15.1236 27.1118 16.2436 26.9631 17.3198 26.6743C17.4598 26.9368 17.7223 27.1206 18.0286 27.1381H18.0811C18.4136 27.1381 18.7286 26.9456 18.8686 26.6393L21.3711 21.3718L26.6386 18.8693C26.9623 18.7206 27.1636 18.3793 27.1373 18.0293C27.1198 17.7231 26.9361 17.4606 26.6736 17.3206ZM24.0661 8.73682H20.1373C19.8398 7.06557 19.4023 5.38557 18.8248 3.70557C21.0736 4.77307 22.9198 6.54057 24.0661 8.73682ZM11.2823 2.95307C12.1486 2.73432 13.0498 2.61182 13.9861 2.61182C14.9223 2.61182 15.8148 2.73432 16.6898 2.95307C17.4423 4.87807 17.9936 6.81182 18.3611 8.73682H9.61108C9.96983 6.80307 10.5211 4.86932 11.2823 2.95307ZM9.13858 3.71432C8.55233 5.38557 8.12358 7.05682 7.82608 8.73682H3.90608C5.05233 6.54057 6.88983 4.77307 9.13858 3.71432ZM2.61108 13.9868C2.61108 12.7618 2.81233 11.5893 3.17108 10.4868H7.57233C7.30108 12.8231 7.30108 15.1506 7.57233 17.4868H3.17108C2.81233 16.3843 2.61108 15.2118 2.61108 13.9868ZM3.90608 19.2368H7.82608C8.12358 20.9168 8.55233 22.5881 9.13858 24.2593C6.88983 23.2006 5.05233 21.4331 3.90608 19.2368ZM9.33983 10.4868H18.6411C18.8161 11.8781 18.8861 13.2868 18.8511 14.6868L14.2661 13.1556C13.9511 13.0506 13.6011 13.1293 13.3648 13.3656C13.1286 13.6018 13.0498 13.9518 13.1548 14.2668L14.2311 17.4868H9.33983C9.05108 15.1506 9.05108 12.8231 9.33983 10.4868ZM13.9861 25.3618C13.0498 25.3618 12.1486 25.2393 11.2823 25.0206C10.5211 23.1043 9.96983 21.1706 9.61108 19.2368H14.8173L16.7423 25.0206C15.8498 25.2481 14.9311 25.3618 13.9861 25.3618ZM20.3386 19.9193C20.1548 20.0068 20.0061 20.1556 19.9186 20.3393L18.2211 23.9268L16.2523 18.0206L15.3686 15.3693L23.9261 18.2218L20.3386 19.9193ZM25.0198 16.7431L20.5836 15.2643C20.6536 13.6718 20.5923 12.0706 20.3998 10.4868H24.8011C25.1598 11.5893 25.3611 12.7618 25.3611 13.9868C25.3611 14.9318 25.2473 15.8506 25.0198 16.7431Z" fill="#CB172C"/>
</g>
<defs>
<clipPath id="clip0_125_409">
<rect width="28" height="28" fill="white"/>
</clipPath>
</defs>
</svg>
