<svg width="28" height="28" viewBox="0 0 28 28" fill="none" xmlns="http://www.w3.org/2000/svg">
<g clip-path="url(#clip0_125_392)">
<path d="M23.3333 3.5C23.3333 1.57033 21.763 0 19.8333 0H3.5C1.57033 0 0 1.57033 0 3.5V5.83333C0 7.763 1.57033 9.33333 3.5 9.33333H19.8333C21.763 9.33333 23.3333 7.763 23.3333 5.83333C24.6202 5.83333 25.6667 6.87983 25.6667 8.16667V9.33333C25.6667 10.6202 24.6202 11.6667 23.3333 11.6667H15.1667C12.593 11.6667 10.5 13.7597 10.5 16.3333V16.548C9.1455 17.031 8.16667 18.3143 8.16667 19.8333V24.5C8.16667 26.4297 9.737 28 11.6667 28C13.5963 28 15.1667 26.4297 15.1667 24.5V19.8333C15.1667 18.3143 14.1878 17.031 12.8333 16.548V16.3333C12.8333 15.0465 13.8798 14 15.1667 14H23.3333C25.907 14 28 11.907 28 9.33333V8.16667C28 5.593 25.907 3.5 23.3333 3.5ZM21 5.83333C21 6.47733 20.4762 7 19.8333 7H3.5C2.85717 7 2.33333 6.47733 2.33333 5.83333V3.5C2.33333 2.856 2.85717 2.33333 3.5 2.33333H19.8333C20.4762 2.33333 21 2.856 21 3.5V5.83333ZM12.8333 24.5C12.8333 25.144 12.3095 25.6667 11.6667 25.6667C11.0238 25.6667 10.5 25.144 10.5 24.5V19.8333C10.5 19.1893 11.0238 18.6667 11.6667 18.6667C12.3095 18.6667 12.8333 19.1893 12.8333 19.8333V24.5Z" fill="#CB172C"/>
</g>
<defs>
<clipPath id="clip0_125_392">
<rect width="28" height="28" fill="white"/>
</clipPath>
</defs>
</svg>
