<svg width="33" height="32" viewBox="0 0 33 32" fill="none" xmlns="http://www.w3.org/2000/svg">
<g clip-path="url(#clip0_125_383)">
<path d="M31.1667 25.3334V22.6667C31.1618 19.0098 29.7923 15.4864 27.3261 12.7862C24.86 10.086 21.4748 8.40349 17.8333 8.06802V6.29736C18.3417 6.00384 18.739 5.55079 18.9637 5.00844C19.1883 4.4661 19.2277 3.86479 19.0758 3.29777C18.9239 2.73075 18.5891 2.2297 18.1234 1.87235C17.6576 1.51499 17.087 1.32129 16.5 1.32129C15.913 1.32129 15.3424 1.51499 14.8766 1.87235C14.4109 2.2297 14.0761 2.73075 13.9242 3.29777C13.7723 3.86479 13.8117 4.4661 14.0363 5.00844C14.261 5.55079 14.6583 6.00384 15.1667 6.29736V8.06802C11.5252 8.40349 8.14002 10.086 5.67388 12.7862C3.20773 15.4864 1.83818 19.0098 1.83333 22.6667V25.3334C1.47971 25.3334 1.14057 25.4738 0.890524 25.7239C0.640476 25.9739 0.5 26.3131 0.5 26.6667C0.5 27.0203 0.640476 27.3595 0.890524 27.6095C1.14057 27.8595 1.47971 28 1.83333 28H31.1667C31.5203 28 31.8594 27.8595 32.1095 27.6095C32.3595 27.3595 32.5 27.0203 32.5 26.6667C32.5 26.3131 32.3595 25.9739 32.1095 25.7239C31.8594 25.4738 31.5203 25.3334 31.1667 25.3334ZM4.5 22.6667C5.13067 6.75469 27.8747 6.76669 28.5 22.6667V25.3334H4.5V22.6667Z" fill="#CB172C"/>
</g>
<defs>
<clipPath id="clip0_125_383">
<rect width="32" height="32" fill="white" transform="translate(0.5)"/>
</clipPath>
</defs>
</svg>
