<svg width="29" height="28" viewBox="0 0 29 28" fill="none" xmlns="http://www.w3.org/2000/svg">
<g clip-path="url(#clip0_125_379)">
<path d="M28.5 9.91676C28.5 9.45264 28.3156 9.00752 27.9874 8.67933C27.6592 8.35114 27.2141 8.16676 26.75 8.16676C26.75 8.16676 26.0687 8.16676 26.0208 8.1761C25.1485 6.55972 24.149 5.01525 23.0318 3.55726C22.4489 2.79928 21.6412 2.24512 20.7242 1.9741C18.6697 0.975431 10.3303 0.975431 8.27583 1.9741C7.35884 2.24512 6.55108 2.79928 5.96817 3.55726C4.85102 5.01525 3.85154 6.55972 2.97917 8.1761C2.93133 8.16676 2.25 8.16676 2.25 8.16676C1.78587 8.16676 1.34075 8.35114 1.01256 8.67933C0.684374 9.00752 0.5 9.45264 0.5 9.91676L0.5 17.5001C0.500226 18.3191 0.715962 19.1235 1.12554 19.8327C1.53511 20.5419 2.1241 21.1308 2.83333 21.5403V23.3334C2.83333 24.2617 3.20208 25.1519 3.85846 25.8083C4.51484 26.4647 5.40508 26.8334 6.33333 26.8334C7.26159 26.8334 8.15183 26.4647 8.80821 25.8083C9.46458 25.1519 9.83333 24.2617 9.83333 23.3334V22.1668H19.1667V23.3334C19.1667 24.2617 19.5354 25.1519 20.1918 25.8083C20.8482 26.4647 21.7384 26.8334 22.6667 26.8334C23.5949 26.8334 24.4852 26.4647 25.1415 25.8083C25.7979 25.1519 26.1667 24.2617 26.1667 23.3334V21.5403C26.8759 21.1308 27.4649 20.5419 27.8745 19.8327C28.284 19.1235 28.4998 18.3191 28.5 17.5001V9.91676ZM7.81967 4.9771C8.10547 4.60851 8.50026 4.33947 8.94783 4.20826C10.72 3.3321 18.2812 3.3321 20.0522 4.20826C20.4997 4.33947 20.8945 4.60851 21.1803 4.9771C22.9521 7.30023 24.4112 9.84586 25.5203 12.5488C18.2121 11.4824 10.7879 11.4824 3.47967 12.5488C4.58882 9.84586 6.04795 7.30023 7.81967 4.9771ZM7.5 23.3334C7.5 23.6429 7.37708 23.9396 7.15829 24.1584C6.9395 24.3772 6.64275 24.5001 6.33333 24.5001C6.02391 24.5001 5.72717 24.3772 5.50838 24.1584C5.28958 23.9396 5.16667 23.6429 5.16667 23.3334V22.1668H7.5V23.3334ZM23.8333 23.3334C23.8333 23.6429 23.7104 23.9396 23.4916 24.1584C23.2728 24.3772 22.9761 24.5001 22.6667 24.5001C22.3572 24.5001 22.0605 24.3772 21.8417 24.1584C21.6229 23.9396 21.5 23.6429 21.5 23.3334V22.1668H23.8333V23.3334ZM23.8333 19.8334H5.16667C4.54783 19.8334 3.95434 19.5876 3.51675 19.15C3.07917 18.7124 2.83333 18.1189 2.83333 17.5001V14.9999C6.69588 14.4095 10.5933 14.0754 14.5 14.0001C18.4067 14.0754 22.3041 14.4095 26.1667 14.9999V17.5001C26.1667 18.1189 25.9208 18.7124 25.4832 19.15C25.0457 19.5876 24.4522 19.8334 23.8333 19.8334ZM7.5 17.5001C7.5 17.8095 7.37708 18.1063 7.15829 18.3251C6.9395 18.5438 6.64275 18.6668 6.33333 18.6668C6.02391 18.6668 5.72717 18.5438 5.50838 18.3251C5.28958 18.1063 5.16667 17.8095 5.16667 17.5001C5.16667 17.1907 5.28958 16.8939 5.50838 16.6751C5.72717 16.4563 6.02391 16.3334 6.33333 16.3334C6.64275 16.3334 6.9395 16.4563 7.15829 16.6751C7.37708 16.8939 7.5 17.1907 7.5 17.5001ZM23.8333 17.5001C23.8333 17.8095 23.7104 18.1063 23.4916 18.3251C23.2728 18.5438 22.9761 18.6668 22.6667 18.6668C22.3572 18.6668 22.0605 18.5438 21.8417 18.3251C21.6229 18.1063 21.5 17.8095 21.5 17.5001C21.5 17.1907 21.6229 16.8939 21.8417 16.6751C22.0605 16.4563 22.3572 16.3334 22.6667 16.3334C22.9761 16.3334 23.2728 16.4563 23.4916 16.6751C23.7104 16.8939 23.8333 17.1907 23.8333 17.5001Z" fill="#CB172C"/>
</g>
<defs>
<clipPath id="clip0_125_379">
<rect width="28" height="28" fill="white" transform="translate(0.5)"/>
</clipPath>
</defs>
</svg>
