<svg width="29" height="28" viewBox="0 0 29 28" fill="none" xmlns="http://www.w3.org/2000/svg">
<g clip-path="url(#clip0_125_373)">
<path d="M26.9985 4.7565C26.6703 4.36268 26.2595 4.04594 25.7951 3.82878C25.3308 3.61163 24.8243 3.49937 24.3117 3.5H5.449L5.4 3.0905C5.29972 2.23932 4.89062 1.45452 4.25024 0.884891C3.60986 0.315261 2.78273 0.000398759 1.92567 0L1.66667 0C1.35725 0 1.0605 0.122916 0.841709 0.341709C0.622916 0.560501 0.5 0.857247 0.5 1.16667C0.5 1.47609 0.622916 1.77283 0.841709 1.99162C1.0605 2.21042 1.35725 2.33333 1.66667 2.33333H1.92567C2.21142 2.33337 2.48723 2.43828 2.70077 2.62817C2.91431 2.81805 3.05073 3.07971 3.08417 3.3635L4.6895 17.0135C4.85616 18.4331 5.53822 19.7421 6.60623 20.692C7.67423 21.6419 9.05383 22.1667 10.4832 22.1667H22.6667C22.9761 22.1667 23.2728 22.0438 23.4916 21.825C23.7104 21.6062 23.8333 21.3094 23.8333 21C23.8333 20.6906 23.7104 20.3938 23.4916 20.175C23.2728 19.9562 22.9761 19.8333 22.6667 19.8333H10.4832C9.76107 19.8313 9.05727 19.606 8.46826 19.1882C7.87925 18.7705 7.43387 18.1808 7.19317 17.5H21.0998C22.4675 17.5001 23.7917 17.0196 24.8411 16.1425C25.8905 15.2654 26.5984 14.0475 26.841 12.7015L27.7568 7.62183C27.8483 7.11784 27.8277 6.59991 27.6967 6.10474C27.5656 5.60958 27.3273 5.14929 26.9985 4.7565ZM25.4667 7.20767L24.5497 12.2873C24.404 13.0958 23.9785 13.8273 23.3478 14.3537C22.7171 14.8801 21.9214 15.1679 21.0998 15.1667H6.82217L5.72433 5.83333H24.3117C24.4831 5.83231 24.6526 5.86906 24.8081 5.94096C24.9637 6.01287 25.1015 6.11817 25.2118 6.24938C25.322 6.38058 25.402 6.53447 25.4461 6.70009C25.4902 6.86572 25.4972 7.03902 25.4667 7.20767Z" fill="#CB172C"/>
<path d="M8.66671 28.0002C9.95537 28.0002 11 26.9555 11 25.6668C11 24.3782 9.95537 23.3335 8.66671 23.3335C7.37804 23.3335 6.33337 24.3782 6.33337 25.6668C6.33337 26.9555 7.37804 28.0002 8.66671 28.0002Z" fill="#CB172C"/>
<path d="M20.3333 28.0002C21.622 28.0002 22.6667 26.9555 22.6667 25.6668C22.6667 24.3782 21.622 23.3335 20.3333 23.3335C19.0447 23.3335 18 24.3782 18 25.6668C18 26.9555 19.0447 28.0002 20.3333 28.0002Z" fill="#CB172C"/>
</g>
<defs>
<clipPath id="clip0_125_373">
<rect width="28" height="28" fill="white" transform="translate(0.5)"/>
</clipPath>
</defs>
</svg>
