<svg width="32" height="32" viewBox="0 0 32 32" fill="none" xmlns="http://www.w3.org/2000/svg">
<path d="M27.9572 14.1822C28.705 13.3317 28.9978 12.165 28.74 11.0614L28.6432 10.6612C28.2967 9.29969 27.1265 8.26136 25.73 8.07702C24.7733 7.95102 23.8015 7.84369 22.8192 7.75619C22.8425 7.58119 22.8542 7.40386 22.8542 7.22536C22.8542 5.01336 21.0552 3.21436 18.8432 3.21436C17.7325 3.21436 16.7268 3.66819 15.9988 4.39969C15.272 3.66819 14.2652 3.21436 13.1545 3.21436C10.9425 3.21436 9.14349 5.01336 9.14349 7.22536C9.14349 7.40502 9.15633 7.58352 9.17966 7.75969C8.19616 7.84836 7.22316 7.95569 6.26533 8.08286C4.86883 8.26836 3.69866 9.30786 3.35449 10.6682L3.25766 11.0672C3.00099 12.172 3.29383 13.3387 4.04166 14.1892C4.18866 14.3572 4.34849 14.5077 4.51883 14.6407C3.81066 18.2247 3.93899 22.3209 4.86999 25.6622C5.24099 26.9887 6.36099 27.9769 7.72599 28.1775C10.47 28.5812 13.2338 28.7819 15.9965 28.7819C18.7592 28.7819 21.5242 28.58 24.2682 28.1775C25.632 27.9769 26.7532 26.9887 27.123 25.6622C28.0552 22.3197 28.1823 18.2224 27.4753 14.6349C27.6457 14.5019 27.8067 14.3502 27.9537 14.1822H27.9572ZM25.4243 10.3894C25.884 10.45 26.2678 10.7895 26.381 11.2399L26.4673 11.5887C26.5548 11.9679 26.4592 12.3517 26.2037 12.6422C25.954 12.9245 25.6122 13.068 25.2213 13.0284C22.5823 12.7624 19.878 12.6142 17.1655 12.5815V9.79902C19.9667 9.84102 22.755 10.0382 25.4232 10.3905L25.4243 10.3894ZM18.8443 5.54886C19.7695 5.54886 20.522 6.30136 20.522 7.22652C20.522 7.33036 20.5208 7.47502 20.5045 7.58702C19.4055 7.52402 18.2983 7.48319 17.1877 7.46686C17.1783 7.38869 17.1678 7.29069 17.1678 7.22652C17.1678 6.30252 17.9203 5.54886 18.8455 5.54886H18.8443ZM13.1568 5.54886C14.0808 5.54886 14.8345 6.30136 14.8345 7.22652C14.8345 7.29069 14.824 7.38986 14.8147 7.46802C13.7052 7.48552 12.5968 7.52636 11.4978 7.59052C11.4815 7.47619 11.4803 7.33036 11.4803 7.22652C11.4803 6.30252 12.2328 5.54886 13.158 5.54886H13.1568ZM5.53149 11.5969L5.61783 11.2422C5.73099 10.7977 6.11483 10.457 6.57333 10.3964C9.24266 10.0429 12.031 9.84336 14.8333 9.79902V12.5815C12.1197 12.6154 9.41416 12.767 6.77633 13.0342C6.39483 13.0774 6.04366 12.9304 5.79516 12.648C5.53966 12.3575 5.44399 11.9749 5.53149 11.5969ZM7.12049 25.0357C6.31899 22.161 6.18716 18.5105 6.75766 15.371C6.84166 15.3687 6.92683 15.364 7.01199 15.3559C9.57399 15.0957 12.2002 14.9499 14.8345 14.9149V26.4357C12.5735 26.3867 10.3148 26.1989 8.06899 25.8687C7.61633 25.8022 7.24416 25.4744 7.12166 25.0345L7.12049 25.0357ZM24.8795 25.0357C24.7582 25.4697 24.3767 25.8045 23.9322 25.8699C21.6875 26.2 19.4277 26.3879 17.1667 26.4369V14.9137C19.801 14.9464 22.4272 15.091 24.9892 15.3489C25.0732 15.357 25.1572 15.3617 25.2412 15.364C25.8128 18.5059 25.6822 22.1587 24.8807 25.0334L24.8795 25.0357Z" fill="#CB172C"/>
</svg>
