<svg width="28" height="28" viewBox="0 0 28 28" fill="none" xmlns="http://www.w3.org/2000/svg">
<g clip-path="url(#clip0_125_396)">
<path d="M26.9745 10.5805L18.1253 1.73013C17.0301 0.63812 15.5466 0.0249023 14 0.0249023C12.4534 0.0249023 10.9699 0.63812 9.87468 1.73013L1.02551 10.5805C0.699344 10.9045 0.440746 11.2901 0.26471 11.7149C0.0886751 12.1397 -0.00129547 12.5952 1.40927e-05 13.055V24.5081C1.40927e-05 25.4364 0.368763 26.3266 1.02514 26.983C1.68152 27.6394 2.57176 28.0081 3.50001 28.0081H24.5C25.4283 28.0081 26.3185 27.6394 26.9749 26.983C27.6313 26.3266 28 25.4364 28 24.5081V13.055C28.0013 12.5952 27.9114 12.1397 27.7353 11.7149C27.5593 11.2901 27.3007 10.9045 26.9745 10.5805ZM17.5 25.6748H10.5V21.0851C10.5 20.1569 10.8688 19.2666 11.5251 18.6103C12.1815 17.9539 13.0718 17.5851 14 17.5851C14.9283 17.5851 15.8185 17.9539 16.4749 18.6103C17.1313 19.2666 17.5 20.1569 17.5 21.0851V25.6748ZM25.6667 24.5081C25.6667 24.8176 25.5438 25.1143 25.325 25.3331C25.1062 25.5519 24.8094 25.6748 24.5 25.6748H19.8333V21.0851C19.8333 19.538 19.2188 18.0543 18.1248 16.9603C17.0308 15.8664 15.5471 15.2518 14 15.2518C12.4529 15.2518 10.9692 15.8664 9.87523 16.9603C8.78126 18.0543 8.16668 19.538 8.16668 21.0851V25.6748H3.50001C3.1906 25.6748 2.89385 25.5519 2.67506 25.3331C2.45626 25.1143 2.33335 24.8176 2.33335 24.5081V13.055C2.33443 12.7458 2.45723 12.4494 2.67518 12.2301L11.5243 3.3833C12.182 2.72872 13.0721 2.36123 14 2.36123C14.9279 2.36123 15.818 2.72872 16.4757 3.3833L25.3249 12.2336C25.5419 12.4521 25.6647 12.747 25.6667 13.055V24.5081Z" fill="#CB172C"/>
</g>
<defs>
<clipPath id="clip0_125_396">
<rect width="28" height="28" fill="white"/>
</clipPath>
</defs>
</svg>
