<svg width="29" height="26" viewBox="0 0 29 26" fill="none" xmlns="http://www.w3.org/2000/svg">
<path d="M22.6667 4.72727H19.1667V3.54545C19.1667 2.60514 18.7979 1.70334 18.1415 1.03844C17.4852 0.373538 16.5949 0 15.6667 0H13.3333C12.4051 0 11.5148 0.373538 10.8585 1.03844C10.2021 1.70334 9.83333 2.60514 9.83333 3.54545V4.72727H6.33333C4.78681 4.72915 3.30415 5.35231 2.21059 6.46008C1.11703 7.56784 0.501853 9.06975 0.5 10.6364L0.5 20.0909C0.501853 21.6575 1.11703 23.1594 2.21059 24.2672C3.30415 25.375 4.78681 25.9981 6.33333 26H22.6667C24.2132 25.9981 25.6959 25.375 26.7894 24.2672C27.883 23.1594 28.4981 21.6575 28.5 20.0909V10.6364C28.4981 9.06975 27.883 7.56784 26.7894 6.46008C25.6959 5.35231 24.2132 4.72915 22.6667 4.72727ZM12.1667 3.54545C12.1667 3.23202 12.2896 2.93142 12.5084 2.70978C12.7272 2.48815 13.0239 2.36364 13.3333 2.36364H15.6667C15.9761 2.36364 16.2728 2.48815 16.4916 2.70978C16.7104 2.93142 16.8333 3.23202 16.8333 3.54545V4.72727H12.1667V3.54545ZM26.1667 20.0909C26.1667 21.0312 25.7979 21.933 25.1415 22.5979C24.4852 23.2628 23.5949 23.6364 22.6667 23.6364H6.33333C5.40508 23.6364 4.51484 23.2628 3.85846 22.5979C3.20208 21.933 2.83333 21.0312 2.83333 20.0909V10.6364C2.83333 9.69605 3.20208 8.79425 3.85846 8.12935C4.51484 7.46445 5.40508 7.09091 6.33333 7.09091H22.6667C23.5949 7.09091 24.4852 7.46445 25.1415 8.12935C25.7979 8.79425 26.1667 9.69605 26.1667 10.6364V20.0909ZM19.1667 15.3636C19.1667 15.6771 19.0437 15.9777 18.825 16.1993C18.6062 16.4209 18.3094 16.5455 18 16.5455H15.6667V18.9091C15.6667 19.2225 15.5437 19.5231 15.325 19.7448C15.1062 19.9664 14.8094 20.0909 14.5 20.0909C14.1906 20.0909 13.8938 19.9664 13.675 19.7448C13.4562 19.5231 13.3333 19.2225 13.3333 18.9091V16.5455H11C10.6906 16.5455 10.3938 16.4209 10.175 16.1993C9.95625 15.9777 9.83333 15.6771 9.83333 15.3636C9.83333 15.0502 9.95625 14.7496 10.175 14.528C10.3938 14.3063 10.6906 14.1818 11 14.1818H13.3333V11.8182C13.3333 11.5047 13.4562 11.2041 13.675 10.9825C13.8938 10.7609 14.1906 10.6364 14.5 10.6364C14.8094 10.6364 15.1062 10.7609 15.325 10.9825C15.5437 11.2041 15.6667 11.5047 15.6667 11.8182V14.1818H18C18.3094 14.1818 18.6062 14.3063 18.825 14.528C19.0437 14.7496 19.1667 15.0502 19.1667 15.3636Z" fill="#CB172C"/>
</svg>
