<svg width="29" height="28" viewBox="0 0 29 28" fill="none" xmlns="http://www.w3.org/2000/svg">
<g clip-path="url(#clip0_125_387)">
<g clip-path="url(#clip1_125_387)">
<path d="M13.3333 17.5H11V15.1667H13.3333V17.5ZM18 15.1667H15.6667V17.5H18V15.1667ZM13.3333 19.8333H11V22.1667H13.3333V19.8333ZM18 19.8333H15.6667V22.1667H18V19.8333ZM13.3333 5.83333H11V8.16667H13.3333V5.83333ZM18 5.83333H15.6667V8.16667H18V5.83333ZM13.3333 10.5H11V12.8333H13.3333V10.5ZM18 10.5H15.6667V12.8333H18V10.5ZM28.5 9.33333C28.5 7.40367 26.9297 5.83333 25 5.83333H22.6667V3.5C22.6667 1.57033 21.0963 0 19.1667 0H9.83333C7.90367 0 6.33333 1.57033 6.33333 3.5V10.5H4C2.07033 10.5 0.5 12.0703 0.5 14V28H28.5V9.33333ZM2.83333 14C2.83333 13.356 3.35717 12.8333 4 12.8333H8.66667V3.5C8.66667 2.856 9.1905 2.33333 9.83333 2.33333H19.1667C19.8095 2.33333 20.3333 2.856 20.3333 3.5V8.16667H25C25.6428 8.16667 26.1667 8.68933 26.1667 9.33333V25.6667H2.83333V14ZM23.8333 15.1667H21.5V17.5H23.8333V15.1667ZM23.8333 19.8333H21.5V22.1667H23.8333V19.8333ZM7.5 15.1667H5.16667V17.5H7.5V15.1667ZM7.5 19.8333H5.16667V22.1667H7.5V19.8333ZM23.8333 10.5H21.5V12.8333H23.8333V10.5Z" fill="#CB172C"/>
</g>
</g>
<defs>
<clipPath id="clip0_125_387">
<rect width="28" height="28" fill="white" transform="translate(0.5)"/>
</clipPath>
<clipPath id="clip1_125_387">
<rect width="28" height="28" fill="white" transform="translate(0.5)"/>
</clipPath>
</defs>
</svg>
