<svg width="28" height="28" viewBox="0 0 28 28" fill="none" xmlns="http://www.w3.org/2000/svg">
<g clip-path="url(#clip0_125_405)">
<path d="M19.8333 0C19.5239 0 19.2272 0.122916 19.0084 0.341709C18.7896 0.560501 18.6667 0.857247 18.6667 1.16667C18.6667 4.60717 15.6532 5.83333 12.8333 5.83333H4.66667C3.42899 5.83333 2.242 6.325 1.36684 7.20017C0.491665 8.07534 0 9.26232 0 10.5L0 12.8333C0.00254819 13.5319 0.162705 14.2208 0.468536 14.8488C0.774367 15.4769 1.21799 16.0278 1.76633 16.4605L5.93367 25.7612C6.23004 26.4274 6.7132 26.9935 7.32465 27.3909C7.9361 27.7882 8.64962 27.9998 9.37883 28C9.95903 27.9996 10.5299 27.8542 11.0395 27.5768C11.5492 27.2995 11.9813 26.8991 12.2967 26.4121C12.6121 25.9251 12.8007 25.367 12.8453 24.7885C12.8899 24.21 12.7891 23.6296 12.5522 23.1L9.9855 17.5H12.8333C15.6532 17.5 18.6667 18.7262 18.6667 22.1667C18.6667 22.4761 18.7896 22.7728 19.0084 22.9916C19.2272 23.2104 19.5239 23.3333 19.8333 23.3333C20.1428 23.3333 20.4395 23.2104 20.6583 22.9916C20.8771 22.7728 21 22.4761 21 22.1667V1.16667C21 0.857247 20.8771 0.560501 20.6583 0.341709C20.4395 0.122916 20.1428 0 19.8333 0ZM10.4265 24.0555C10.5038 24.23 10.5363 24.4211 10.5211 24.6113C10.5058 24.8016 10.4434 24.985 10.3393 25.145C10.2353 25.305 10.0929 25.4365 9.92522 25.5276C9.7575 25.6187 9.56969 25.6665 9.37883 25.6667C9.10046 25.6665 8.82813 25.5854 8.59493 25.4334C8.36173 25.2814 8.17769 25.065 8.06517 24.8103L4.78917 17.5H7.41883L10.4265 24.0555ZM18.6667 17.0333C16.9998 15.7491 14.9361 15.0887 12.8333 15.1667H4.66667C4.04783 15.1667 3.45434 14.9208 3.01675 14.4832C2.57917 14.0457 2.33333 13.4522 2.33333 12.8333V10.5C2.33333 9.88116 2.57917 9.28767 3.01675 8.85008C3.45434 8.4125 4.04783 8.16667 4.66667 8.16667H12.8333C14.9354 8.24635 16.9991 7.58803 18.6667 6.30583V17.0333ZM27.8833 18.0273C27.8149 18.1645 27.7201 18.2868 27.6044 18.3873C27.4886 18.4879 27.3542 18.5646 27.2088 18.6131C27.0634 18.6617 26.9099 18.6811 26.757 18.6702C26.6041 18.6594 26.4548 18.6185 26.3177 18.55L23.9843 17.3833C23.7074 17.245 23.4968 17.0024 23.3987 16.7087C23.3007 16.4151 23.3234 16.0946 23.4617 15.8177C23.6 15.5407 23.8426 15.3301 24.1363 15.2321C24.4299 15.1341 24.7504 15.1567 25.0273 15.295L27.3607 16.4617C27.6362 16.5999 27.8458 16.8415 27.9437 17.1338C28.0416 17.426 28.0199 17.7452 27.8833 18.0215V18.0273ZM23.4617 7.52733C23.3931 7.39022 23.3523 7.24095 23.3414 7.08804C23.3306 6.93513 23.35 6.78159 23.3986 6.63619C23.4471 6.49079 23.5238 6.35637 23.6243 6.24064C23.7248 6.1249 23.8472 6.0301 23.9843 5.96167L26.3177 4.795C26.5946 4.65669 26.9151 4.63405 27.2087 4.73207C27.5024 4.83009 27.745 5.04074 27.8833 5.31767C28.0216 5.5946 28.0443 5.91513 27.9463 6.20875C27.8482 6.50237 27.6376 6.74502 27.3607 6.88333L25.0273 8.05C24.8902 8.11855 24.741 8.15941 24.588 8.17024C24.4351 8.18107 24.2816 8.16166 24.1362 8.11312C23.9908 8.06458 23.8564 7.98786 23.7406 7.88735C23.6249 7.78684 23.5301 7.6645 23.4617 7.52733ZM23.3333 11.6667C23.3333 11.3572 23.4563 11.0605 23.675 10.8417C23.8938 10.6229 24.1906 10.5 24.5 10.5H26.8333C27.1428 10.5 27.4395 10.6229 27.6583 10.8417C27.8771 11.0605 28 11.3572 28 11.6667C28 11.9761 27.8771 12.2728 27.6583 12.4916C27.4395 12.7104 27.1428 12.8333 26.8333 12.8333H24.5C24.1906 12.8333 23.8938 12.7104 23.675 12.4916C23.4563 12.2728 23.3333 11.9761 23.3333 11.6667Z" fill="#CB172C"/>
</g>
<defs>
<clipPath id="clip0_125_405">
<rect width="28" height="28" fill="white"/>
</clipPath>
</defs>
</svg>
