<svg width="156" height="103" viewBox="0 0 156 103" fill="none" xmlns="http://www.w3.org/2000/svg">
<rect width="156" height="103" rx="16" fill="#F7F7F7"/>
<g clip-path="url(#clip0_6271_3378)">
<path d="M78.0889 51.4996C78.0889 44.5041 83.7599 38.833 90.7555 38.833C97.751 38.833 103.422 44.5042 103.422 51.4996C103.422 58.4953 97.7509 64.1662 90.7555 64.1662C83.7598 64.1662 78.0889 58.4952 78.0889 51.4996Z" fill="#00BCFF"/>
<path d="M52.7549 76.833C52.7549 69.8374 58.4259 64.1664 65.4215 64.1664L72.1717 60.6025L78.0881 64.1664V76.833C78.0881 83.8287 72.4171 89.4996 65.4215 89.4996C58.4259 89.4996 52.7549 83.8286 52.7549 76.833Z" fill="#00CF7F"/>
<path d="M78.0888 13.5L71.1963 25.4745L78.0888 38.8332H90.5778C97.5735 38.8332 103.244 33.1622 103.244 26.1666C103.244 19.1711 97.5733 13.5 90.5778 13.5H78.0888Z" fill="#FF7361"/>
<path d="M52.5771 26.1666C52.5771 33.1622 58.2482 38.8332 65.2438 38.8332L71.9631 41.4285L78.0881 38.8332V13.5H65.2436C58.2482 13.5 52.5771 19.1711 52.5771 26.1666Z" fill="#FF4D12"/>
<path d="M52.7549 51.4998C52.7549 58.4955 58.4259 64.1664 65.4215 64.1664H78.0881V38.833H65.4215C58.4259 38.833 52.7549 44.5042 52.7549 51.4998Z" fill="#B659FF"/>
</g>
<defs>
<clipPath id="clip0_6271_3378">
<rect width="76" height="76" fill="white" transform="translate(40 13.5)"/>
</clipPath>
</defs>
</svg>
