<svg width="16" height="16" viewBox="0 0 16 16" fill="none" xmlns="http://www.w3.org/2000/svg">
<path d="M8 0C3.58867 0 0 3.58867 0 8C0 12.4113 3.58867 16 8 16C12.4113 16 16 12.4113 16 8C16 3.58867 12.4113 0 8 0ZM11.8047 12.138C11.6747 12.268 11.504 12.3333 11.3333 12.3333C11.1627 12.3333 10.992 12.268 10.862 12.138L7.52867 8.80467C7.40333 8.68 7.33333 8.51067 7.33333 8.33333V4C7.33333 3.63133 7.632 3.33333 8 3.33333C8.368 3.33333 8.66667 3.63133 8.66667 4V8.05733L11.8047 11.1953C12.0653 11.456 12.0653 11.8773 11.8047 12.138Z" fill="#CB172C"/>
</svg>
