<svg width="16" height="16" viewBox="0 0 16 16" fill="none" xmlns="http://www.w3.org/2000/svg">
<g clip-path="url(#clip0_6366_4064)">
<path d="M7.21496 7.91791C7.63275 8.19644 8.36582 8.19647 8.78369 7.91788C8.78376 7.91785 8.78385 7.91778 8.78391 7.91775L15.9047 3.1705C15.6712 2.49499 15.0292 2.00836 14.2753 2.00836H1.72323C0.969319 2.00836 0.327346 2.49499 0.09375 3.1705L7.21474 7.91778C7.21484 7.91785 7.2149 7.91785 7.21496 7.91791Z" fill="#CB172C"/>
<path d="M9.30464 8.69782C9.30454 8.69788 9.30448 8.69795 9.30442 8.69798C8.93873 8.94176 8.46929 9.06367 8 9.06367C7.53062 9.06367 7.06137 8.94179 6.69565 8.69795C6.69558 8.69791 6.69555 8.69788 6.69549 8.69785L0 4.23422V12.2678C0 13.2183 0.77335 13.9916 1.72395 13.9916H14.2761C15.2267 13.9916 16 13.2183 16 12.2678V4.23422L9.30464 8.69782Z" fill="#CB172C"/>
</g>
<defs>
<clipPath id="clip0_6366_4064">
<rect width="16" height="16" fill="white"/>
</clipPath>
</defs>
</svg>
