<svg width="16" height="16" viewBox="0 0 16 16" fill="none" xmlns="http://www.w3.org/2000/svg">
<g clip-path="url(#clip0_6366_4048)">
<path fill-rule="evenodd" clip-rule="evenodd" d="M15.7078 14.0737C15.6016 14.1796 15.4735 14.315 15.3376 14.4583C14.9986 14.8181 14.5751 15.2653 14.3097 15.4467C12.9131 16.401 11.0447 15.9444 9.72314 15.3937C7.97973 14.6673 6.08164 13.3284 4.37736 11.6239C2.67148 9.91925 1.33267 8.02056 0.606264 6.27815C0.0562639 4.95628 -0.40133 3.08753 0.553139 1.69065C0.734389 1.42503 1.18267 1.00218 1.54198 0.662527C1.68573 0.52709 1.82011 0.399121 1.92636 0.293215C2.11499 0.10552 2.37027 0.000152588 2.63637 0.000152588C2.90248 0.000152588 3.15776 0.10552 3.34639 0.293215L5.91601 2.86209C6.10361 3.05071 6.20891 3.30592 6.20891 3.57195C6.20891 3.83798 6.10361 4.09318 5.91601 4.28181L5.21601 4.9804C4.98224 5.21247 4.82965 5.51382 4.78095 5.8396C4.73225 6.16538 4.79004 6.49818 4.94573 6.78846C5.90854 8.60567 7.39493 10.0918 9.2123 11.0543C9.50252 11.2099 9.83525 11.2677 10.1609 11.2189C10.4866 11.1701 10.7878 11.0174 11.0197 10.7836L11.718 10.085C11.9066 9.89727 12.1619 9.7919 12.428 9.7919C12.6941 9.7919 12.9494 9.89727 13.138 10.085L15.7078 12.6543C15.8954 12.8428 16.0007 13.098 16.0007 13.364C16.0007 13.63 15.8954 13.8851 15.7078 14.0737Z" fill="#CB172C"/>
</g>
<defs>
<clipPath id="clip0_6366_4048">
<rect width="16" height="16" fill="white"/>
</clipPath>
</defs>
</svg>
